<?xml version="1.0" encoding="utf-8"?>
<!-- Generator: Adobe Illustrator 28.0.0, SVG Export Plug-In . SVG Version: 6.00 Build 0)  -->
<svg version="1.1" id="Warstwa_1" xmlns="http://www.w3.org/2000/svg" xmlns:xlink="http://www.w3.org/1999/xlink" x="0px" y="0px"
	 viewBox="0 0 257 57.8" style="enable-background:new 0 0 257 57.8;" xml:space="preserve">
<style type="text/css">
	.st0{fill:#164194;}
	.st1{fill:#FFED00;}
</style>
<g id="XMLID_1382_">
	<g id="XMLID_1386_">
		<rect id="XMLID_1399_" x="170.2" class="st0" width="86.8" height="57.8"/>
		<polygon id="XMLID_1398_" class="st1" points="211.8,12.6 213.6,11.3 215.4,12.6 214.7,10.4 216.6,9.1 214.3,9.1 213.6,6.9 
			212.9,9.1 210.6,9.1 212.4,10.4 		"/>
		<polygon id="XMLID_1397_" class="st1" points="202.3,15.1 204.1,13.8 205.9,15.1 205.2,13 207.1,11.7 204.8,11.7 204.1,9.5 
			203.4,11.7 201.1,11.7 203,13 		"/>
		<polygon id="XMLID_1396_" class="st1" points="197.2,16.4 196.5,18.6 194.2,18.6 196,19.9 195.4,22.1 197.2,20.8 199,22.1 
			198.3,19.9 200.2,18.6 197.9,18.6 		"/>
		<polygon id="XMLID_1395_" class="st1" points="194.6,30.2 196.5,31.6 195.8,29.4 197.6,28.1 195.3,28.1 194.6,25.9 193.9,28.1 
			191.6,28.1 193.5,29.4 192.8,31.6 		"/>
		<polygon id="XMLID_1394_" class="st1" points="197.9,37.6 197.2,35.4 196.5,37.6 194.2,37.6 196,38.9 195.4,41 197.2,39.7 199,41 
			198.3,38.9 200.2,37.6 		"/>
		<polygon id="XMLID_1393_" class="st1" points="204.8,44.5 204.1,42.3 203.4,44.5 201.1,44.5 203,45.8 202.3,48 204.1,46.7 206,48 
			205.3,45.8 207.1,44.5 		"/>
		<polygon id="XMLID_1392_" class="st1" points="214.3,47 213.6,44.8 212.9,47 210.6,47 212.5,48.3 211.8,50.5 213.6,49.2 
			215.4,50.5 214.7,48.3 216.6,47 		"/>
		<polygon id="XMLID_1391_" class="st1" points="223.8,44.5 223,42.3 222.3,44.5 220.1,44.5 221.9,45.8 221.2,48 223,46.7 224.9,48 
			224.2,45.8 226.1,44.5 		"/>
		<polygon id="XMLID_1390_" class="st1" points="230.7,37.6 230,35.4 229.3,37.6 227,37.6 228.9,38.9 228.2,41 230,39.7 231.8,41 
			231.1,38.9 233,37.6 		"/>
		<polygon id="XMLID_1389_" class="st1" points="235.5,28 233.2,28 232.5,25.8 231.8,28 229.5,28 231.4,29.4 230.7,31.5 232.5,30.2 
			234.3,31.5 233.6,29.4 		"/>
		<polygon id="XMLID_1388_" class="st1" points="228.2,22.1 230,20.7 231.8,22.1 231.1,19.9 233,18.6 230.7,18.6 230,16.4 
			229.3,18.6 227,18.6 228.9,19.9 		"/>
		<polygon id="XMLID_1387_" class="st1" points="223.1,9.5 222.4,11.7 220.1,11.7 221.9,13 221.3,15.2 223.1,13.8 224.9,15.2 
			224.2,13 226.1,11.7 223.8,11.7 		"/>
	</g>
	<g>
		<g>
			<path d="M5.7,35.6c-1,0-1.8-0.1-2.5-0.4c-0.7-0.3-1.3-0.7-1.8-1.2c-0.5-0.5-0.8-1.1-1-1.8C0.1,31.5,0,30.7,0,29.9v-9h2.7v8.8
				c0,0.7,0.1,1.2,0.2,1.7s0.4,0.8,0.6,1.1c0.3,0.3,0.6,0.5,1,0.6c0.4,0.1,0.8,0.2,1.2,0.2c0.5,0,0.9-0.1,1.3-0.2
				c0.4-0.1,0.7-0.4,1-0.6c0.3-0.3,0.5-0.7,0.6-1.1c0.1-0.5,0.2-1,0.2-1.7v-8.8h2.7v9c0,0.8-0.1,1.6-0.3,2.3c-0.2,0.7-0.6,1.3-1,1.8
				c-0.5,0.5-1.1,0.9-1.8,1.2C7.5,35.5,6.7,35.6,5.7,35.6z"/>
			<path d="M14.5,25.1c0.5-0.1,1.1-0.3,1.9-0.4c0.8-0.1,1.6-0.2,2.6-0.2c0.9,0,1.6,0.1,2.2,0.4c0.6,0.2,1.1,0.6,1.4,1
				c0.4,0.4,0.6,1,0.8,1.6s0.2,1.3,0.2,2v6.1h-2.5v-5.7c0-0.6,0-1.1-0.1-1.5c-0.1-0.4-0.2-0.7-0.4-1c-0.2-0.3-0.4-0.4-0.7-0.6
				c-0.3-0.1-0.7-0.2-1.1-0.2c-0.3,0-0.7,0-1,0.1c-0.3,0-0.6,0.1-0.8,0.1v8.8h-2.5V25.1z"/>
			<path d="M29.4,21.5c0,0.5-0.2,0.8-0.5,1.1c-0.3,0.3-0.7,0.4-1.1,0.4c-0.4,0-0.8-0.1-1.1-0.4c-0.3-0.3-0.5-0.7-0.5-1.1
				c0-0.5,0.2-0.9,0.5-1.1c0.3-0.3,0.7-0.4,1.1-0.4c0.4,0,0.8,0.1,1.1,0.4C29.3,20.6,29.4,21,29.4,21.5z M29.2,35.6h-2.5V24.7h2.5
				V35.6z"/>
			<path d="M35.9,24.2c0.8,0,1.5,0.1,2.1,0.3c0.6,0.2,1,0.5,1.4,0.9c0.3,0.4,0.6,0.8,0.7,1.4c0.1,0.5,0.2,1.1,0.2,1.8v6.6
				c-0.4,0.1-1,0.2-1.8,0.3c-0.8,0.1-1.7,0.2-2.7,0.2c-0.7,0-1.3-0.1-1.8-0.2c-0.5-0.1-1-0.3-1.4-0.6c-0.4-0.3-0.7-0.6-0.9-1.1
				c-0.2-0.4-0.3-1-0.3-1.6c0-0.6,0.1-1.2,0.4-1.6c0.2-0.4,0.6-0.8,1-1.1c0.4-0.3,0.9-0.5,1.5-0.6c0.5-0.1,1.1-0.2,1.7-0.2
				c0.3,0,0.6,0,0.9,0.1c0.3,0,0.6,0.1,1,0.2v-0.4c0-0.3,0-0.6-0.1-0.8c-0.1-0.3-0.2-0.5-0.4-0.7c-0.2-0.2-0.4-0.4-0.7-0.5
				c-0.3-0.1-0.6-0.2-1.1-0.2c-0.6,0-1.1,0-1.6,0.1c-0.5,0.1-0.9,0.2-1.2,0.3l-0.3-2c0.3-0.1,0.8-0.2,1.4-0.3
				C34.5,24.3,35.2,24.2,35.9,24.2z M36.1,33.6c0.8,0,1.4,0,1.8-0.1v-2.8c-0.1,0-0.3-0.1-0.6-0.1c-0.3,0-0.6-0.1-0.9-0.1
				c-0.3,0-0.6,0-0.8,0.1c-0.3,0-0.5,0.1-0.8,0.2c-0.2,0.1-0.4,0.3-0.6,0.5C34.1,31.5,34,31.7,34,32c0,0.6,0.2,1,0.6,1.2
				C34.9,33.5,35.4,33.6,36.1,33.6z"/>
			<path d="M48.1,35.6V21.1h9.3v2.2h-6.7V27h5.9v2.2h-5.9v4.2h7.2v2.2H48.1z"/>
			<path d="M68.7,35c-0.5,0.1-1.1,0.3-1.9,0.4c-0.8,0.1-1.6,0.2-2.6,0.2c-0.9,0-1.6-0.1-2.2-0.4c-0.6-0.3-1.1-0.6-1.4-1
				c-0.4-0.4-0.6-1-0.8-1.6c-0.2-0.6-0.2-1.3-0.2-2v-6.1h2.5v5.7c0,1.2,0.2,2,0.5,2.5c0.3,0.5,0.9,0.8,1.8,0.8c0.3,0,0.6,0,1,0
				c0.3,0,0.6-0.1,0.8-0.1v-8.8h2.5V35z"/>
			<path d="M78,27c-0.2-0.1-0.5-0.1-0.9-0.2c-0.4-0.1-0.8-0.1-1.3-0.1c-0.3,0-0.6,0-0.9,0.1c-0.3,0.1-0.5,0.1-0.7,0.1v8.7h-2.5V25.2
				c0.5-0.2,1.1-0.4,1.8-0.5c0.7-0.2,1.5-0.2,2.4-0.2c0.2,0,0.4,0,0.6,0c0.2,0,0.4,0,0.7,0.1c0.2,0,0.4,0.1,0.6,0.1
				c0.2,0,0.4,0.1,0.5,0.1L78,27z"/>
			<path d="M90,29.9c0,0.9-0.1,1.6-0.4,2.4c-0.3,0.7-0.6,1.3-1.1,1.8c-0.5,0.5-1,0.9-1.7,1.2c-0.6,0.3-1.4,0.4-2.1,0.4
				c-0.8,0-1.5-0.1-2.1-0.4c-0.6-0.3-1.2-0.7-1.6-1.2c-0.5-0.5-0.8-1.1-1.1-1.8c-0.3-0.7-0.4-1.5-0.4-2.4c0-0.9,0.1-1.6,0.4-2.3
				c0.3-0.7,0.6-1.3,1.1-1.8c0.5-0.5,1-0.9,1.7-1.2c0.6-0.3,1.3-0.4,2.1-0.4c0.8,0,1.5,0.1,2.1,0.4c0.6,0.3,1.2,0.7,1.7,1.2
				c0.5,0.5,0.8,1.1,1.1,1.8C89.8,28.2,90,29,90,29.9z M87.4,29.9c0-1.1-0.2-1.9-0.7-2.6c-0.5-0.6-1.1-0.9-2-0.9
				c-0.8,0-1.5,0.3-2,0.9c-0.5,0.6-0.7,1.5-0.7,2.6c0,1.1,0.2,2,0.7,2.6c0.5,0.6,1.1,1,2,1c0.8,0,1.5-0.3,2-1
				C87.1,31.8,87.4,31,87.4,29.9z"/>
			<path d="M102.3,30.2c0,0.8-0.1,1.6-0.3,2.3c-0.2,0.7-0.5,1.3-0.9,1.8c-0.4,0.5-0.9,0.9-1.5,1.2c-0.6,0.3-1.3,0.4-2.1,0.4
				c-0.5,0-1-0.1-1.4-0.2c-0.4-0.1-0.8-0.3-1.1-0.4v4.2h-2.5V25.1c0.5-0.1,1.1-0.3,1.9-0.4c0.8-0.1,1.5-0.2,2.4-0.2
				c0.9,0,1.6,0.1,2.3,0.4c0.7,0.3,1.3,0.6,1.7,1.1c0.5,0.5,0.8,1.1,1.1,1.8C102.1,28.5,102.3,29.3,102.3,30.2z M99.7,30.2
				c0-1.1-0.3-2-0.8-2.6c-0.5-0.6-1.3-0.9-2.5-0.9c-0.2,0-0.5,0-0.7,0c-0.3,0-0.5,0.1-0.8,0.1V33c0.2,0.2,0.5,0.3,0.9,0.4
				c0.4,0.1,0.8,0.2,1.2,0.2c0.9,0,1.6-0.3,2-0.9C99.5,32.1,99.7,31.3,99.7,30.2z"/>
			<path d="M104.2,30c0-1,0.1-1.8,0.4-2.5c0.3-0.7,0.7-1.3,1.1-1.8c0.5-0.5,1-0.8,1.6-1.1c0.6-0.2,1.2-0.4,1.9-0.4
				c1.5,0,2.7,0.5,3.5,1.4c0.8,0.9,1.3,2.3,1.3,4.2c0,0.1,0,0.3,0,0.5c0,0.2,0,0.3,0,0.5h-7.2c0.1,0.9,0.4,1.6,0.9,2
				c0.5,0.5,1.3,0.7,2.4,0.7c0.6,0,1.2-0.1,1.7-0.2c0.5-0.1,0.9-0.2,1.2-0.4l0.3,2.1c-0.1,0.1-0.3,0.1-0.6,0.2
				c-0.2,0.1-0.5,0.1-0.8,0.2c-0.3,0.1-0.7,0.1-1,0.2c-0.4,0-0.7,0.1-1.1,0.1c-1,0-1.8-0.1-2.5-0.4c-0.7-0.3-1.3-0.7-1.8-1.2
				c-0.5-0.5-0.8-1.1-1-1.8C104.3,31.5,104.2,30.8,104.2,30z M111.5,28.8c0-0.3,0-0.7-0.1-1c-0.1-0.3-0.2-0.6-0.4-0.8
				c-0.2-0.2-0.4-0.4-0.7-0.5c-0.3-0.1-0.6-0.2-1-0.2c-0.4,0-0.7,0.1-1,0.2c-0.3,0.1-0.5,0.3-0.7,0.6c-0.2,0.2-0.4,0.5-0.5,0.8
				c-0.1,0.3-0.2,0.6-0.2,0.9H111.5z"/>
			<path d="M115.2,39.5c-0.2,0-0.4,0-0.8-0.1c-0.3,0-0.6-0.1-0.9-0.2l0.3-2.1c0.3,0.1,0.7,0.1,1.1,0.1c0.6,0,1-0.2,1.2-0.5
				c0.2-0.3,0.4-0.9,0.4-1.5V24.7h2.5v10.6c0,1.4-0.3,2.5-1,3.2C117.4,39.2,116.4,39.5,115.2,39.5z M119.3,21.5
				c0,0.5-0.2,0.8-0.5,1.1c-0.3,0.3-0.7,0.4-1.1,0.4c-0.4,0-0.8-0.1-1.1-0.4c-0.3-0.3-0.5-0.7-0.5-1.1c0-0.5,0.2-0.9,0.5-1.1
				c0.3-0.3,0.7-0.4,1.1-0.4c0.4,0,0.8,0.1,1.1,0.4C119.2,20.6,119.3,21,119.3,21.5z"/>
			<path d="M124.9,33.5c0.7,0,1.2-0.1,1.5-0.2c0.3-0.2,0.5-0.4,0.5-0.8c0-0.4-0.2-0.7-0.5-0.9c-0.3-0.2-0.9-0.5-1.6-0.8
				c-0.5-0.2-0.9-0.3-1.3-0.5c-0.4-0.2-0.7-0.4-1-0.7c-0.3-0.3-0.5-0.6-0.7-0.9c-0.2-0.4-0.2-0.8-0.2-1.3c0-1,0.4-1.8,1.1-2.4
				c0.7-0.6,1.7-0.9,3-0.9c0.6,0,1.3,0.1,1.8,0.2c0.6,0.1,1,0.2,1.3,0.3l-0.5,2c-0.3-0.1-0.6-0.2-1.1-0.3c-0.4-0.1-0.9-0.2-1.5-0.2
				c-0.5,0-0.9,0.1-1.3,0.3c-0.3,0.2-0.5,0.4-0.5,0.8c0,0.2,0,0.3,0.1,0.5c0.1,0.1,0.2,0.3,0.3,0.4c0.2,0.1,0.4,0.2,0.6,0.4
				c0.3,0.1,0.6,0.2,0.9,0.4c0.6,0.2,1.1,0.4,1.5,0.7c0.4,0.2,0.8,0.5,1,0.7c0.3,0.3,0.5,0.6,0.6,0.9c0.1,0.3,0.2,0.8,0.2,1.3
				c0,1-0.4,1.8-1.2,2.4c-0.8,0.5-1.9,0.8-3.3,0.8c-1,0-1.7-0.1-2.3-0.2c-0.6-0.2-1-0.3-1.2-0.4l0.4-2.1c0.4,0.2,0.8,0.3,1.3,0.4
				C123.6,33.5,124.2,33.5,124.9,33.5z"/>
			<path d="M134.1,29c0.3-0.3,0.7-0.7,1-1.1c0.4-0.4,0.7-0.8,1.1-1.1c0.3-0.4,0.7-0.8,1-1.1c0.3-0.4,0.6-0.7,0.8-0.9h3
				c-0.7,0.8-1.4,1.6-2.2,2.4c-0.8,0.8-1.5,1.6-2.3,2.4c0.4,0.3,0.9,0.8,1.3,1.3c0.5,0.5,0.9,1,1.3,1.6c0.4,0.6,0.8,1.1,1.2,1.7
				c0.4,0.6,0.7,1.1,0.9,1.5h-2.9c-0.3-0.4-0.5-0.9-0.9-1.4c-0.3-0.5-0.7-0.9-1.1-1.4c-0.4-0.4-0.8-0.9-1.1-1.3
				c-0.4-0.4-0.8-0.7-1.1-1v5h-2.5v-14l2.5-0.4V29z"/>
			<path d="M146.6,24.2c0.8,0,1.5,0.1,2.1,0.3c0.6,0.2,1,0.5,1.4,0.9c0.3,0.4,0.6,0.8,0.7,1.4c0.1,0.5,0.2,1.1,0.2,1.8v6.6
				c-0.4,0.1-1,0.2-1.8,0.3c-0.8,0.1-1.7,0.2-2.7,0.2c-0.7,0-1.3-0.1-1.8-0.2c-0.5-0.1-1-0.3-1.4-0.6c-0.4-0.3-0.7-0.6-0.9-1.1
				c-0.2-0.4-0.3-1-0.3-1.6c0-0.6,0.1-1.2,0.4-1.6c0.2-0.4,0.6-0.8,1-1.1c0.4-0.3,0.9-0.5,1.5-0.6c0.5-0.1,1.1-0.2,1.7-0.2
				c0.3,0,0.6,0,0.9,0.1c0.3,0,0.6,0.1,1,0.2v-0.4c0-0.3,0-0.6-0.1-0.8c-0.1-0.3-0.2-0.5-0.4-0.7c-0.2-0.2-0.4-0.4-0.7-0.5
				c-0.3-0.1-0.6-0.2-1.1-0.2c-0.6,0-1.1,0-1.6,0.1c-0.5,0.1-0.9,0.2-1.2,0.3l-0.3-2c0.3-0.1,0.8-0.2,1.4-0.3
				C145.2,24.3,145.9,24.2,146.6,24.2z M146.8,33.6c0.8,0,1.4,0,1.8-0.1v-2.8c-0.1,0-0.3-0.1-0.6-0.1c-0.3,0-0.6-0.1-0.9-0.1
				c-0.3,0-0.6,0-0.8,0.1c-0.3,0-0.5,0.1-0.8,0.2c-0.2,0.1-0.4,0.3-0.6,0.5c-0.1,0.2-0.2,0.5-0.2,0.8c0,0.6,0.2,1,0.6,1.2
				C145.6,33.5,146.2,33.6,146.8,33.6z"/>
		</g>
	</g>
</g>
</svg>
