<?xml version="1.0" encoding="UTF-8" standalone="no"?>
<!-- Generator: Adobe Illustrator 28.0.0, SVG Export Plug-In . SVG Version: 6.00 Build 0)  -->

<svg
   version="1.1"
   id="Warstwa_1"
   x="0px"
   y="0px"
   viewBox="0 0 232.69999 67.999999"
   xml:space="preserve"
   sodipodi:docname="logo-zip.svg"
   width="232.7"
   height="68"
   inkscape:version="1.3 (0e150ed6c4, 2023-07-21)"
   xmlns:inkscape="http://www.inkscape.org/namespaces/inkscape"
   xmlns:sodipodi="http://sodipodi.sourceforge.net/DTD/sodipodi-0.dtd"
   xmlns="http://www.w3.org/2000/svg"
   xmlns:svg="http://www.w3.org/2000/svg"><defs
   id="defs32" /><sodipodi:namedview
   id="namedview32"
   pagecolor="#505050"
   bordercolor="#eeeeee"
   borderopacity="1"
   inkscape:showpageshadow="0"
   inkscape:pageopacity="0"
   inkscape:pagecheckerboard="0"
   inkscape:deskcolor="#505050"
   inkscape:zoom="3.5243973"
   inkscape:cx="103.28007"
   inkscape:cy="33.906507"
   inkscape:window-width="1920"
   inkscape:window-height="1027"
   inkscape:window-x="-8"
   inkscape:window-y="-8"
   inkscape:window-maximized="1"
   inkscape:current-layer="Warstwa_1" />&#10;<style
   type="text/css"
   id="style1">&#10;	.st0{fill:#606060;}&#10;	.st1{fill:#183962;}&#10;</style>&#10;<g
   id="g32"
   transform="translate(-67.1,-14.2)">&#10;	<g
   id="g27">&#10;		<g
   id="g26">&#10;			<path
   class="st0"
   d="m 171.9,36.4 h -5.8 v -1 h 7.2 v 1 l -5.8,7.9 h 5.8 v 1 h -7.2 v -1 z"
   id="path1" />&#10;			<path
   class="st0"
   d="m 174.9,35.4 h 1.2 v 9.9 h -1.2 z"
   id="path2" />&#10;			<path
   class="st0"
   d="m 179.4,37.5 v 7.8 h -1.2 v -9.9 h 1.1 l 5.1,7.7 v -7.7 h 1.2 v 9.9 h -1.1 z"
   id="path3" />&#10;			<path
   class="st0"
   d="m 186.9,35.4 h 7.7 v 1 h -3.3 v 8.9 h -1.2 v -8.9 h -3.3 v -1 z"
   id="path4" />&#10;			<path
   class="st0"
   d="m 195.8,35.4 h 6.4 v 1 H 197 v 3.4 h 4.5 v 1 H 197 v 3.4 h 5.2 v 1 h -6.4 z"
   id="path5" />&#10;			<path
   class="st0"
   d="M 210.1,42.1 V 41.2 H 207 v -1 h 4.3 v 5 h -0.9 l -0.1,-1 c -0.6,0.8 -1.6,1.2 -2.9,1.2 -2.3,0 -3.6,-1.2 -3.6,-3.5 v -3.1 c 0,-2.3 1.5,-3.6 3.8,-3.6 2.2,0 3.7,1 3.7,3.1 v 0.1 h -1.2 v -0.1 c 0,-1.3 -1,-2.1 -2.5,-2.1 -1.7,0 -2.6,0.9 -2.6,2.6 v 3.1 c 0,1.6 1,2.5 2.6,2.5 1.6,0 2.5,-0.9 2.5,-2.3 z"
   id="path6" />&#10;			<path
   class="st0"
   d="m 213.3,35.4 h 3.9 c 1.9,0 3.2,0.9 3.2,3.1 0,1.6 -0.7,2.5 -1.9,2.9 l 1.9,3.9 H 219 l -1.8,-3.7 h -0.1 -2.8 v 3.7 h -1.2 v -9.9 z m 1.2,5.1 h 2.7 c 1.2,0 2,-0.6 2,-2.1 0,-1.4 -0.8,-2 -2,-2 h -2.7 z"
   id="path7" />&#10;			<path
   class="st0"
   d="m 229.7,41.8 c 0,2.3 -1.5,3.5 -3.8,3.5 -2.4,0 -3.8,-1.3 -3.8,-3.5 v -3.1 c 0,-2.3 1.5,-3.5 3.8,-3.5 2.4,0 3.8,1.3 3.8,3.5 z m -1.1,-3 c 0,-1.6 -1,-2.5 -2.6,-2.5 -1.7,0 -2.7,0.9 -2.7,2.5 v 3.1 c 0,1.6 1,2.5 2.6,2.5 1.7,0 2.7,-0.9 2.7,-2.5 z"
   id="path8" />&#10;			<path
   class="st0"
   d="m 230.7,35.4 h 1.2 l 2.2,8.4 2.2,-8.4 h 1.1 l 2.2,8.4 2.2,-8.4 h 1.2 l -2.7,9.9 H 239 l -2.1,-7.8 -2.1,7.8 h -1.3 z"
   id="path9" />&#10;			<path
   class="st0"
   d="m 251.2,45.2 h -1.3 L 249,42.7 h -4.5 l -0.9,2.5 h -1.2 l 3.7,-9.9 h 1.4 z m -6.4,-3.5 h 3.8 l -1.9,-5.1 z"
   id="path10" />&#10;			<path
   class="st0"
   d="m 253.5,37.5 v 7.8 h -1.2 v -9.9 h 1.1 l 5.1,7.7 v -7.7 h 1.2 v 9.9 h -1.1 z"
   id="path11" />&#10;			<path
   class="st0"
   d="m 265.6,45.2 h -1.2 v -3.8 l -3.7,-6.1 h 1.4 l 2.9,4.9 2.9,-4.9 h 1.3 l -3.7,6.1 v 3.8 z"
   id="path12" />&#10;			<path
   class="st0"
   d="m 166.7,51 h 3.7 c 1.9,0 3.2,0.9 3.2,3.1 0,2.1 -1.2,3.1 -3.2,3.1 h -2.5 v 3.7 h -1.2 z m 1.1,5.2 h 2.5 c 1.2,0 2,-0.6 2,-2.1 0,-1.4 -0.8,-2 -2,-2 h -2.5 z"
   id="path13" />&#10;			<path
   class="st0"
   d="m 175.1,51 h 3.9 c 1.9,0 3.2,0.9 3.2,3.1 0,1.6 -0.7,2.5 -1.9,2.9 l 1.9,3.9 h -1.4 L 179,57.2 v 0 h -2.8 v 3.7 H 175 V 51 Z m 1.2,5.2 h 2.7 c 1.2,0 2,-0.6 2,-2.1 0,-1.4 -0.8,-2 -2,-2 h -2.7 z"
   id="path14" />&#10;			<path
   class="st0"
   d="m 191.5,57.5 c 0,2.3 -1.5,3.5 -3.8,3.5 -2.4,0 -3.8,-1.3 -3.8,-3.5 v -3.1 c 0,-2.3 1.5,-3.5 3.8,-3.5 2.4,0 3.8,1.3 3.8,3.5 z m -1.1,-3 c 0,-1.6 -1,-2.5 -2.6,-2.5 -1.7,0 -2.7,0.9 -2.7,2.5 v 3.1 c 0,1.6 1,2.5 2.6,2.5 1.7,0 2.7,-0.9 2.7,-2.5 z"
   id="path15" />&#10;			<path
   class="st0"
   d="m 199.7,57.8 v -0.9 h -3.1 v -1 h 4.3 v 5 H 200 l -0.1,-1 c -0.6,0.8 -1.6,1.2 -2.9,1.2 -2.3,0 -3.6,-1.2 -3.6,-3.5 v -3.1 c 0,-2.3 1.5,-3.6 3.8,-3.6 2.2,0 3.7,1 3.7,3.1 v 0.1 h -1.2 V 54 c 0,-1.3 -1,-2.1 -2.5,-2.1 -1.7,0 -2.6,0.9 -2.6,2.6 v 3.1 c 0,1.6 1,2.5 2.6,2.5 1.5,0 2.5,-0.9 2.5,-2.3 z"
   id="path16" />&#10;			<path
   class="st0"
   d="m 202.9,51 h 3.9 c 1.9,0 3.2,0.9 3.2,3.1 0,1.6 -0.7,2.5 -1.9,2.9 l 1.9,3.9 h -1.4 l -1.8,-3.7 h -0.1 -2.7 v 3.7 h -1.2 V 51 Z m 1.1,5.2 h 2.7 c 1.2,0 2,-0.6 2,-2.1 0,-1.4 -0.8,-2 -2,-2 H 204 Z"
   id="path17" />&#10;			<path
   class="st0"
   d="m 219.5,60.9 h -1.3 l -0.9,-2.5 h -4.5 l -0.9,2.5 h -1.2 l 3.7,-9.9 h 1.4 z m -6.3,-3.5 h 3.8 l -1.9,-5.1 z"
   id="path18" />&#10;			<path
   class="st0"
   d="m 228,53.3 -3.1,5.8 -3.1,-5.8 v 7.6 h -1.2 V 51 h 1.1 l 3.1,5.8 3.2,-5.8 h 1.1 v 9.9 H 228 Z"
   id="path19" />&#10;			<path
   class="st0"
   d="m 235.7,51 h 3.9 c 1.9,0 3.2,0.9 3.2,3.1 0,1.6 -0.7,2.5 -1.9,2.9 l 1.9,3.9 h -1.4 l -1.8,-3.7 h -0.1 -2.8 v 3.7 h -1.2 V 51 Z m 1.1,5.2 h 2.7 c 1.2,0 2,-0.6 2,-2.1 0,-1.4 -0.8,-2 -2,-2 h -2.7 z"
   id="path20" />&#10;			<path
   class="st0"
   d="m 252.1,57.5 c 0,2.3 -1.5,3.5 -3.8,3.5 -2.4,0 -3.8,-1.3 -3.8,-3.5 v -3.1 c 0,-2.3 1.5,-3.5 3.8,-3.5 2.4,0 3.8,1.3 3.8,3.5 z m -1.2,-3 c 0,-1.6 -1,-2.5 -2.6,-2.5 -1.7,0 -2.7,0.9 -2.7,2.5 v 3.1 c 0,1.6 1,2.5 2.6,2.5 1.7,0 2.7,-0.9 2.7,-2.5 z"
   id="path21" />&#10;			<path
   class="st0"
   d="m 259.4,52.1 h -5.8 v -1 h 7.2 v 1 L 255,60 h 5.8 v 1 h -7.2 v -1 z"
   id="path22" />&#10;			<path
   class="st0"
   d="m 261.3,51 h 1.2 l 2.2,8.4 2.2,-8.4 h 1.1 l 2.2,8.4 2.2,-8.4 h 1.2 l -2.7,9.9 h -1.3 l -2.1,-7.8 -2.1,7.8 H 264 Z"
   id="path23" />&#10;			<path
   class="st0"
   d="m 282.2,57.5 c 0,2.3 -1.5,3.5 -3.8,3.5 -2.4,0 -3.8,-1.3 -3.8,-3.5 v -3.1 c 0,-2.3 1.5,-3.5 3.8,-3.5 2.4,0 3.8,1.3 3.8,3.5 z m -1.2,-3 c 0,-1.6 -1,-2.5 -2.6,-2.5 -1.7,0 -2.7,0.9 -2.7,2.5 v 3.1 c 0,1.6 1,2.5 2.6,2.5 1.7,0 2.7,-0.9 2.7,-2.5 z"
   id="path24" />&#10;			<path
   class="st0"
   d="m 290.4,51 v 6.8 c 0,2.1 -1.3,3.2 -3.5,3.2 -2.1,0 -3.5,-1.1 -3.5,-3.2 v -0.1 h 1.2 v 0.1 c 0,1.4 0.9,2.2 2.3,2.2 1.5,0 2.3,-0.8 2.3,-2.2 V 51 Z"
   id="path25" />&#10;			<path
   class="st0"
   d="m 299.8,51 v 6.6 c 0,2.2 -1.4,3.4 -3.7,3.4 -2.3,0 -3.7,-1.2 -3.7,-3.4 V 51 h 1.2 v 6.6 c 0,1.5 0.9,2.4 2.5,2.4 1.6,0 2.5,-0.9 2.5,-2.4 V 51 Z"
   id="path26" />&#10;		</g>&#10;	</g>&#10;	<g
   id="g31">&#10;		<g
   id="g28">&#10;			<path
   class="st1"
   d="m 121.6,14.2 c -11,0 -20.9,5.2 -27.1,13.4 h 34.7 c 11.7,0 21.1,9.5 21.1,21.1 0,11.7 -9.5,21.1 -21.1,21.1 -11.6,0 -21.1,-9.5 -21.1,-21.1 0,-7.4 3.8,-13.9 9.5,-17.7 H 92.2 c 0,0 0,0 0,0 h -12 c -0.6,-0.8 -1.6,-1.4 -2.7,-1.4 -1.8,0 -3.3,1.5 -3.3,3.3 0,1.8 1.5,3.3 3.3,3.3 1.1,0 2.1,-0.6 2.7,-1.4 h 10 c -1.1,2.6 -1.9,5.3 -2.4,8.1 h 7.9 c 0.5,-1 1.5,-1.7 2.6,-1.7 1.6,0 2.9,1.3 2.9,2.9 0,1.6 -1.3,2.9 -2.9,2.9 -1.2,0 -2.2,-0.7 -2.6,-1.7 h -2.6 v 0 H 72.6 c -0.5,-1 -1.5,-1.7 -2.6,-1.7 -1.6,0 -2.9,1.3 -2.9,2.9 0,1.6 1.3,2.9 2.9,2.9 1.2,0 2.2,-0.7 2.6,-1.7 h 14.9 c 0,0.2 0,0.3 0,0.5 0,2.6 0.3,5.1 0.8,7.5 h 8.2 C 97,54.7 98,54 99.1,54 c 1.6,0 2.9,1.3 2.9,2.9 0,1.6 -1.3,2.9 -2.9,2.9 -1.2,0 -2.2,-0.7 -2.6,-1.7 h -0.4 v 0 h -8.7 c -0.5,-1 -1.5,-1.7 -2.6,-1.7 -1.6,0 -2.9,1.3 -2.9,2.9 0,1.6 1.3,2.9 2.9,2.9 1.2,0 2.2,-0.7 2.6,-1.7 h 2.4 c 5,12.7 17.3,21.7 31.8,21.7 18.9,0 34.1,-15.3 34.1,-34.1 0,-18.8 -15.2,-33.9 -34.1,-33.9 z"
   id="path27" />&#10;		</g>&#10;		<g
   id="g30">&#10;			<path
   class="st1"
   d="m 121.1,45.1 v 0 h -6.6 v -3 h 12.1 v 0 l -7.3,12.3 v 0 h 7.1 v 3 h -12.6 v 0 z"
   id="path28" />&#10;			<path
   class="st1"
   d="m 128.9,42.1 h 3.4 v 15.4 h -3.4 z"
   id="path29" />&#10;			<path
   class="st1"
   d="m 135.1,42.1 h 4.6 c 1.8,0 3.4,0.2 4.6,0.8 1.3,0.7 2.5,2 2.5,4.1 0,1.9 -0.9,3.2 -2.2,4 -1.2,0.7 -2.7,1 -5,1 h -1.1 v 5.5 h -3.4 z m 4.6,7.1 c 1.3,0 2.1,-0.1 2.7,-0.4 0.6,-0.3 1,-0.9 1,-1.7 0,-0.9 -0.4,-1.5 -1.1,-1.8 C 141.7,45 140.9,45 139.7,45 h -1.1 v 4.2 z"
   id="path30" />&#10;		</g>&#10;	</g>&#10;</g>&#10;</svg>
