<?xml version="1.0" encoding="UTF-8"?>
<!-- Generator: Adobe Illustrator 22.0.0, SVG Export Plug-In . SVG Version: 6.00 Build 0)  -->
<svg version="1.1" id="Warstwa_1" xmlns="http://www.w3.org/2000/svg" xmlns:xlink="http://www.w3.org/1999/xlink" x="0px" y="0px" viewBox="0 0 243.1 90.7" style="enable-background:new 0 0 243.1 90.7;" xml:space="preserve">
<style type="text/css">
	.st0{fill:#164194;}
	.st1{fill:#FFED00;}
	.st2{fill:#E30613;}
	.st3{fill:#FFFFFF;}
</style>
<g>
	<g id="XMLID_1668_">
		<polygon id="XMLID_1672_" class="st0" points="45.4,90.7 0,82.2 0,14.2 45.4,0   "/>
		<path id="XMLID_1671_" class="st1" d="M0,65.9V48.2c2.3,0.6,4.8,0.9,6.5-0.1c3.7-2.2,9.2-8.9,9.2-8.9s-2.9,7.2-1.8,9.9    c1.2,2.8,8.1,3,8.1,3s-7.8,4.8-11.5,7.9C6.8,63.2,4.2,75,4.2,75S2.3,67.4,0,65.9"/>
		<path id="XMLID_1670_" class="st2" d="M45.4,34.7c-1.6,1-3.1,1.8-4.3,2c-3.6,0.7-7.5-3.5-7.5-3.5s0.9,6.1-1.4,9.9    c-2.4,4-10.2,9-10.2,9s8.6-1.7,10.2,1c1.8,2.9,2,12.8,2,12.8s4.4-11.9,8.3-13.6c0.8-0.3,1.7-0.6,2.8-0.9V34.7z"/>
		<path id="XMLID_1669_" class="st3" d="M15.7,39.2c0,0,4.4-6.9,4.1-9.3c-0.3-2.3-4.8-3.2-4.8-3.2s6-1.5,8.5-3.8    c2.5-2.3,4.7-6.9,4.7-6.9s0.6,3.9,2.8,4.4c2.3,0.6,8.4-1.9,8.4-1.9s-4.8,4.6-6.7,7.1c-2,2.6,0.8,7.6,0.8,7.6s-5.1-1.8-8-1.3    C22.7,32.5,15.7,39.2,15.7,39.2"/>
	</g>
	<g>
		<path d="M68,34V17h10.8v2.6h-7.7V24h6.8v2.6h-6.8V34H68z"/>
		<path d="M91.2,33.4c-0.6,0.1-1.3,0.3-2.2,0.5C88.1,34,87.1,34,86,34c-1,0-1.9-0.1-2.6-0.4c-0.7-0.3-1.3-0.7-1.7-1.2    c-0.4-0.5-0.7-1.1-0.9-1.9c-0.2-0.7-0.3-1.5-0.3-2.4v-7.2h3v6.7c0,1.4,0.2,2.4,0.6,2.9c0.4,0.6,1.1,0.9,2.1,0.9c0.4,0,0.7,0,1.1,0    c0.4,0,0.7-0.1,0.9-0.1V20.9h3V33.4z"/>
		<path d="M94.9,21.6c0.6-0.2,1.3-0.3,2.2-0.5c0.9-0.1,1.9-0.2,3-0.2c1,0,1.9,0.1,2.6,0.4c0.7,0.3,1.3,0.7,1.7,1.2    c0.4,0.5,0.7,1.1,0.9,1.9c0.2,0.7,0.3,1.5,0.3,2.4V34h-3v-6.8c0-0.7,0-1.3-0.1-1.8c-0.1-0.5-0.2-0.9-0.4-1.2    c-0.2-0.3-0.5-0.5-0.8-0.7c-0.4-0.1-0.8-0.2-1.3-0.2c-0.4,0-0.8,0-1.2,0.1c-0.4,0-0.7,0.1-0.9,0.1V34h-3V21.6z"/>
		<path d="M119.9,33.3c-0.6,0.2-1.3,0.3-2.2,0.5c-0.9,0.1-1.8,0.2-2.8,0.2c-1,0-1.9-0.2-2.7-0.5c-0.8-0.3-1.5-0.8-2-1.3    c-0.6-0.6-1-1.3-1.3-2.1c-0.3-0.8-0.5-1.8-0.5-2.8c0-1,0.1-1.9,0.4-2.8c0.3-0.8,0.6-1.5,1.1-2.1c0.5-0.6,1.1-1,1.8-1.4    c0.7-0.3,1.5-0.5,2.4-0.5c0.6,0,1.2,0.1,1.6,0.2c0.5,0.1,0.9,0.3,1.2,0.5v-3.8l3-0.5V33.3z M111.4,27.3c0,1.3,0.3,2.3,0.9,3.1    c0.6,0.7,1.5,1.1,2.6,1.1c0.5,0,0.9,0,1.2-0.1c0.3,0,0.6-0.1,0.8-0.1v-7.4c-0.3-0.2-0.6-0.3-1-0.5c-0.4-0.2-0.9-0.2-1.4-0.2    c-1.1,0-1.9,0.4-2.4,1.1C111.7,25,111.4,26,111.4,27.3z"/>
		<path d="M134.1,33.4c-0.6,0.1-1.3,0.3-2.2,0.5c-0.9,0.2-1.9,0.2-3,0.2c-1,0-1.9-0.1-2.6-0.4c-0.7-0.3-1.3-0.7-1.7-1.2    c-0.4-0.5-0.7-1.1-0.9-1.9c-0.2-0.7-0.3-1.5-0.3-2.4v-7.2h3v6.7c0,1.4,0.2,2.4,0.6,2.9c0.4,0.6,1.1,0.9,2.1,0.9c0.4,0,0.7,0,1.1,0    c0.4,0,0.7-0.1,0.9-0.1V20.9h3V33.4z"/>
		<path d="M141,31.6c0.8,0,1.4-0.1,1.7-0.3c0.4-0.2,0.5-0.5,0.5-1c0-0.4-0.2-0.8-0.6-1.1c-0.4-0.3-1-0.6-1.9-0.9    c-0.5-0.2-1-0.4-1.5-0.6c-0.5-0.2-0.8-0.5-1.2-0.8c-0.3-0.3-0.6-0.7-0.8-1.1c-0.2-0.4-0.3-0.9-0.3-1.5c0-1.2,0.4-2.1,1.3-2.8    c0.9-0.7,2-1,3.5-1c0.8,0,1.5,0.1,2.2,0.2c0.7,0.1,1.2,0.3,1.5,0.4l-0.5,2.4c-0.3-0.1-0.7-0.3-1.3-0.4c-0.5-0.1-1.1-0.2-1.8-0.2    c-0.6,0-1.1,0.1-1.5,0.3c-0.4,0.2-0.6,0.5-0.6,0.9c0,0.2,0,0.4,0.1,0.6c0.1,0.2,0.2,0.3,0.4,0.5c0.2,0.1,0.4,0.3,0.7,0.4    c0.3,0.1,0.7,0.3,1.1,0.4c0.7,0.3,1.3,0.5,1.8,0.8c0.5,0.3,0.9,0.5,1.2,0.9c0.3,0.3,0.6,0.7,0.7,1.1c0.1,0.4,0.2,0.9,0.2,1.5    c0,1.2-0.5,2.2-1.4,2.8c-0.9,0.6-2.2,0.9-3.9,0.9c-1.1,0-2-0.1-2.7-0.3c-0.7-0.2-1.2-0.3-1.4-0.5l0.5-2.5c0.4,0.2,1,0.4,1.6,0.5    C139.5,31.5,140.2,31.6,141,31.6z"/>
		<path d="M157.8,23.3c-0.3,0.3-0.8,0.8-1.3,1.4c-0.5,0.6-1.1,1.3-1.7,2.1c-0.6,0.8-1.2,1.6-1.8,2.4c-0.6,0.8-1.2,1.6-1.7,2.4h6.6    V34h-10.2v-1.8c0.4-0.7,0.8-1.4,1.3-2.1c0.5-0.8,1.1-1.5,1.7-2.3c0.6-0.8,1.1-1.5,1.7-2.2c0.6-0.7,1.1-1.3,1.5-1.8H148v-2.5h9.7    V23.3z"/>
		<path d="M159.4,27.4c0-1.1,0.2-2.1,0.5-3c0.3-0.9,0.8-1.6,1.3-2.1c0.6-0.6,1.2-1,1.9-1.3c0.7-0.3,1.5-0.4,2.2-0.4    c1.8,0,3.1,0.5,4.1,1.6c1,1.1,1.5,2.7,1.5,4.9c0,0.2,0,0.3,0,0.6c0,0.2,0,0.4,0,0.6h-8.5c0.1,1,0.4,1.8,1.1,2.4    c0.6,0.6,1.6,0.8,2.8,0.8c0.7,0,1.4-0.1,2-0.2c0.6-0.1,1.1-0.3,1.4-0.4l0.4,2.4c-0.2,0.1-0.4,0.2-0.7,0.3c-0.3,0.1-0.6,0.2-1,0.2    c-0.4,0.1-0.8,0.1-1.2,0.2c-0.4,0-0.9,0.1-1.3,0.1c-1.1,0-2.1-0.2-2.9-0.5c-0.8-0.3-1.5-0.8-2.1-1.4c-0.5-0.6-0.9-1.3-1.2-2.1    C159.5,29.2,159.4,28.3,159.4,27.4z M168,26c0-0.4-0.1-0.8-0.2-1.2c-0.1-0.4-0.3-0.7-0.5-1c-0.2-0.3-0.5-0.5-0.8-0.6    c-0.3-0.2-0.7-0.2-1.1-0.2c-0.5,0-0.9,0.1-1.2,0.3c-0.3,0.2-0.6,0.4-0.9,0.7c-0.2,0.3-0.4,0.6-0.6,1c-0.1,0.4-0.2,0.7-0.3,1.1H168    z"/>
		<path d="M68,56.7v-17h10.9v2.6h-7.8v4.2h7v2.6h-7v5h8.4v2.6H68z"/>
		<path d="M92.2,56c-0.6,0.1-1.3,0.3-2.2,0.5c-0.9,0.2-1.9,0.2-3,0.2c-1,0-1.9-0.1-2.6-0.4c-0.7-0.3-1.3-0.7-1.7-1.2    c-0.4-0.5-0.7-1.1-0.9-1.9c-0.2-0.7-0.3-1.5-0.3-2.4v-7.2h3v6.7c0,1.4,0.2,2.4,0.6,2.9c0.4,0.6,1.1,0.9,2.1,0.9c0.4,0,0.7,0,1.1,0    c0.4,0,0.7-0.1,0.9-0.1V43.6h3V56z"/>
		<path d="M103.2,46.5c-0.2-0.1-0.6-0.2-1-0.3c-0.4-0.1-0.9-0.1-1.5-0.1c-0.3,0-0.7,0-1,0.1c-0.4,0.1-0.6,0.1-0.8,0.2v10.3h-3V44.5    c0.6-0.2,1.3-0.4,2.1-0.6c0.9-0.2,1.8-0.3,2.9-0.3c0.2,0,0.4,0,0.7,0c0.3,0,0.5,0.1,0.8,0.1c0.3,0,0.5,0.1,0.8,0.1    c0.2,0.1,0.4,0.1,0.6,0.2L103.2,46.5z"/>
		<path d="M117.2,49.9c0,1-0.1,1.9-0.4,2.8c-0.3,0.8-0.7,1.5-1.3,2.1c-0.5,0.6-1.2,1-2,1.4c-0.8,0.3-1.6,0.5-2.5,0.5    c-0.9,0-1.8-0.2-2.5-0.5c-0.8-0.3-1.4-0.8-1.9-1.4c-0.5-0.6-1-1.3-1.3-2.1c-0.3-0.8-0.5-1.8-0.5-2.8s0.2-1.9,0.5-2.8    c0.3-0.8,0.7-1.5,1.3-2.1c0.5-0.6,1.2-1,2-1.4c0.8-0.3,1.6-0.5,2.5-0.5c0.9,0,1.7,0.2,2.5,0.5c0.8,0.3,1.4,0.8,2,1.4    c0.5,0.6,1,1.3,1.3,2.1C117.1,48,117.2,48.9,117.2,49.9z M114.2,49.9c0-1.3-0.3-2.3-0.8-3c-0.5-0.7-1.3-1.1-2.3-1.1    c-1,0-1.7,0.4-2.3,1.1c-0.5,0.7-0.8,1.8-0.8,3c0,1.3,0.3,2.3,0.8,3.1c0.5,0.8,1.3,1.1,2.3,1.1c1,0,1.7-0.4,2.3-1.1    C113.9,52.3,114.2,51.2,114.2,49.9z"/>
		<path d="M131.7,50.3c0,1-0.1,1.9-0.4,2.7c-0.3,0.8-0.6,1.5-1.1,2.1c-0.5,0.6-1.1,1-1.8,1.4c-0.7,0.3-1.5,0.5-2.4,0.5    c-0.6,0-1.2-0.1-1.7-0.2c-0.5-0.1-0.9-0.3-1.3-0.5v5h-3v-17c0.6-0.2,1.3-0.3,2.2-0.5c0.9-0.1,1.8-0.2,2.8-0.2c1,0,1.9,0.2,2.7,0.5    c0.8,0.3,1.5,0.8,2,1.3c0.6,0.6,1,1.3,1.3,2.1C131.6,48.3,131.7,49.3,131.7,50.3z M128.7,50.3c0-1.3-0.3-2.4-0.9-3.1    c-0.6-0.7-1.6-1.1-2.9-1.1c-0.3,0-0.6,0-0.9,0c-0.3,0-0.6,0.1-0.9,0.2v7.3c0.3,0.2,0.6,0.3,1,0.5c0.4,0.2,0.9,0.2,1.4,0.2    c1.1,0,1.9-0.4,2.4-1.1C128.4,52.6,128.7,51.6,128.7,50.3z"/>
		<path d="M133.9,50c0-1.1,0.2-2.1,0.5-3c0.3-0.9,0.8-1.6,1.3-2.1c0.6-0.6,1.2-1,1.9-1.3c0.7-0.3,1.5-0.4,2.2-0.4    c1.8,0,3.1,0.5,4.1,1.6c1,1.1,1.5,2.7,1.5,4.9c0,0.2,0,0.3,0,0.6c0,0.2,0,0.4,0,0.6H137c0.1,1,0.4,1.8,1.1,2.4    c0.6,0.6,1.6,0.8,2.8,0.8c0.7,0,1.4-0.1,2-0.2c0.6-0.1,1.1-0.3,1.4-0.4l0.4,2.4c-0.2,0.1-0.4,0.2-0.7,0.3c-0.3,0.1-0.6,0.2-1,0.2    c-0.4,0.1-0.8,0.1-1.2,0.2c-0.4,0-0.9,0.1-1.3,0.1c-1.1,0-2.1-0.2-2.9-0.5c-0.8-0.3-1.5-0.8-2.1-1.4c-0.5-0.6-0.9-1.3-1.2-2.1    C134,51.9,133.9,51,133.9,50z M142.5,48.7c0-0.4-0.1-0.8-0.2-1.2c-0.1-0.4-0.3-0.7-0.5-1c-0.2-0.3-0.5-0.5-0.8-0.6    c-0.3-0.2-0.7-0.2-1.1-0.2c-0.5,0-0.9,0.1-1.2,0.3c-0.3,0.2-0.6,0.4-0.9,0.7c-0.2,0.3-0.4,0.6-0.6,1c-0.1,0.4-0.2,0.7-0.3,1.1    H142.5z"/>
		<path d="M146.8,61.3c-0.2,0-0.5,0-0.9-0.1c-0.4,0-0.7-0.1-1-0.2l0.4-2.4c0.4,0.1,0.8,0.2,1.3,0.2c0.7,0,1.2-0.2,1.4-0.6    c0.3-0.4,0.4-1,0.4-1.8V43.9h3v12.5c0,1.7-0.4,2.9-1.2,3.7C149.5,60.9,148.3,61.3,146.8,61.3z M151.8,40.1c0,0.6-0.2,1-0.5,1.3    c-0.4,0.3-0.8,0.5-1.3,0.5c-0.5,0-0.9-0.2-1.3-0.5c-0.4-0.3-0.5-0.8-0.5-1.3c0-0.6,0.2-1,0.5-1.4c0.4-0.3,0.8-0.5,1.3-0.5    c0.5,0,0.9,0.2,1.3,0.5C151.6,39.1,151.8,39.5,151.8,40.1z"/>
		<path d="M158.3,54.3c0.8,0,1.4-0.1,1.7-0.3c0.4-0.2,0.5-0.5,0.5-1c0-0.4-0.2-0.8-0.6-1.1c-0.4-0.3-1-0.6-1.9-0.9    c-0.5-0.2-1-0.4-1.5-0.6c-0.5-0.2-0.8-0.5-1.2-0.8c-0.3-0.3-0.6-0.7-0.8-1.1c-0.2-0.4-0.3-0.9-0.3-1.5c0-1.2,0.4-2.1,1.3-2.8    c0.9-0.7,2-1,3.5-1c0.8,0,1.5,0.1,2.2,0.2c0.7,0.1,1.2,0.3,1.5,0.4l-0.5,2.4c-0.3-0.1-0.7-0.3-1.3-0.4c-0.5-0.1-1.1-0.2-1.8-0.2    c-0.6,0-1.1,0.1-1.5,0.3c-0.4,0.2-0.6,0.5-0.6,0.9c0,0.2,0,0.4,0.1,0.6c0.1,0.2,0.2,0.3,0.4,0.5c0.2,0.1,0.4,0.3,0.7,0.4    c0.3,0.1,0.7,0.3,1.1,0.4c0.7,0.3,1.3,0.5,1.8,0.8c0.5,0.3,0.9,0.5,1.2,0.9c0.3,0.3,0.6,0.7,0.7,1.1c0.1,0.4,0.2,0.9,0.2,1.5    c0,1.2-0.5,2.2-1.4,2.8c-0.9,0.6-2.2,0.9-3.9,0.9c-1.1,0-2-0.1-2.7-0.3c-0.7-0.2-1.2-0.3-1.4-0.5l0.5-2.5c0.4,0.2,1,0.4,1.6,0.5    C156.8,54.2,157.5,54.3,158.3,54.3z"/>
		<path d="M169.1,48.9c0.4-0.4,0.8-0.8,1.2-1.3c0.4-0.4,0.8-0.9,1.3-1.4c0.4-0.4,0.8-0.9,1.2-1.3c0.4-0.4,0.7-0.8,0.9-1.1h3.5    c-0.8,0.9-1.7,1.9-2.6,2.8c-0.9,1-1.8,1.9-2.7,2.9c0.5,0.4,1,0.9,1.5,1.5c0.5,0.6,1.1,1.2,1.6,1.9c0.5,0.7,1,1.3,1.4,2    c0.4,0.7,0.8,1.3,1.1,1.8h-3.4c-0.3-0.5-0.6-1-1-1.6c-0.4-0.6-0.8-1.1-1.2-1.6c-0.4-0.5-0.9-1-1.3-1.5c-0.5-0.5-0.9-0.9-1.4-1.2    v5.9h-3V40.2l3-0.5V48.9z"/>
		<path d="M182.9,40.1c0,0.6-0.2,1-0.5,1.3c-0.4,0.3-0.8,0.5-1.3,0.5c-0.5,0-0.9-0.2-1.3-0.5c-0.4-0.3-0.5-0.8-0.5-1.3    c0-0.6,0.2-1,0.5-1.4c0.4-0.3,0.8-0.5,1.3-0.5c0.5,0,0.9,0.2,1.3,0.5C182.7,39.1,182.9,39.5,182.9,40.1z M182.5,56.7h-3V43.9h3    V56.7z"/>
		<path d="M185.5,50c0-1.1,0.2-2.1,0.5-3c0.3-0.9,0.8-1.6,1.3-2.1c0.6-0.6,1.2-1,1.9-1.3c0.7-0.3,1.5-0.4,2.2-0.4    c1.8,0,3.1,0.5,4.1,1.6c1,1.1,1.5,2.7,1.5,4.9c0,0.2,0,0.3,0,0.6c0,0.2,0,0.4,0,0.6h-8.5c0.1,1,0.4,1.8,1.1,2.4    c0.6,0.6,1.6,0.8,2.8,0.8c0.7,0,1.4-0.1,2-0.2c0.6-0.1,1.1-0.3,1.4-0.4l0.4,2.4c-0.2,0.1-0.4,0.2-0.7,0.3c-0.3,0.1-0.6,0.2-1,0.2    c-0.4,0.1-0.8,0.1-1.2,0.2c-0.4,0-0.9,0.1-1.3,0.1c-1.1,0-2.1-0.2-2.9-0.5c-0.8-0.3-1.5-0.8-2.1-1.4c-0.5-0.6-0.9-1.3-1.2-2.1    C185.6,51.9,185.5,51,185.5,50z M194.1,48.7c0-0.4-0.1-0.8-0.2-1.2c-0.1-0.4-0.3-0.7-0.5-1c-0.2-0.3-0.5-0.5-0.8-0.6    c-0.3-0.2-0.7-0.2-1.1-0.2c-0.5,0-0.9,0.1-1.2,0.3c-0.3,0.2-0.6,0.4-0.9,0.7c-0.2,0.3-0.4,0.6-0.6,1c-0.1,0.4-0.2,0.7-0.3,1.1    H194.1z"/>
	</g>
	<g>
		<path d="M74.2,71.8c-0.5,1.4-0.9,2.8-1.4,4c-0.5,1.2-0.9,2.4-1.4,3.6h-1.6c-0.6-1.7-1.1-3.4-1.5-5.2c-0.4-1.8-0.8-3.8-1.2-6h1.7    c0.2,0.8,0.3,1.7,0.5,2.5c0.2,0.8,0.3,1.7,0.5,2.5c0.2,0.8,0.3,1.6,0.5,2.3c0.2,0.7,0.4,1.4,0.5,2c0.4-1.1,0.9-2.4,1.4-3.7    c0.5-1.4,0.9-2.8,1.4-4.2h1.4c0.4,1.4,0.9,2.8,1.4,4.2c0.5,1.4,1,2.6,1.4,3.7c0.2-0.6,0.3-1.3,0.5-2c0.2-0.7,0.3-1.5,0.5-2.3    c0.2-0.8,0.3-1.6,0.5-2.5c0.2-0.8,0.3-1.7,0.5-2.5h1.6c-0.4,2.2-0.8,4.2-1.2,6c-0.4,1.8-0.9,3.6-1.5,5.2h-1.6    c-0.5-1.2-0.9-2.4-1.4-3.6C75.1,74.6,74.6,73.2,74.2,71.8z"/>
		<path d="M83.7,69.4c-0.3,0-0.5-0.1-0.7-0.3c-0.2-0.2-0.3-0.4-0.3-0.7c0-0.3,0.1-0.5,0.3-0.7c0.2-0.2,0.4-0.3,0.7-0.3    c0.3,0,0.5,0.1,0.7,0.3c0.2,0.2,0.3,0.4,0.3,0.7c0,0.3-0.1,0.5-0.3,0.7C84.2,69.3,83.9,69.4,83.7,69.4z M84.4,79.4h-1.5V71h1.5    V79.4z"/>
		<path d="M86.5,75c0-0.7,0.1-1.4,0.3-2c0.2-0.6,0.5-1,0.9-1.4c0.4-0.4,0.8-0.6,1.2-0.8c0.5-0.2,0.9-0.3,1.4-0.3    c1.1,0,2,0.4,2.6,1.1c0.6,0.7,0.9,1.8,0.9,3.2c0,0.1,0,0.1,0,0.3s0,0.2,0,0.3H88c0.1,0.9,0.3,1.5,0.8,2c0.4,0.5,1.1,0.7,2.1,0.7    c0.5,0,1,0,1.3-0.1c0.4-0.1,0.6-0.2,0.8-0.3l0.2,1.3c-0.2,0.1-0.5,0.2-1,0.3c-0.5,0.1-1,0.2-1.6,0.2c-0.7,0-1.4-0.1-1.9-0.3    c-0.5-0.2-1-0.5-1.3-0.9c-0.3-0.4-0.6-0.9-0.8-1.4C86.5,76.2,86.5,75.6,86.5,75z M92.2,74.2c0-0.7-0.2-1.2-0.5-1.7    c-0.4-0.4-0.8-0.7-1.4-0.7c-0.3,0-0.7,0.1-0.9,0.2c-0.3,0.1-0.5,0.3-0.7,0.5c-0.2,0.2-0.3,0.5-0.4,0.7c-0.1,0.3-0.2,0.6-0.2,0.9    H92.2z"/>
		<path d="M101.4,66.9l1.5-0.3v12.3c-0.3,0.1-0.8,0.2-1.3,0.3c-0.5,0.1-1.2,0.1-1.9,0.1c-0.6,0-1.2-0.1-1.7-0.3    c-0.5-0.2-1-0.5-1.3-0.9c-0.4-0.4-0.7-0.8-0.9-1.4c-0.2-0.5-0.3-1.2-0.3-1.8c0-0.6,0.1-1.2,0.3-1.8c0.2-0.5,0.4-1,0.7-1.4    c0.3-0.4,0.7-0.7,1.2-0.9c0.5-0.2,1-0.3,1.6-0.3c0.5,0,0.9,0.1,1.3,0.2c0.4,0.1,0.7,0.3,0.8,0.4V66.9z M101.4,72.5    c-0.2-0.2-0.4-0.3-0.8-0.4c-0.3-0.1-0.7-0.2-1.1-0.2c-0.4,0-0.8,0.1-1.1,0.2c-0.3,0.2-0.6,0.4-0.8,0.6c-0.2,0.3-0.3,0.6-0.4,1    C97.1,74.1,97,74.5,97,75c0,1,0.2,1.7,0.7,2.3c0.5,0.5,1.1,0.8,1.9,0.8c0.4,0,0.8,0,1-0.1c0.3,0,0.5-0.1,0.6-0.1V72.5z"/>
		<path d="M111,72.1c-0.2,0.2-0.5,0.6-0.9,1.1c-0.4,0.5-0.8,1-1.2,1.5c-0.4,0.6-0.9,1.1-1.3,1.7c-0.4,0.6-0.8,1.2-1.1,1.7h4.6v1.3    h-6.4v-1c0.3-0.5,0.6-1,1-1.6c0.4-0.6,0.8-1.1,1.2-1.7c0.4-0.6,0.8-1.1,1.2-1.6c0.4-0.5,0.7-0.9,1-1.3h-4.2V71h6.1V72.1z"/>
		<path d="M115.6,70.6c0.6,0,1.1,0.1,1.5,0.2c0.4,0.2,0.8,0.4,1,0.7s0.4,0.6,0.5,1c0.1,0.4,0.2,0.8,0.2,1.3v5.3    c-0.1,0-0.3,0.1-0.5,0.1c-0.2,0-0.5,0.1-0.8,0.1c-0.3,0-0.6,0.1-0.9,0.1c-0.3,0-0.7,0-1,0c-0.5,0-0.9,0-1.3-0.1    c-0.4-0.1-0.7-0.3-1-0.5c-0.3-0.2-0.5-0.5-0.7-0.8c-0.2-0.3-0.2-0.8-0.2-1.2c0-0.5,0.1-0.9,0.3-1.2c0.2-0.3,0.4-0.6,0.8-0.8    c0.3-0.2,0.7-0.4,1.1-0.5c0.4-0.1,0.9-0.1,1.4-0.1c0.2,0,0.3,0,0.5,0c0.2,0,0.3,0,0.5,0.1c0.1,0,0.3,0.1,0.4,0.1    c0.1,0,0.2,0,0.2,0v-0.4c0-0.2,0-0.5-0.1-0.7c-0.1-0.2-0.2-0.5-0.3-0.6c-0.1-0.2-0.3-0.3-0.6-0.5c-0.2-0.1-0.6-0.2-0.9-0.2    c-0.5,0-0.9,0-1.3,0.1c-0.4,0.1-0.7,0.1-0.8,0.2l-0.2-1.2c0.2-0.1,0.5-0.2,1-0.3C114.6,70.6,115.1,70.6,115.6,70.6z M115.8,78.1    c0.4,0,0.7,0,0.9,0c0.3,0,0.5,0,0.7-0.1v-2.5c-0.1-0.1-0.3-0.1-0.5-0.1c-0.2,0-0.5-0.1-0.9-0.1c-0.2,0-0.5,0-0.7,0    c-0.3,0-0.5,0.1-0.7,0.2c-0.2,0.1-0.4,0.2-0.5,0.4s-0.2,0.4-0.2,0.7c0,0.5,0.2,0.9,0.5,1.1C114.7,78,115.2,78.1,115.8,78.1z"/>
		<path d="M125.1,79.4V68.2h6.9v1.3h-5.3v3.3h4.7v1.3h-4.7V78h5.7v1.3H125.1z"/>
		<path d="M139.3,66.9l1.5-0.3v12.3c-0.3,0.1-0.8,0.2-1.3,0.3c-0.5,0.1-1.2,0.1-1.9,0.1c-0.6,0-1.2-0.1-1.8-0.3    c-0.5-0.2-1-0.5-1.3-0.9c-0.4-0.4-0.7-0.8-0.9-1.4c-0.2-0.5-0.3-1.2-0.3-1.8c0-0.6,0.1-1.2,0.3-1.8c0.2-0.5,0.4-1,0.7-1.4    c0.3-0.4,0.7-0.7,1.2-0.9c0.5-0.2,1-0.3,1.6-0.3c0.5,0,0.9,0.1,1.3,0.2c0.4,0.1,0.7,0.3,0.8,0.4V66.9z M139.3,72.5    c-0.2-0.2-0.4-0.3-0.8-0.4c-0.3-0.1-0.7-0.2-1.1-0.2c-0.4,0-0.8,0.1-1.1,0.2c-0.3,0.2-0.6,0.4-0.8,0.6c-0.2,0.3-0.3,0.6-0.4,1    c-0.1,0.4-0.1,0.8-0.1,1.2c0,1,0.2,1.7,0.7,2.3c0.5,0.5,1.1,0.8,1.9,0.8c0.4,0,0.8,0,1-0.1c0.3,0,0.5-0.1,0.6-0.1V72.5z"/>
		<path d="M150,79c-0.3,0.1-0.8,0.2-1.4,0.3c-0.6,0.1-1.2,0.1-2,0.1c-0.6,0-1.2-0.1-1.6-0.3c-0.4-0.2-0.8-0.5-1.1-0.8    c-0.3-0.3-0.5-0.8-0.6-1.2c-0.1-0.5-0.2-1-0.2-1.6v-4.7h1.5v4.4c0,1,0.2,1.8,0.5,2.2c0.3,0.4,0.9,0.7,1.6,0.7c0.2,0,0.3,0,0.5,0    c0.2,0,0.3,0,0.5,0c0.2,0,0.3,0,0.4,0c0.1,0,0.2,0,0.3-0.1v-7.1h1.5V79z"/>
		<path d="M155.6,74.8c0.3,0.2,0.7,0.6,1,0.9c0.4,0.4,0.7,0.8,1.1,1.2c0.4,0.4,0.7,0.9,1,1.3c0.3,0.4,0.6,0.8,0.8,1.2h-1.8    c-0.2-0.4-0.5-0.8-0.8-1.2c-0.3-0.4-0.6-0.8-0.9-1.1c-0.3-0.4-0.7-0.7-1-1c-0.3-0.3-0.7-0.6-1-0.8v4h-1.5V67.1l1.5-0.3v7.7    c0.3-0.3,0.5-0.5,0.9-0.9c0.3-0.3,0.6-0.6,0.9-1c0.3-0.3,0.6-0.6,0.9-0.9c0.3-0.3,0.5-0.6,0.7-0.8h1.8c-0.2,0.3-0.5,0.6-0.8,0.9    c-0.3,0.3-0.6,0.7-0.9,1c-0.3,0.3-0.6,0.7-0.9,1C156.2,74.1,155.9,74.5,155.6,74.8z"/>
		<path d="M163.6,70.6c0.6,0,1.1,0.1,1.5,0.2c0.4,0.2,0.8,0.4,1,0.7s0.4,0.6,0.5,1c0.1,0.4,0.2,0.8,0.2,1.3v5.3    c-0.1,0-0.3,0.1-0.5,0.1c-0.2,0-0.5,0.1-0.8,0.1c-0.3,0-0.6,0.1-0.9,0.1c-0.3,0-0.7,0-1,0c-0.5,0-0.9,0-1.3-0.1    c-0.4-0.1-0.7-0.3-1-0.5c-0.3-0.2-0.5-0.5-0.7-0.8c-0.2-0.3-0.2-0.8-0.2-1.2c0-0.5,0.1-0.9,0.3-1.2c0.2-0.3,0.4-0.6,0.8-0.8    c0.3-0.2,0.7-0.4,1.1-0.5c0.4-0.1,0.9-0.1,1.4-0.1c0.2,0,0.3,0,0.5,0c0.2,0,0.3,0,0.5,0.1c0.1,0,0.3,0.1,0.4,0.1    c0.1,0,0.2,0,0.2,0v-0.4c0-0.2,0-0.5-0.1-0.7c-0.1-0.2-0.2-0.5-0.3-0.6c-0.1-0.2-0.3-0.3-0.6-0.5c-0.2-0.1-0.6-0.2-0.9-0.2    c-0.5,0-0.9,0-1.3,0.1c-0.4,0.1-0.7,0.1-0.8,0.2l-0.2-1.2c0.2-0.1,0.5-0.2,1-0.3C162.6,70.6,163.1,70.6,163.6,70.6z M163.8,78.1    c0.4,0,0.7,0,0.9,0c0.3,0,0.5,0,0.7-0.1v-2.5c-0.1-0.1-0.3-0.1-0.5-0.1c-0.2,0-0.5-0.1-0.9-0.1c-0.2,0-0.5,0-0.7,0    c-0.3,0-0.5,0.1-0.7,0.2c-0.2,0.1-0.4,0.2-0.5,0.4s-0.2,0.4-0.2,0.7c0,0.5,0.2,0.9,0.5,1.1C162.7,78,163.2,78.1,163.8,78.1z"/>
		<path d="M172.9,79.4c-0.7,0-1.3-0.1-1.8-0.3c-0.5-0.2-0.9-0.5-1.3-0.9c-0.4-0.4-0.6-0.9-0.8-1.4c-0.2-0.5-0.3-1.1-0.3-1.8    c0-0.6,0.1-1.2,0.3-1.8c0.2-0.5,0.5-1,0.8-1.4c0.3-0.4,0.8-0.7,1.3-0.9c0.5-0.2,1.1-0.3,1.7-0.3c0.4,0,0.8,0,1.1,0.1    c0.4,0.1,0.7,0.2,1.1,0.3l-0.3,1.3c-0.2-0.1-0.5-0.2-0.8-0.3c-0.3-0.1-0.6-0.1-0.9-0.1c-0.8,0-1.5,0.3-1.9,0.8    c-0.4,0.5-0.7,1.3-0.7,2.3c0,0.5,0.1,0.9,0.2,1.2c0.1,0.4,0.3,0.7,0.5,1c0.2,0.3,0.5,0.5,0.9,0.6c0.3,0.1,0.8,0.2,1.3,0.2    c0.4,0,0.8,0,1.1-0.1c0.3-0.1,0.6-0.2,0.8-0.2l0.2,1.3c-0.1,0.1-0.2,0.1-0.4,0.2c-0.2,0-0.3,0.1-0.6,0.1c-0.2,0-0.4,0.1-0.7,0.1    C173.4,79.4,173.2,79.4,172.9,79.4z"/>
		<path d="M175.4,82.4c-0.1,0-0.3,0-0.5,0c-0.2,0-0.4-0.1-0.5-0.1l0.2-1.2c0.1,0,0.2,0.1,0.4,0.1c0.1,0,0.3,0,0.4,0    c0.5,0,0.9-0.2,1.1-0.5c0.2-0.3,0.3-0.8,0.3-1.4V71h1.5v8.3c0,1.1-0.2,1.9-0.7,2.4C177,82.2,176.3,82.4,175.4,82.4z M177.5,69.4    c-0.3,0-0.5-0.1-0.7-0.3c-0.2-0.2-0.3-0.4-0.3-0.7c0-0.3,0.1-0.5,0.3-0.7c0.2-0.2,0.4-0.3,0.7-0.3c0.3,0,0.5,0.1,0.7,0.3    c0.2,0.2,0.3,0.4,0.3,0.7c0,0.3-0.1,0.5-0.3,0.7C178,69.3,177.7,69.4,177.5,69.4z"/>
		<path d="M183.5,70.6c0.6,0,1.1,0.1,1.5,0.2c0.4,0.2,0.8,0.4,1,0.7c0.3,0.3,0.4,0.6,0.5,1c0.1,0.4,0.2,0.8,0.2,1.3v5.3    c-0.1,0-0.3,0.1-0.5,0.1c-0.2,0-0.5,0.1-0.8,0.1c-0.3,0-0.6,0.1-0.9,0.1c-0.3,0-0.7,0-1,0c-0.5,0-0.9,0-1.3-0.1    c-0.4-0.1-0.7-0.3-1-0.5c-0.3-0.2-0.5-0.5-0.7-0.8c-0.2-0.3-0.2-0.8-0.2-1.2c0-0.5,0.1-0.9,0.3-1.2c0.2-0.3,0.4-0.6,0.8-0.8    c0.3-0.2,0.7-0.4,1.1-0.5c0.4-0.1,0.9-0.1,1.4-0.1c0.2,0,0.3,0,0.5,0c0.2,0,0.3,0,0.5,0.1c0.1,0,0.3,0.1,0.4,0.1    c0.1,0,0.2,0,0.2,0v-0.4c0-0.2,0-0.5-0.1-0.7c-0.1-0.2-0.2-0.5-0.3-0.6c-0.1-0.2-0.3-0.3-0.6-0.5c-0.2-0.1-0.6-0.2-0.9-0.2    c-0.5,0-0.9,0-1.3,0.1c-0.4,0.1-0.7,0.1-0.8,0.2L181,71c0.2-0.1,0.5-0.2,1-0.3C182.4,70.6,182.9,70.6,183.5,70.6z M183.6,78.1    c0.4,0,0.7,0,0.9,0c0.3,0,0.5,0,0.7-0.1v-2.5c-0.1-0.1-0.3-0.1-0.5-0.1c-0.2,0-0.5-0.1-0.9-0.1c-0.2,0-0.5,0-0.7,0    c-0.3,0-0.5,0.1-0.7,0.2c-0.2,0.1-0.4,0.2-0.5,0.4c-0.1,0.2-0.2,0.4-0.2,0.7c0,0.5,0.2,0.9,0.5,1.1C182.5,78,183,78.1,183.6,78.1z    "/>
		<path d="M198.4,74.7c0.2,0.2,0.4,0.5,0.7,0.9c0.3,0.4,0.5,0.7,0.8,1.2c0.3,0.4,0.6,0.9,0.8,1.3c0.3,0.5,0.5,0.9,0.7,1.3h-1.7    c-0.2-0.4-0.5-0.8-0.7-1.2c-0.3-0.4-0.5-0.8-0.8-1.2c-0.3-0.4-0.5-0.7-0.8-1.1c-0.3-0.3-0.5-0.6-0.7-0.9c-0.1,0-0.3,0-0.4,0    c-0.1,0-0.3,0-0.4,0h-1.4v4.4h-1.6V68.3c0.4-0.1,0.9-0.2,1.5-0.2c0.5,0,1-0.1,1.5-0.1c1.6,0,2.8,0.3,3.6,0.9    c0.8,0.6,1.2,1.5,1.2,2.7c0,0.7-0.2,1.4-0.6,1.9C199.7,74,199.1,74.4,198.4,74.7z M196,69.4c-0.7,0-1.2,0-1.5,0v4.2h1.1    c0.5,0,1,0,1.5-0.1c0.4-0.1,0.8-0.2,1.1-0.3c0.3-0.2,0.5-0.4,0.7-0.6c0.2-0.3,0.2-0.6,0.2-1.1c0-0.4-0.1-0.8-0.2-1.1    c-0.2-0.3-0.4-0.5-0.7-0.7c-0.3-0.2-0.6-0.3-1-0.3C196.8,69.5,196.4,69.4,196,69.4z"/>
		<path d="M210.3,75c0,0.7-0.1,1.3-0.3,1.8c-0.2,0.5-0.5,1-0.8,1.4c-0.4,0.4-0.8,0.7-1.3,0.9c-0.5,0.2-1,0.3-1.6,0.3    c-0.6,0-1.1-0.1-1.6-0.3c-0.5-0.2-0.9-0.5-1.3-0.9c-0.4-0.4-0.6-0.9-0.8-1.4c-0.2-0.5-0.3-1.1-0.3-1.8c0-0.7,0.1-1.3,0.3-1.8    c0.2-0.5,0.5-1,0.8-1.4c0.4-0.4,0.8-0.7,1.3-0.9c0.5-0.2,1-0.3,1.6-0.3c0.6,0,1.1,0.1,1.6,0.3c0.5,0.2,0.9,0.5,1.3,0.9    c0.4,0.4,0.6,0.9,0.8,1.4C210.2,73.7,210.3,74.3,210.3,75z M208.8,75c0-1-0.2-1.7-0.6-2.3c-0.4-0.6-1-0.8-1.7-0.8    c-0.7,0-1.3,0.3-1.7,0.8c-0.4,0.6-0.6,1.3-0.6,2.3c0,1,0.2,1.7,0.6,2.3c0.4,0.6,1,0.8,1.7,0.8c0.7,0,1.3-0.3,1.7-0.8    C208.5,76.7,208.8,75.9,208.8,75z"/>
		<path d="M217.6,72.1c-0.2,0.2-0.5,0.6-0.9,1.1c-0.4,0.5-0.8,1-1.2,1.5c-0.4,0.6-0.9,1.1-1.3,1.7c-0.4,0.6-0.8,1.2-1.1,1.7h4.6v1.3    h-6.4v-1c0.3-0.5,0.6-1,1-1.6c0.4-0.6,0.8-1.1,1.2-1.7c0.4-0.6,0.8-1.1,1.2-1.6c0.4-0.5,0.7-0.9,1-1.3h-4.2V71h6.1V72.1z"/>
		<path d="M226.5,79.4c-0.3-0.8-0.6-1.7-1-2.7c-0.3-1-0.7-2-0.9-3.1c-0.3,1.1-0.6,2.1-0.9,3.1c-0.3,1-0.7,1.9-1,2.7h-1.3    c-0.5-1.1-1-2.4-1.5-3.8c-0.5-1.4-0.9-3-1.3-4.6h1.6c0.1,0.5,0.2,1.1,0.4,1.7c0.2,0.6,0.3,1.2,0.5,1.8c0.2,0.6,0.3,1.2,0.5,1.7    c0.2,0.6,0.4,1,0.5,1.4c0.2-0.5,0.4-1,0.5-1.6c0.2-0.6,0.3-1.1,0.5-1.7c0.2-0.6,0.3-1.1,0.5-1.7c0.1-0.6,0.3-1.1,0.4-1.6h1.2    c0.1,0.5,0.2,1,0.4,1.6c0.1,0.6,0.3,1.1,0.5,1.7c0.2,0.6,0.3,1.2,0.5,1.7c0.2,0.6,0.4,1.1,0.5,1.6c0.2-0.4,0.3-0.9,0.5-1.4    c0.2-0.6,0.4-1.1,0.5-1.7c0.2-0.6,0.3-1.2,0.5-1.8c0.2-0.6,0.3-1.1,0.4-1.7h1.6c-0.4,1.7-0.9,3.2-1.3,4.6c-0.5,1.4-1,2.7-1.5,3.8    H226.5z"/>
		<path d="M239.3,75c0,0.7-0.1,1.3-0.3,1.8c-0.2,0.5-0.5,1-0.8,1.4c-0.4,0.4-0.8,0.7-1.3,0.9c-0.5,0.2-1,0.3-1.6,0.3    c-0.6,0-1.1-0.1-1.6-0.3c-0.5-0.2-0.9-0.5-1.3-0.9c-0.4-0.4-0.6-0.9-0.8-1.4c-0.2-0.5-0.3-1.1-0.3-1.8c0-0.7,0.1-1.3,0.3-1.8    c0.2-0.5,0.5-1,0.8-1.4c0.4-0.4,0.8-0.7,1.3-0.9c0.5-0.2,1-0.3,1.6-0.3c0.6,0,1.1,0.1,1.6,0.3c0.5,0.2,0.9,0.5,1.3,0.9    c0.4,0.4,0.6,0.9,0.8,1.4C239.2,73.7,239.3,74.3,239.3,75z M237.8,75c0-1-0.2-1.7-0.6-2.3c-0.4-0.6-1-0.8-1.7-0.8    c-0.7,0-1.3,0.3-1.7,0.8c-0.4,0.6-0.6,1.3-0.6,2.3c0,1,0.2,1.7,0.6,2.3c0.4,0.6,1,0.8,1.7,0.8c0.7,0,1.3-0.3,1.7-0.8    C237.6,76.7,237.8,75.9,237.8,75z M237.3,67.8l-2.3,2.2l-0.8-0.7l2.1-2.5L237.3,67.8z"/>
		<path d="M240,82.4c-0.1,0-0.3,0-0.5,0c-0.2,0-0.4-0.1-0.5-0.1l0.2-1.2c0.1,0,0.2,0.1,0.4,0.1c0.1,0,0.3,0,0.4,0    c0.5,0,0.9-0.2,1.1-0.5c0.2-0.3,0.3-0.8,0.3-1.4V71h1.5v8.3c0,1.1-0.2,1.9-0.7,2.4C241.7,82.2,240.9,82.4,240,82.4z M242.1,69.4    c-0.3,0-0.5-0.1-0.7-0.3c-0.2-0.2-0.3-0.4-0.3-0.7c0-0.3,0.1-0.5,0.3-0.7c0.2-0.2,0.4-0.3,0.7-0.3s0.5,0.1,0.7,0.3    c0.2,0.2,0.3,0.4,0.3,0.7c0,0.3-0.1,0.5-0.3,0.7C242.6,69.3,242.4,69.4,242.1,69.4z"/>
	</g>
</g>
</svg>