<?xml version="1.0" encoding="utf-8"?>
<!-- Generator: Adobe Illustrator 28.0.0, SVG Export Plug-In . SVG Version: 6.00 Build 0)  -->
<svg version="1.1" id="Warstwa_1" xmlns="http://www.w3.org/2000/svg" xmlns:xlink="http://www.w3.org/1999/xlink" x="0px" y="0px"
	 viewBox="0 0 340.2 96.4" style="enable-background:new 0 0 340.2 96.4;" xml:space="preserve">
<style type="text/css">
	.st0{fill:#164193;}
	.st1{fill:#FFEC00;}
	.st2{fill:#E20613;}
	.st3{fill:#FFFFFF;}
	.st4{fill:#1D1D1B;}
</style>
<g>
	<g id="XMLID_1668_">
		<polygon id="XMLID_1672_" class="st0" points="94.3,93.6 49,85.1 49,17.1 94.3,2.9 		"/>
		<path id="XMLID_1671_" class="st1" d="M49,68.7V51.1c2.3,0.6,4.8,0.9,6.5-0.1c3.7-2.2,9.2-8.9,9.2-8.9s-2.9,7.2-1.8,9.9
			c1.2,2.8,8.1,3,8.1,3s-7.8,4.8-11.5,7.9c-3.8,3.2-6.4,15.1-6.4,15.1S51.3,70.3,49,68.7"/>
		<path id="XMLID_1670_" class="st2" d="M94.3,37.6c-1.6,1-3.1,1.8-4.3,2c-3.6,0.7-7.5-3.5-7.5-3.5s0.9,6.1-1.4,9.9
			c-2.4,4-10.2,9-10.2,9s8.6-1.7,10.2,1c1.8,2.9,2,12.8,2,12.8s4.4-11.9,8.3-13.6c0.8-0.3,1.7-0.6,2.8-0.9V37.6z"/>
		<path id="XMLID_1669_" class="st3" d="M64.7,42.1c0,0,4.4-6.9,4.1-9.3c-0.3-2.3-4.8-3.2-4.8-3.2s6-1.5,8.5-3.8
			c2.5-2.3,4.7-6.9,4.7-6.9s0.6,3.9,2.8,4.4c2.3,0.6,8.4-1.9,8.4-1.9s-4.8,4.6-6.7,7.1c-2,2.6,0.8,7.6,0.8,7.6s-5.1-1.8-8-1.3
			C71.7,35.4,64.7,42.1,64.7,42.1"/>
	</g>
	<g>
		<path class="st4" d="M117,36.9v-17h10.8v2.6h-7.7v4.3h6.8v2.6h-6.8v7.4H117z"/>
		<path class="st4" d="M140.2,36.2c-0.6,0.1-1.3,0.3-2.2,0.5c-0.9,0.2-1.9,0.2-3,0.2c-1,0-1.9-0.1-2.6-0.4c-0.7-0.3-1.3-0.7-1.7-1.2
			c-0.4-0.5-0.7-1.1-0.9-1.9c-0.2-0.7-0.3-1.5-0.3-2.4v-7.2h3v6.7c0,1.4,0.2,2.4,0.6,2.9c0.4,0.6,1.1,0.9,2.1,0.9c0.4,0,0.7,0,1.1,0
			c0.4,0,0.7-0.1,0.9-0.1V23.8h3V36.2z"/>
		<path class="st4" d="M143.8,24.5c0.6-0.2,1.3-0.3,2.2-0.5c0.9-0.1,1.9-0.2,3-0.2c1,0,1.9,0.1,2.6,0.4c0.7,0.3,1.3,0.7,1.7,1.2
			c0.4,0.5,0.7,1.1,0.9,1.9c0.2,0.7,0.3,1.5,0.3,2.4v7.2h-3v-6.8c0-0.7,0-1.3-0.1-1.8c-0.1-0.5-0.2-0.9-0.4-1.2
			c-0.2-0.3-0.5-0.5-0.8-0.7c-0.4-0.1-0.8-0.2-1.3-0.2c-0.4,0-0.8,0-1.2,0.1c-0.4,0-0.7,0.1-0.9,0.1v10.4h-3V24.5z"/>
		<path class="st4" d="M168.9,36.2c-0.6,0.2-1.3,0.3-2.2,0.5c-0.9,0.1-1.8,0.2-2.8,0.2c-1,0-1.9-0.2-2.7-0.5c-0.8-0.3-1.5-0.8-2-1.3
			c-0.6-0.6-1-1.3-1.3-2.1c-0.3-0.8-0.5-1.8-0.5-2.8c0-1,0.1-1.9,0.4-2.8c0.3-0.8,0.6-1.5,1.1-2.1c0.5-0.6,1.1-1,1.8-1.4
			c0.7-0.3,1.5-0.5,2.4-0.5c0.6,0,1.2,0.1,1.6,0.2c0.5,0.1,0.9,0.3,1.2,0.5v-3.8l3-0.5V36.2z M160.4,30.2c0,1.3,0.3,2.3,0.9,3.1
			c0.6,0.7,1.5,1.1,2.6,1.1c0.5,0,0.9,0,1.2-0.1c0.3,0,0.6-0.1,0.8-0.1v-7.4c-0.3-0.2-0.6-0.3-1-0.5c-0.4-0.2-0.9-0.2-1.4-0.2
			c-1.1,0-1.9,0.4-2.4,1.1C160.6,27.9,160.4,28.9,160.4,30.2z"/>
		<path class="st4" d="M183.1,36.2c-0.6,0.1-1.3,0.3-2.2,0.5c-0.9,0.2-1.9,0.2-3,0.2c-1,0-1.9-0.1-2.6-0.4c-0.7-0.3-1.3-0.7-1.7-1.2
			c-0.4-0.5-0.7-1.1-0.9-1.9c-0.2-0.7-0.3-1.5-0.3-2.4v-7.2h3v6.7c0,1.4,0.2,2.4,0.6,2.9c0.4,0.6,1.1,0.9,2.1,0.9c0.4,0,0.7,0,1.1,0
			c0.4,0,0.7-0.1,0.9-0.1V23.8h3V36.2z"/>
		<path class="st4" d="M189.9,34.5c0.8,0,1.4-0.1,1.7-0.3c0.4-0.2,0.5-0.5,0.5-1c0-0.4-0.2-0.8-0.6-1.1c-0.4-0.3-1-0.6-1.9-0.9
			c-0.5-0.2-1-0.4-1.5-0.6c-0.5-0.2-0.8-0.5-1.2-0.8c-0.3-0.3-0.6-0.7-0.8-1.1c-0.2-0.4-0.3-0.9-0.3-1.5c0-1.2,0.4-2.1,1.3-2.8
			c0.9-0.7,2-1,3.5-1c0.8,0,1.5,0.1,2.2,0.2c0.7,0.1,1.2,0.3,1.5,0.4l-0.5,2.4c-0.3-0.1-0.7-0.3-1.3-0.4c-0.5-0.1-1.1-0.2-1.8-0.2
			c-0.6,0-1.1,0.1-1.5,0.3c-0.4,0.2-0.6,0.5-0.6,0.9c0,0.2,0,0.4,0.1,0.6c0.1,0.2,0.2,0.3,0.4,0.5c0.2,0.1,0.4,0.3,0.7,0.4
			c0.3,0.1,0.7,0.3,1.1,0.4c0.7,0.3,1.3,0.5,1.8,0.8c0.5,0.3,0.9,0.5,1.2,0.9c0.3,0.3,0.6,0.7,0.7,1.1c0.1,0.4,0.2,0.9,0.2,1.5
			c0,1.2-0.5,2.2-1.4,2.8s-2.2,0.9-3.9,0.9c-1.1,0-2-0.1-2.7-0.3c-0.7-0.2-1.2-0.3-1.4-0.5l0.5-2.5c0.4,0.2,1,0.4,1.6,0.5
			C188.4,34.4,189.1,34.5,189.9,34.5z"/>
		<path class="st4" d="M206.8,26.2c-0.3,0.3-0.8,0.8-1.3,1.4c-0.5,0.6-1.1,1.3-1.7,2.1c-0.6,0.8-1.2,1.6-1.8,2.4
			c-0.6,0.8-1.2,1.6-1.7,2.4h6.6v2.5h-10.2v-1.8c0.4-0.7,0.8-1.4,1.3-2.1c0.5-0.8,1.1-1.5,1.7-2.3c0.6-0.8,1.1-1.5,1.7-2.2
			c0.6-0.7,1.1-1.3,1.5-1.8H197v-2.5h9.7V26.2z"/>
		<path class="st4" d="M208.4,30.3c0-1.1,0.2-2.1,0.5-3c0.3-0.9,0.8-1.6,1.3-2.1c0.6-0.6,1.2-1,1.9-1.3c0.7-0.3,1.5-0.4,2.2-0.4
			c1.8,0,3.1,0.5,4.1,1.6c1,1.1,1.5,2.7,1.5,4.9c0,0.2,0,0.3,0,0.6c0,0.2,0,0.4,0,0.6h-8.5c0.1,1,0.4,1.8,1.1,2.4
			c0.6,0.6,1.6,0.8,2.8,0.8c0.7,0,1.4-0.1,2-0.2c0.6-0.1,1.1-0.3,1.4-0.4l0.4,2.4c-0.2,0.1-0.4,0.2-0.7,0.3c-0.3,0.1-0.6,0.2-1,0.2
			c-0.4,0.1-0.8,0.1-1.2,0.2c-0.4,0-0.9,0.1-1.3,0.1c-1.1,0-2.1-0.2-2.9-0.5c-0.8-0.3-1.5-0.8-2.1-1.4c-0.5-0.6-0.9-1.3-1.2-2.1
			C208.5,32.1,208.4,31.2,208.4,30.3z M217,28.9c0-0.4-0.1-0.8-0.2-1.2c-0.1-0.4-0.3-0.7-0.5-1c-0.2-0.3-0.5-0.5-0.8-0.6
			c-0.3-0.2-0.7-0.2-1.1-0.2c-0.5,0-0.9,0.1-1.2,0.3c-0.3,0.2-0.6,0.4-0.9,0.7c-0.2,0.3-0.4,0.6-0.6,1c-0.1,0.4-0.2,0.7-0.3,1.1H217
			z"/>
		<path class="st4" d="M117,59.6v-17h10.9v2.6h-7.8v4.2h7V52h-7v5h8.4v2.6H117z"/>
		<path class="st4" d="M141.2,58.9c-0.6,0.1-1.3,0.3-2.2,0.5c-0.9,0.2-1.9,0.2-3,0.2c-1,0-1.9-0.1-2.6-0.4c-0.7-0.3-1.3-0.7-1.7-1.2
			c-0.4-0.5-0.7-1.1-0.9-1.9c-0.2-0.7-0.3-1.5-0.3-2.4v-7.2h3v6.7c0,1.4,0.2,2.4,0.6,2.9c0.4,0.6,1.1,0.9,2.1,0.9c0.4,0,0.7,0,1.1,0
			c0.4,0,0.7-0.1,0.9-0.1V46.5h3V58.9z"/>
		<path class="st4" d="M152.1,49.4c-0.2-0.1-0.6-0.2-1-0.3c-0.4-0.1-0.9-0.1-1.5-0.1c-0.3,0-0.7,0-1,0.1c-0.4,0.1-0.6,0.1-0.8,0.2
			v10.3h-3V47.4c0.6-0.2,1.3-0.4,2.1-0.6c0.9-0.2,1.8-0.3,2.9-0.3c0.2,0,0.4,0,0.7,0c0.3,0,0.5,0.1,0.8,0.1c0.3,0,0.5,0.1,0.8,0.1
			c0.2,0.1,0.4,0.1,0.6,0.2L152.1,49.4z"/>
		<path class="st4" d="M166.2,52.8c0,1-0.1,1.9-0.4,2.8c-0.3,0.8-0.7,1.5-1.3,2.1c-0.5,0.6-1.2,1-2,1.4c-0.8,0.3-1.6,0.5-2.5,0.5
			c-0.9,0-1.8-0.2-2.5-0.5c-0.8-0.3-1.4-0.8-1.9-1.4c-0.5-0.6-1-1.3-1.3-2.1c-0.3-0.8-0.5-1.8-0.5-2.8c0-1,0.2-1.9,0.5-2.8
			c0.3-0.8,0.7-1.5,1.3-2.1c0.5-0.6,1.2-1,2-1.4c0.8-0.3,1.6-0.5,2.5-0.5c0.9,0,1.7,0.2,2.5,0.5c0.8,0.3,1.4,0.8,2,1.4
			c0.5,0.6,1,1.3,1.3,2.1C166,50.9,166.2,51.8,166.2,52.8z M163.1,52.8c0-1.3-0.3-2.3-0.8-3c-0.5-0.7-1.3-1.1-2.3-1.1
			c-1,0-1.7,0.4-2.3,1.1c-0.5,0.7-0.8,1.8-0.8,3c0,1.3,0.3,2.3,0.8,3.1c0.5,0.8,1.3,1.1,2.3,1.1c1,0,1.7-0.4,2.3-1.1
			C162.9,55.1,163.1,54.1,163.1,52.8z"/>
		<path class="st4" d="M180.7,53.2c0,1-0.1,1.9-0.4,2.7c-0.3,0.8-0.6,1.5-1.1,2.1c-0.5,0.6-1.1,1-1.8,1.4c-0.7,0.3-1.5,0.5-2.4,0.5
			c-0.6,0-1.2-0.1-1.7-0.2c-0.5-0.1-0.9-0.3-1.3-0.5v5h-3v-17c0.6-0.2,1.3-0.3,2.2-0.5c0.9-0.1,1.8-0.2,2.8-0.2c1,0,1.9,0.2,2.7,0.5
			c0.8,0.3,1.5,0.8,2,1.3c0.6,0.6,1,1.3,1.3,2.1C180.5,51.2,180.7,52.1,180.7,53.2z M177.6,53.2c0-1.3-0.3-2.4-0.9-3.1
			c-0.6-0.7-1.6-1.1-2.9-1.1c-0.3,0-0.6,0-0.9,0c-0.3,0-0.6,0.1-0.9,0.2v7.3c0.3,0.2,0.6,0.3,1,0.5c0.4,0.2,0.9,0.2,1.4,0.2
			c1.1,0,1.9-0.4,2.4-1.1C177.4,55.5,177.6,54.5,177.6,53.2z"/>
		<path class="st4" d="M182.9,52.9c0-1.1,0.2-2.1,0.5-3c0.3-0.9,0.8-1.6,1.3-2.1c0.6-0.6,1.2-1,1.9-1.3c0.7-0.3,1.5-0.4,2.2-0.4
			c1.8,0,3.1,0.5,4.1,1.6c1,1.1,1.5,2.7,1.5,4.9c0,0.2,0,0.3,0,0.6c0,0.2,0,0.4,0,0.6h-8.5c0.1,1,0.4,1.8,1.1,2.4
			c0.6,0.6,1.6,0.8,2.8,0.8c0.7,0,1.4-0.1,2-0.2c0.6-0.1,1.1-0.3,1.4-0.4l0.4,2.4c-0.2,0.1-0.4,0.2-0.7,0.3c-0.3,0.1-0.6,0.2-1,0.2
			c-0.4,0.1-0.8,0.1-1.2,0.2c-0.4,0-0.9,0.1-1.3,0.1c-1.1,0-2.1-0.2-2.9-0.5c-0.8-0.3-1.5-0.8-2.1-1.4c-0.5-0.6-0.9-1.3-1.2-2.1
			C183,54.8,182.9,53.9,182.9,52.9z M191.5,51.6c0-0.4-0.1-0.8-0.2-1.2c-0.1-0.4-0.3-0.7-0.5-1c-0.2-0.3-0.5-0.5-0.8-0.6
			c-0.3-0.2-0.7-0.2-1.1-0.2c-0.5,0-0.9,0.1-1.2,0.3c-0.3,0.2-0.6,0.4-0.9,0.7c-0.2,0.3-0.4,0.6-0.6,1c-0.1,0.4-0.2,0.7-0.3,1.1
			H191.5z"/>
		<path class="st4" d="M195.8,64.1c-0.2,0-0.5,0-0.9-0.1c-0.4,0-0.7-0.1-1-0.2l0.4-2.4c0.4,0.1,0.8,0.2,1.3,0.2
			c0.7,0,1.2-0.2,1.4-0.6c0.3-0.4,0.4-1,0.4-1.8V46.7h3v12.5c0,1.7-0.4,2.9-1.2,3.7C198.4,63.7,197.3,64.1,195.8,64.1z M200.7,43
			c0,0.6-0.2,1-0.5,1.3c-0.4,0.3-0.8,0.5-1.3,0.5c-0.5,0-0.9-0.2-1.3-0.5c-0.4-0.3-0.5-0.8-0.5-1.3c0-0.6,0.2-1,0.5-1.4
			c0.4-0.3,0.8-0.5,1.3-0.5c0.5,0,0.9,0.2,1.3,0.5C200.6,42,200.7,42.4,200.7,43z"/>
		<path class="st4" d="M207.3,57.1c0.8,0,1.4-0.1,1.7-0.3c0.4-0.2,0.5-0.5,0.5-1c0-0.4-0.2-0.8-0.6-1.1c-0.4-0.3-1-0.6-1.9-0.9
			c-0.5-0.2-1-0.4-1.5-0.6c-0.5-0.2-0.8-0.5-1.2-0.8c-0.3-0.3-0.6-0.7-0.8-1.1c-0.2-0.4-0.3-0.9-0.3-1.5c0-1.2,0.4-2.1,1.3-2.8
			c0.9-0.7,2-1,3.5-1c0.8,0,1.5,0.1,2.2,0.2c0.7,0.1,1.2,0.3,1.5,0.4l-0.5,2.4c-0.3-0.1-0.7-0.3-1.3-0.4c-0.5-0.1-1.1-0.2-1.8-0.2
			c-0.6,0-1.1,0.1-1.5,0.3c-0.4,0.2-0.6,0.5-0.6,0.9c0,0.2,0,0.4,0.1,0.6c0.1,0.2,0.2,0.3,0.4,0.5c0.2,0.1,0.4,0.3,0.7,0.4
			c0.3,0.1,0.7,0.3,1.1,0.4c0.7,0.3,1.3,0.5,1.8,0.8c0.5,0.3,0.9,0.5,1.2,0.9c0.3,0.3,0.6,0.7,0.7,1.1c0.1,0.4,0.2,0.9,0.2,1.5
			c0,1.2-0.5,2.2-1.4,2.8c-0.9,0.6-2.2,0.9-3.9,0.9c-1.1,0-2-0.1-2.7-0.3c-0.7-0.2-1.2-0.3-1.4-0.5l0.5-2.5c0.4,0.2,1,0.4,1.6,0.5
			C205.8,57.1,206.5,57.1,207.3,57.1z"/>
		<path class="st4" d="M218.1,51.7c0.4-0.4,0.8-0.8,1.2-1.3c0.4-0.4,0.8-0.9,1.3-1.4c0.4-0.4,0.8-0.9,1.2-1.3
			c0.4-0.4,0.7-0.8,0.9-1.1h3.5c-0.8,0.9-1.7,1.9-2.6,2.8c-0.9,1-1.8,1.9-2.7,2.9c0.5,0.4,1,0.9,1.5,1.5c0.5,0.6,1.1,1.2,1.6,1.9
			c0.5,0.7,1,1.3,1.4,2c0.4,0.7,0.8,1.3,1.1,1.8h-3.4c-0.3-0.5-0.6-1-1-1.6c-0.4-0.6-0.8-1.1-1.2-1.6c-0.4-0.5-0.9-1-1.3-1.5
			c-0.5-0.5-0.9-0.9-1.4-1.2v5.9h-3V43.1l3-0.5V51.7z"/>
		<path class="st4" d="M231.8,43c0,0.6-0.2,1-0.5,1.3c-0.4,0.3-0.8,0.5-1.3,0.5c-0.5,0-0.9-0.2-1.3-0.5c-0.4-0.3-0.5-0.8-0.5-1.3
			c0-0.6,0.2-1,0.5-1.4c0.4-0.3,0.8-0.5,1.3-0.5c0.5,0,0.9,0.2,1.3,0.5C231.6,42,231.8,42.4,231.8,43z M231.5,59.6h-3V46.7h3V59.6z"
			/>
		<path class="st4" d="M234.4,52.9c0-1.1,0.2-2.1,0.5-3c0.3-0.9,0.8-1.6,1.3-2.1c0.6-0.6,1.2-1,1.9-1.3c0.7-0.3,1.5-0.4,2.2-0.4
			c1.8,0,3.1,0.5,4.1,1.6c1,1.1,1.5,2.7,1.5,4.9c0,0.2,0,0.3,0,0.6c0,0.2,0,0.4,0,0.6h-8.5c0.1,1,0.4,1.8,1.1,2.4
			c0.6,0.6,1.6,0.8,2.8,0.8c0.7,0,1.4-0.1,2-0.2c0.6-0.1,1.1-0.3,1.4-0.4l0.4,2.4c-0.2,0.1-0.4,0.2-0.7,0.3c-0.3,0.1-0.6,0.2-1,0.2
			c-0.4,0.1-0.8,0.1-1.2,0.2c-0.4,0-0.9,0.1-1.3,0.1c-1.1,0-2.1-0.2-2.9-0.5c-0.8-0.3-1.5-0.8-2.1-1.4c-0.5-0.6-0.9-1.3-1.2-2.1
			C234.6,54.8,234.4,53.9,234.4,52.9z M243,51.6c0-0.4-0.1-0.8-0.2-1.2c-0.1-0.4-0.3-0.7-0.5-1c-0.2-0.3-0.5-0.5-0.8-0.6
			c-0.3-0.2-0.7-0.2-1.1-0.2c-0.5,0-0.9,0.1-1.2,0.3c-0.3,0.2-0.6,0.4-0.9,0.7c-0.2,0.3-0.4,0.6-0.6,1c-0.1,0.4-0.2,0.7-0.3,1.1H243
			z"/>
	</g>
	<g>
		<path class="st4" d="M123.1,74.7c-0.5,1.4-0.9,2.8-1.4,4c-0.5,1.2-0.9,2.4-1.4,3.6h-1.6c-0.6-1.7-1.1-3.4-1.5-5.2
			c-0.4-1.8-0.8-3.8-1.2-6h1.7c0.2,0.8,0.3,1.7,0.5,2.5c0.2,0.8,0.3,1.7,0.5,2.5c0.2,0.8,0.3,1.6,0.5,2.3c0.2,0.7,0.4,1.4,0.5,2
			c0.4-1.1,0.9-2.4,1.4-3.7c0.5-1.4,0.9-2.8,1.4-4.2h1.4c0.4,1.4,0.9,2.8,1.4,4.2c0.5,1.4,1,2.6,1.4,3.7c0.2-0.6,0.3-1.3,0.5-2
			c0.2-0.7,0.3-1.5,0.5-2.3c0.2-0.8,0.3-1.6,0.5-2.5c0.2-0.8,0.3-1.7,0.5-2.5h1.6c-0.4,2.2-0.8,4.2-1.2,6c-0.4,1.8-0.9,3.6-1.5,5.2
			h-1.6c-0.5-1.2-0.9-2.4-1.4-3.6C124.1,77.4,123.6,76.1,123.1,74.7z"/>
		<path class="st4" d="M132.6,72.3c-0.3,0-0.5-0.1-0.7-0.3c-0.2-0.2-0.3-0.4-0.3-0.7c0-0.3,0.1-0.5,0.3-0.7c0.2-0.2,0.4-0.3,0.7-0.3
			c0.3,0,0.5,0.1,0.7,0.3c0.2,0.2,0.3,0.4,0.3,0.7c0,0.3-0.1,0.5-0.3,0.7C133.1,72.2,132.9,72.3,132.6,72.3z M133.4,82.3h-1.5v-8.4
			h1.5V82.3z"/>
		<path class="st4" d="M135.4,77.9c0-0.7,0.1-1.4,0.3-2c0.2-0.6,0.5-1,0.9-1.4c0.4-0.4,0.8-0.6,1.2-0.8c0.5-0.2,0.9-0.3,1.4-0.3
			c1.1,0,2,0.4,2.6,1.1c0.6,0.7,0.9,1.8,0.9,3.2c0,0.1,0,0.1,0,0.3s0,0.2,0,0.3H137c0.1,0.9,0.3,1.5,0.8,2c0.4,0.5,1.1,0.7,2.1,0.7
			c0.5,0,1,0,1.3-0.1c0.4-0.1,0.6-0.2,0.8-0.3l0.2,1.3c-0.2,0.1-0.5,0.2-1,0.3c-0.5,0.1-1,0.2-1.6,0.2c-0.7,0-1.4-0.1-1.9-0.3
			c-0.5-0.2-1-0.5-1.3-0.9c-0.3-0.4-0.6-0.9-0.8-1.4C135.5,79.1,135.4,78.5,135.4,77.9z M141.2,77.1c0-0.7-0.2-1.2-0.5-1.7
			c-0.4-0.4-0.8-0.7-1.4-0.7c-0.3,0-0.7,0.1-0.9,0.2c-0.3,0.1-0.5,0.3-0.7,0.5c-0.2,0.2-0.3,0.5-0.4,0.7c-0.1,0.3-0.2,0.6-0.2,0.9
			H141.2z"/>
		<path class="st4" d="M150.3,69.8l1.5-0.3v12.3c-0.3,0.1-0.8,0.2-1.3,0.3c-0.5,0.1-1.2,0.1-1.9,0.1c-0.6,0-1.2-0.1-1.7-0.3
			c-0.5-0.2-1-0.5-1.3-0.9c-0.4-0.4-0.7-0.8-0.9-1.4c-0.2-0.5-0.3-1.2-0.3-1.8c0-0.6,0.1-1.2,0.3-1.8c0.2-0.5,0.4-1,0.7-1.4
			c0.3-0.4,0.7-0.7,1.2-0.9c0.5-0.2,1-0.3,1.6-0.3c0.5,0,0.9,0.1,1.3,0.2c0.4,0.1,0.7,0.3,0.8,0.4V69.8z M150.3,75.4
			c-0.2-0.2-0.4-0.3-0.8-0.4c-0.3-0.1-0.7-0.2-1.1-0.2c-0.4,0-0.8,0.1-1.1,0.2c-0.3,0.2-0.6,0.4-0.8,0.6c-0.2,0.3-0.3,0.6-0.4,1
			c-0.1,0.4-0.1,0.8-0.1,1.2c0,1,0.2,1.7,0.7,2.3c0.5,0.5,1.1,0.8,1.9,0.8c0.4,0,0.8,0,1-0.1c0.3,0,0.5-0.1,0.6-0.1V75.4z"/>
		<path class="st4" d="M159.9,75c-0.2,0.2-0.5,0.6-0.9,1.1c-0.4,0.5-0.8,1-1.2,1.5c-0.4,0.6-0.9,1.1-1.3,1.7
			c-0.4,0.6-0.8,1.2-1.1,1.7h4.6v1.3h-6.4v-1c0.3-0.5,0.6-1,1-1.6c0.4-0.6,0.8-1.1,1.2-1.7c0.4-0.6,0.8-1.1,1.2-1.6
			c0.4-0.5,0.7-0.9,1-1.3h-4.2v-1.3h6.1V75z"/>
		<path class="st4" d="M164.6,73.5c0.6,0,1.1,0.1,1.5,0.2c0.4,0.2,0.8,0.4,1,0.7c0.3,0.3,0.4,0.6,0.5,1c0.1,0.4,0.2,0.8,0.2,1.3V82
			c-0.1,0-0.3,0.1-0.5,0.1c-0.2,0-0.5,0.1-0.8,0.1c-0.3,0-0.6,0.1-0.9,0.1c-0.3,0-0.7,0-1,0c-0.5,0-0.9,0-1.3-0.1
			c-0.4-0.1-0.7-0.3-1-0.5c-0.3-0.2-0.5-0.5-0.7-0.8c-0.2-0.3-0.2-0.8-0.2-1.2c0-0.5,0.1-0.9,0.3-1.2c0.2-0.3,0.4-0.6,0.8-0.8
			c0.3-0.2,0.7-0.4,1.1-0.5c0.4-0.1,0.9-0.1,1.4-0.1c0.2,0,0.3,0,0.5,0c0.2,0,0.3,0,0.5,0.1c0.1,0,0.3,0.1,0.4,0.1
			c0.1,0,0.2,0,0.2,0v-0.4c0-0.2,0-0.5-0.1-0.7c-0.1-0.2-0.2-0.5-0.3-0.6c-0.1-0.2-0.3-0.3-0.6-0.5c-0.2-0.1-0.6-0.2-0.9-0.2
			c-0.5,0-0.9,0-1.3,0.1c-0.4,0.1-0.7,0.1-0.8,0.2l-0.2-1.2c0.2-0.1,0.5-0.2,1-0.3C163.6,73.5,164.1,73.5,164.6,73.5z M164.7,81
			c0.4,0,0.7,0,0.9,0c0.3,0,0.5,0,0.7-0.1v-2.5c-0.1-0.1-0.3-0.1-0.5-0.1c-0.2,0-0.5-0.1-0.9-0.1c-0.2,0-0.5,0-0.7,0
			c-0.3,0-0.5,0.1-0.7,0.2c-0.2,0.1-0.4,0.2-0.5,0.4c-0.1,0.2-0.2,0.4-0.2,0.7c0,0.5,0.2,0.9,0.5,1.1C163.7,80.9,164.1,81,164.7,81z
			"/>
		<path class="st4" d="M174,82.3V71h6.9v1.3h-5.3v3.3h4.7V77h-4.7v3.9h5.7v1.3H174z"/>
		<path class="st4" d="M188.2,69.8l1.5-0.3v12.3c-0.3,0.1-0.8,0.2-1.3,0.3c-0.5,0.1-1.2,0.1-1.9,0.1c-0.6,0-1.2-0.1-1.8-0.3
			c-0.5-0.2-1-0.5-1.3-0.9c-0.4-0.4-0.7-0.8-0.9-1.4c-0.2-0.5-0.3-1.2-0.3-1.8c0-0.6,0.1-1.2,0.3-1.8c0.2-0.5,0.4-1,0.7-1.4
			c0.3-0.4,0.7-0.7,1.2-0.9c0.5-0.2,1-0.3,1.6-0.3c0.5,0,0.9,0.1,1.3,0.2c0.4,0.1,0.7,0.3,0.8,0.4V69.8z M188.2,75.4
			c-0.2-0.2-0.4-0.3-0.8-0.4c-0.3-0.1-0.7-0.2-1.1-0.2c-0.4,0-0.8,0.1-1.1,0.2c-0.3,0.2-0.6,0.4-0.8,0.6c-0.2,0.3-0.3,0.6-0.4,1
			c-0.1,0.4-0.1,0.8-0.1,1.2c0,1,0.2,1.7,0.7,2.3c0.5,0.5,1.1,0.8,1.9,0.8c0.4,0,0.8,0,1-0.1c0.3,0,0.5-0.1,0.6-0.1V75.4z"/>
		<path class="st4" d="M199,81.9c-0.3,0.1-0.8,0.2-1.4,0.3c-0.6,0.1-1.2,0.1-2,0.1c-0.6,0-1.2-0.1-1.6-0.3c-0.4-0.2-0.8-0.5-1.1-0.8
			c-0.3-0.3-0.5-0.8-0.6-1.2c-0.1-0.5-0.2-1-0.2-1.6v-4.7h1.5v4.4c0,1,0.2,1.8,0.5,2.2c0.3,0.4,0.9,0.7,1.6,0.7c0.2,0,0.3,0,0.5,0
			c0.2,0,0.3,0,0.5,0c0.2,0,0.3,0,0.4,0c0.1,0,0.2,0,0.3-0.1v-7.1h1.5V81.9z"/>
		<path class="st4" d="M204.5,77.6c0.3,0.2,0.7,0.6,1,0.9c0.4,0.4,0.7,0.8,1.1,1.2c0.4,0.4,0.7,0.9,1,1.3c0.3,0.4,0.6,0.8,0.8,1.2
			h-1.8c-0.2-0.4-0.5-0.8-0.8-1.2c-0.3-0.4-0.6-0.8-0.9-1.1c-0.3-0.4-0.7-0.7-1-1c-0.3-0.3-0.7-0.6-1-0.8v4h-1.5V70l1.5-0.3v7.7
			c0.3-0.3,0.5-0.5,0.9-0.9c0.3-0.3,0.6-0.6,0.9-1c0.3-0.3,0.6-0.6,0.9-0.9c0.3-0.3,0.5-0.6,0.7-0.8h1.8c-0.2,0.3-0.5,0.6-0.8,0.9
			c-0.3,0.3-0.6,0.7-0.9,1c-0.3,0.3-0.6,0.7-0.9,1C205.1,77,204.8,77.3,204.5,77.6z"/>
		<path class="st4" d="M212.6,73.5c0.6,0,1.1,0.1,1.5,0.2c0.4,0.2,0.8,0.4,1,0.7c0.3,0.3,0.4,0.6,0.5,1c0.1,0.4,0.2,0.8,0.2,1.3V82
			c-0.1,0-0.3,0.1-0.5,0.1c-0.2,0-0.5,0.1-0.8,0.1c-0.3,0-0.6,0.1-0.9,0.1c-0.3,0-0.7,0-1,0c-0.5,0-0.9,0-1.3-0.1
			c-0.4-0.1-0.7-0.3-1-0.5c-0.3-0.2-0.5-0.5-0.7-0.8c-0.2-0.3-0.2-0.8-0.2-1.2c0-0.5,0.1-0.9,0.3-1.2c0.2-0.3,0.4-0.6,0.8-0.8
			c0.3-0.2,0.7-0.4,1.1-0.5c0.4-0.1,0.9-0.1,1.4-0.1c0.2,0,0.3,0,0.5,0c0.2,0,0.3,0,0.5,0.1c0.1,0,0.3,0.1,0.4,0.1
			c0.1,0,0.2,0,0.2,0v-0.4c0-0.2,0-0.5-0.1-0.7c-0.1-0.2-0.2-0.5-0.3-0.6c-0.1-0.2-0.3-0.3-0.6-0.5c-0.2-0.1-0.6-0.2-0.9-0.2
			c-0.5,0-0.9,0-1.3,0.1c-0.4,0.1-0.7,0.1-0.8,0.2l-0.2-1.2c0.2-0.1,0.5-0.2,1-0.3C211.6,73.5,212.1,73.5,212.6,73.5z M212.7,81
			c0.4,0,0.7,0,0.9,0c0.3,0,0.5,0,0.7-0.1v-2.5c-0.1-0.1-0.3-0.1-0.5-0.1c-0.2,0-0.5-0.1-0.9-0.1c-0.2,0-0.5,0-0.7,0
			c-0.3,0-0.5,0.1-0.7,0.2c-0.2,0.1-0.4,0.2-0.5,0.4c-0.1,0.2-0.2,0.4-0.2,0.7c0,0.5,0.2,0.9,0.5,1.1C211.6,80.9,212.1,81,212.7,81z
			"/>
		<path class="st4" d="M221.9,82.3c-0.7,0-1.3-0.1-1.8-0.3c-0.5-0.2-0.9-0.5-1.3-0.9c-0.4-0.4-0.6-0.9-0.8-1.4
			c-0.2-0.5-0.3-1.1-0.3-1.8c0-0.6,0.1-1.2,0.3-1.8c0.2-0.5,0.5-1,0.8-1.4c0.3-0.4,0.8-0.7,1.3-0.9c0.5-0.2,1.1-0.3,1.7-0.3
			c0.4,0,0.8,0,1.1,0.1c0.4,0.1,0.7,0.2,1.1,0.3l-0.3,1.3c-0.2-0.1-0.5-0.2-0.8-0.3c-0.3-0.1-0.6-0.1-0.9-0.1
			c-0.8,0-1.5,0.3-1.9,0.8c-0.4,0.5-0.7,1.3-0.7,2.3c0,0.5,0.1,0.9,0.2,1.2c0.1,0.4,0.3,0.7,0.5,1c0.2,0.3,0.5,0.5,0.9,0.6
			c0.3,0.1,0.8,0.2,1.3,0.2c0.4,0,0.8,0,1.1-0.1c0.3-0.1,0.6-0.2,0.8-0.2l0.2,1.3c-0.1,0.1-0.2,0.1-0.4,0.2c-0.2,0-0.3,0.1-0.6,0.1
			c-0.2,0-0.4,0.1-0.7,0.1C222.3,82.3,222.1,82.3,221.9,82.3z"/>
		<path class="st4" d="M224.3,85.3c-0.1,0-0.3,0-0.5,0c-0.2,0-0.4-0.1-0.5-0.1l0.2-1.2c0.1,0,0.2,0.1,0.4,0.1c0.1,0,0.3,0,0.4,0
			c0.5,0,0.9-0.2,1.1-0.5c0.2-0.3,0.3-0.8,0.3-1.4v-8.3h1.5v8.3c0,1.1-0.2,1.9-0.7,2.4C226,85,225.3,85.3,224.3,85.3z M226.4,72.3
			c-0.3,0-0.5-0.1-0.7-0.3c-0.2-0.2-0.3-0.4-0.3-0.7c0-0.3,0.1-0.5,0.3-0.7c0.2-0.2,0.4-0.3,0.7-0.3c0.3,0,0.5,0.1,0.7,0.3
			c0.2,0.2,0.3,0.4,0.3,0.7c0,0.3-0.1,0.5-0.3,0.7C226.9,72.2,226.7,72.3,226.4,72.3z"/>
		<path class="st4" d="M232.4,73.5c0.6,0,1.1,0.1,1.5,0.2c0.4,0.2,0.8,0.4,1,0.7s0.4,0.6,0.5,1c0.1,0.4,0.2,0.8,0.2,1.3V82
			c-0.1,0-0.3,0.1-0.5,0.1c-0.2,0-0.5,0.1-0.8,0.1c-0.3,0-0.6,0.1-0.9,0.1c-0.3,0-0.7,0-1,0c-0.5,0-0.9,0-1.3-0.1
			c-0.4-0.1-0.7-0.3-1-0.5c-0.3-0.2-0.5-0.5-0.7-0.8c-0.2-0.3-0.2-0.8-0.2-1.2c0-0.5,0.1-0.9,0.3-1.2c0.2-0.3,0.4-0.6,0.8-0.8
			c0.3-0.2,0.7-0.4,1.1-0.5c0.4-0.1,0.9-0.1,1.4-0.1c0.2,0,0.3,0,0.5,0c0.2,0,0.3,0,0.5,0.1c0.1,0,0.3,0.1,0.4,0.1
			c0.1,0,0.2,0,0.2,0v-0.4c0-0.2,0-0.5-0.1-0.7c-0.1-0.2-0.2-0.5-0.3-0.6c-0.1-0.2-0.3-0.3-0.6-0.5c-0.2-0.1-0.6-0.2-0.9-0.2
			c-0.5,0-0.9,0-1.3,0.1c-0.4,0.1-0.7,0.1-0.8,0.2l-0.2-1.2c0.2-0.1,0.5-0.2,1-0.3C231.4,73.5,231.9,73.5,232.4,73.5z M232.6,81
			c0.4,0,0.7,0,0.9,0c0.3,0,0.5,0,0.7-0.1v-2.5c-0.1-0.1-0.3-0.1-0.5-0.1c-0.2,0-0.5-0.1-0.9-0.1c-0.2,0-0.5,0-0.7,0
			c-0.3,0-0.5,0.1-0.7,0.2c-0.2,0.1-0.4,0.2-0.5,0.4c-0.1,0.2-0.2,0.4-0.2,0.7c0,0.5,0.2,0.9,0.5,1.1C231.5,80.9,232,81,232.6,81z"
			/>
		<path class="st4" d="M247.3,77.6c0.2,0.2,0.4,0.5,0.7,0.9c0.3,0.4,0.5,0.7,0.8,1.2c0.3,0.4,0.6,0.9,0.8,1.3
			c0.3,0.5,0.5,0.9,0.7,1.3h-1.7c-0.2-0.4-0.5-0.8-0.7-1.2c-0.3-0.4-0.5-0.8-0.8-1.2c-0.3-0.4-0.5-0.7-0.8-1.1
			c-0.3-0.3-0.5-0.6-0.7-0.9c-0.1,0-0.3,0-0.4,0c-0.1,0-0.3,0-0.4,0h-1.4v4.4h-1.6V71.2c0.4-0.1,0.9-0.2,1.5-0.2
			c0.5,0,1-0.1,1.5-0.1c1.6,0,2.8,0.3,3.6,0.9c0.8,0.6,1.2,1.5,1.2,2.7c0,0.7-0.2,1.4-0.6,1.9C248.7,76.9,248.1,77.3,247.3,77.6z
			 M244.9,72.3c-0.7,0-1.2,0-1.5,0v4.2h1.1c0.5,0,1,0,1.5-0.1c0.4-0.1,0.8-0.2,1.1-0.3c0.3-0.2,0.5-0.4,0.7-0.6
			c0.2-0.3,0.2-0.6,0.2-1.1c0-0.4-0.1-0.8-0.2-1.1c-0.2-0.3-0.4-0.5-0.7-0.7c-0.3-0.2-0.6-0.3-1-0.3
			C245.8,72.3,245.4,72.3,244.9,72.3z"/>
		<path class="st4" d="M259.3,77.9c0,0.7-0.1,1.3-0.3,1.8c-0.2,0.5-0.5,1-0.8,1.4c-0.4,0.4-0.8,0.7-1.3,0.9c-0.5,0.2-1,0.3-1.6,0.3
			c-0.6,0-1.1-0.1-1.6-0.3c-0.5-0.2-0.9-0.5-1.3-0.9c-0.4-0.4-0.6-0.9-0.8-1.4c-0.2-0.5-0.3-1.1-0.3-1.8c0-0.7,0.1-1.3,0.3-1.8
			c0.2-0.5,0.5-1,0.8-1.4c0.4-0.4,0.8-0.7,1.3-0.9c0.5-0.2,1-0.3,1.6-0.3c0.6,0,1.1,0.1,1.6,0.3c0.5,0.2,0.9,0.5,1.3,0.9
			c0.4,0.4,0.6,0.9,0.8,1.4C259.2,76.6,259.3,77.2,259.3,77.9z M257.7,77.9c0-1-0.2-1.7-0.6-2.3c-0.4-0.6-1-0.8-1.7-0.8
			c-0.7,0-1.3,0.3-1.7,0.8c-0.4,0.6-0.6,1.3-0.6,2.3c0,1,0.2,1.7,0.6,2.3c0.4,0.6,1,0.8,1.7,0.8c0.7,0,1.3-0.3,1.7-0.8
			C257.5,79.6,257.7,78.8,257.7,77.9z"/>
		<path class="st4" d="M266.6,75c-0.2,0.2-0.5,0.6-0.9,1.1c-0.4,0.5-0.8,1-1.2,1.5c-0.4,0.6-0.9,1.1-1.3,1.7
			c-0.4,0.6-0.8,1.2-1.1,1.7h4.6v1.3h-6.4v-1c0.3-0.5,0.6-1,1-1.6c0.4-0.6,0.8-1.1,1.2-1.7c0.4-0.6,0.8-1.1,1.2-1.6
			c0.4-0.5,0.7-0.9,1-1.3h-4.2v-1.3h6.1V75z"/>
		<path class="st4" d="M275.4,82.3c-0.3-0.8-0.6-1.7-1-2.7c-0.3-1-0.7-2-0.9-3.1c-0.3,1.1-0.6,2.1-0.9,3.1c-0.3,1-0.7,1.9-1,2.7
			h-1.3c-0.5-1.1-1-2.4-1.5-3.8c-0.5-1.4-0.9-3-1.3-4.6h1.6c0.1,0.5,0.2,1.1,0.4,1.7c0.2,0.6,0.3,1.2,0.5,1.8
			c0.2,0.6,0.3,1.2,0.5,1.7c0.2,0.6,0.4,1,0.5,1.4c0.2-0.5,0.4-1,0.5-1.6c0.2-0.6,0.3-1.1,0.5-1.7s0.3-1.1,0.5-1.7
			c0.1-0.6,0.3-1.1,0.4-1.6h1.2c0.1,0.5,0.2,1,0.4,1.6c0.1,0.6,0.3,1.1,0.5,1.7c0.2,0.6,0.3,1.2,0.5,1.7c0.2,0.6,0.4,1.1,0.5,1.6
			c0.2-0.4,0.3-0.9,0.5-1.4c0.2-0.6,0.4-1.1,0.5-1.7c0.2-0.6,0.3-1.2,0.5-1.8c0.2-0.6,0.3-1.1,0.4-1.7h1.6c-0.4,1.7-0.9,3.2-1.3,4.6
			c-0.5,1.4-1,2.7-1.5,3.8H275.4z"/>
		<path class="st4" d="M288.3,77.9c0,0.7-0.1,1.3-0.3,1.8c-0.2,0.5-0.5,1-0.8,1.4c-0.4,0.4-0.8,0.7-1.3,0.9c-0.5,0.2-1,0.3-1.6,0.3
			c-0.6,0-1.1-0.1-1.6-0.3c-0.5-0.2-0.9-0.5-1.3-0.9c-0.4-0.4-0.6-0.9-0.8-1.4c-0.2-0.5-0.3-1.1-0.3-1.8c0-0.7,0.1-1.3,0.3-1.8
			c0.2-0.5,0.5-1,0.8-1.4c0.4-0.4,0.8-0.7,1.3-0.9c0.5-0.2,1-0.3,1.6-0.3c0.6,0,1.1,0.1,1.6,0.3c0.5,0.2,0.9,0.5,1.3,0.9
			c0.4,0.4,0.6,0.9,0.8,1.4C288.2,76.6,288.3,77.2,288.3,77.9z M286.7,77.9c0-1-0.2-1.7-0.6-2.3c-0.4-0.6-1-0.8-1.7-0.8
			c-0.7,0-1.3,0.3-1.7,0.8c-0.4,0.6-0.6,1.3-0.6,2.3c0,1,0.2,1.7,0.6,2.3c0.4,0.6,1,0.8,1.7,0.8c0.7,0,1.3-0.3,1.7-0.8
			C286.5,79.6,286.7,78.8,286.7,77.9z M286.3,70.7l-2.3,2.2l-0.8-0.7l2.1-2.5L286.3,70.7z"/>
		<path class="st4" d="M289,85.3c-0.1,0-0.3,0-0.5,0c-0.2,0-0.4-0.1-0.5-0.1l0.2-1.2c0.1,0,0.2,0.1,0.4,0.1c0.1,0,0.3,0,0.4,0
			c0.5,0,0.9-0.2,1.1-0.5c0.2-0.3,0.3-0.8,0.3-1.4v-8.3h1.5v8.3c0,1.1-0.2,1.9-0.7,2.4C290.6,85,289.9,85.3,289,85.3z M291.1,72.3
			c-0.3,0-0.5-0.1-0.7-0.3c-0.2-0.2-0.3-0.4-0.3-0.7c0-0.3,0.1-0.5,0.3-0.7c0.2-0.2,0.4-0.3,0.7-0.3s0.5,0.1,0.7,0.3
			c0.2,0.2,0.3,0.4,0.3,0.7c0,0.3-0.1,0.5-0.3,0.7C291.6,72.2,291.4,72.3,291.1,72.3z"/>
	</g>
</g>
</svg>
