<?xml version="1.0" encoding="utf-8"?>
<!-- Generator: Adobe Illustrator 28.0.0, SVG Export Plug-In . SVG Version: 6.00 Build 0)  -->
<svg version="1.1" id="Warstwa_1" xmlns="http://www.w3.org/2000/svg" xmlns:xlink="http://www.w3.org/1999/xlink" x="0px" y="0px"
	 viewBox="0 0 340.2 96.4" style="enable-background:new 0 0 340.2 96.4;" xml:space="preserve">
<style type="text/css">
	.st0{fill:#164193;}
	.st1{fill:#FFEC00;}
	.st2{fill:#1D1D1B;}
</style>
<g id="XMLID_2625_">
	<g id="XMLID_2636_">
		<rect id="XMLID_2657_" x="237.8" y="14.2" class="st0" width="102" height="68"/>
		<polygon id="XMLID_2656_" class="st1" points="286.7,29.1 288.8,27.5 291,29.1 290.2,26.5 292.4,24.9 289.7,24.9 288.8,22.4 
			288,24.9 285.3,24.9 287.5,26.5 		"/>
		<polygon id="XMLID_2655_" class="st1" points="275.5,32 277.7,30.5 279.8,32 279,29.5 281.2,27.9 278.5,27.9 277.7,25.4 
			276.9,27.9 274.2,27.9 276.4,29.5 		"/>
		<polygon id="XMLID_2654_" class="st1" points="269.5,33.5 268.7,36.1 266,36.1 268.2,37.7 267.4,40.2 269.5,38.7 271.7,40.2 
			270.9,37.7 273.1,36.1 270.4,36.1 		"/>
		<polygon id="XMLID_2653_" class="st1" points="266.6,49.8 268.7,51.3 267.9,48.8 270.1,47.2 267.4,47.2 266.6,44.7 265.7,47.2 
			263,47.2 265.2,48.8 264.4,51.3 		"/>
		<polygon id="XMLID_2652_" class="st1" points="270.4,58.4 269.5,55.8 268.7,58.4 266,58.4 268.2,60 267.4,62.5 269.5,60.9 
			271.7,62.5 270.9,60 273.1,58.4 		"/>
		<polygon id="XMLID_2651_" class="st1" points="278.5,66.6 277.7,64 276.9,66.6 274.2,66.6 276.4,68.1 275.6,70.7 277.7,69.1 
			279.9,70.7 279,68.1 281.2,66.6 		"/>
		<polygon id="XMLID_2650_" class="st1" points="289.7,69.5 288.8,66.9 288,69.5 285.3,69.5 287.5,71.1 286.7,73.6 288.8,72.1 
			291,73.6 290.2,71.1 292.4,69.5 		"/>
		<polygon id="XMLID_2649_" class="st1" points="300.8,66.6 300,64 299.1,66.6 296.4,66.6 298.6,68.1 297.8,70.7 300,69.1 
			302.1,70.7 301.3,68.1 303.5,66.6 		"/>
		<polygon id="XMLID_2648_" class="st1" points="309,58.4 308.1,55.8 307.3,58.4 304.6,58.4 306.8,60 306,62.5 308.1,60.9 
			310.3,62.5 309.5,60 311.7,58.4 		"/>
		<polygon id="XMLID_2646_" class="st1" points="314.6,47.2 311.9,47.2 311.1,44.6 310.3,47.2 307.6,47.2 309.8,48.8 308.9,51.3 
			311.1,49.7 313.2,51.3 312.4,48.8 		"/>
		<polygon id="XMLID_2643_" class="st1" points="306,40.2 308.1,38.6 310.3,40.2 309.5,37.6 311.7,36.1 309,36.1 308.1,33.5 
			307.3,36.1 304.6,36.1 306.8,37.6 		"/>
		<polygon id="XMLID_2637_" class="st1" points="300,25.4 299.2,27.9 296.5,27.9 298.7,29.5 297.8,32.1 300,30.5 302.2,32.1 
			301.3,29.5 303.5,27.9 300.8,27.9 		"/>
	</g>
	<g>
		<g>
			<path class="st2" d="M1.1,68.4V57.2H8v1.3H2.7v3.3h4.7v1.3H2.7v3.9h5.7v1.3H1.1z"/>
			<path class="st2" d="M16.6,68c-0.3,0.1-0.8,0.2-1.4,0.3c-0.6,0.1-1.2,0.1-2,0.1c-0.6,0-1.2-0.1-1.6-0.3c-0.4-0.2-0.8-0.5-1.1-0.8
				c-0.3-0.3-0.5-0.8-0.6-1.2c-0.1-0.5-0.2-1-0.2-1.6v-4.7h1.5v4.4c0,1,0.2,1.8,0.5,2.2c0.3,0.4,0.9,0.7,1.6,0.7c0.2,0,0.3,0,0.5,0
				c0.2,0,0.3,0,0.5,0c0.2,0,0.3,0,0.4,0c0.1,0,0.2,0,0.3-0.1v-7.1h1.5V68z"/>
			<path class="st2" d="M22.2,59.8c0.1,0,0.3,0,0.4,0c0.2,0,0.3,0,0.5,0.1c0.2,0,0.3,0.1,0.4,0.1c0.1,0,0.2,0.1,0.3,0.1l-0.3,1.3
				c-0.1,0-0.3-0.1-0.6-0.2c-0.3-0.1-0.6-0.1-1.1-0.1c-0.3,0-0.6,0-0.8,0.1c-0.3,0.1-0.5,0.1-0.5,0.1v7.1h-1.5v-8.1
				c0.4-0.1,0.8-0.3,1.3-0.4C21,59.9,21.6,59.8,22.2,59.8z"/>
			<path class="st2" d="M32.7,64c0,0.7-0.1,1.3-0.3,1.8c-0.2,0.5-0.5,1-0.8,1.4c-0.4,0.4-0.8,0.7-1.3,0.9c-0.5,0.2-1,0.3-1.6,0.3
				s-1.1-0.1-1.6-0.3c-0.5-0.2-0.9-0.5-1.3-0.9c-0.4-0.4-0.6-0.9-0.8-1.4c-0.2-0.5-0.3-1.1-0.3-1.8c0-0.7,0.1-1.3,0.3-1.8
				c0.2-0.5,0.5-1,0.8-1.4c0.4-0.4,0.8-0.7,1.3-0.9c0.5-0.2,1-0.3,1.6-0.3s1.1,0.1,1.6,0.3c0.5,0.2,0.9,0.5,1.3,0.9
				c0.4,0.4,0.6,0.9,0.8,1.4C32.6,62.8,32.7,63.4,32.7,64z M31.2,64c0-1-0.2-1.7-0.6-2.3c-0.4-0.6-1-0.8-1.7-0.8s-1.3,0.3-1.7,0.8
				c-0.4,0.6-0.6,1.3-0.6,2.3c0,1,0.2,1.7,0.6,2.3c0.4,0.6,1,0.8,1.7,0.8s1.3-0.3,1.7-0.8C30.9,65.7,31.2,65,31.2,64z"/>
			<path class="st2" d="M42.2,64.2c0,0.6-0.1,1.2-0.3,1.8c-0.2,0.5-0.4,1-0.7,1.4c-0.3,0.4-0.7,0.7-1.2,0.9c-0.5,0.2-1,0.3-1.6,0.3
				c-0.5,0-0.9-0.1-1.3-0.2c-0.4-0.1-0.7-0.3-0.8-0.4v3.4h-1.5V60.3c0.4-0.1,0.8-0.2,1.3-0.3c0.5-0.1,1.2-0.2,1.9-0.2
				c0.6,0,1.2,0.1,1.7,0.3c0.5,0.2,1,0.5,1.3,0.9c0.4,0.4,0.7,0.8,0.9,1.4C42.1,62.9,42.2,63.6,42.2,64.2z M40.6,64.2
				c0-1-0.2-1.7-0.7-2.3c-0.5-0.5-1.1-0.8-1.9-0.8c-0.5,0-0.8,0-1.1,0c-0.3,0-0.5,0.1-0.6,0.1v5.3c0.2,0.2,0.4,0.3,0.8,0.4
				c0.3,0.1,0.7,0.2,1.1,0.2c0.4,0,0.8-0.1,1.1-0.2c0.3-0.2,0.6-0.4,0.8-0.6c0.2-0.3,0.3-0.6,0.4-1C40.6,65.1,40.6,64.7,40.6,64.2z"
				/>
			<path class="st2" d="M43.8,64c0-0.7,0.1-1.4,0.3-2c0.2-0.6,0.5-1,0.9-1.4c0.4-0.4,0.8-0.6,1.2-0.8c0.5-0.2,0.9-0.3,1.4-0.3
				c1.1,0,2,0.4,2.6,1.1c0.6,0.7,0.9,1.8,0.9,3.2c0,0.1,0,0.1,0,0.3c0,0.1,0,0.2,0,0.3h-5.8c0.1,0.9,0.3,1.5,0.8,2
				c0.4,0.5,1.1,0.7,2.1,0.7c0.5,0,1,0,1.3-0.1c0.4-0.1,0.6-0.2,0.8-0.3l0.2,1.3c-0.2,0.1-0.5,0.2-1,0.3c-0.5,0.1-1,0.2-1.6,0.2
				c-0.7,0-1.4-0.1-1.9-0.3s-1-0.5-1.3-0.9c-0.3-0.4-0.6-0.9-0.8-1.4C43.9,65.3,43.8,64.7,43.8,64z M49.5,63.2
				c0-0.7-0.2-1.2-0.5-1.7c-0.4-0.4-0.8-0.7-1.4-0.7c-0.3,0-0.7,0.1-0.9,0.2c-0.3,0.1-0.5,0.3-0.7,0.5c-0.2,0.2-0.3,0.5-0.4,0.7
				c-0.1,0.3-0.2,0.6-0.2,0.9H49.5z"/>
			<path class="st2" d="M51.8,71.5c-0.1,0-0.3,0-0.5,0c-0.2,0-0.4-0.1-0.5-0.1l0.2-1.2c0.1,0,0.2,0.1,0.4,0.1c0.1,0,0.3,0,0.4,0
				c0.5,0,0.9-0.2,1.1-0.5c0.2-0.3,0.3-0.8,0.3-1.4V60h1.5v8.3c0,1.1-0.2,1.9-0.7,2.4C53.5,71.2,52.8,71.5,51.8,71.5z M54,58.5
				c-0.3,0-0.5-0.1-0.7-0.3C53.1,58,53,57.8,53,57.5c0-0.3,0.1-0.5,0.3-0.7c0.2-0.2,0.4-0.3,0.7-0.3c0.3,0,0.5,0.1,0.7,0.3
				c0.2,0.2,0.3,0.4,0.3,0.7c0,0.3-0.1,0.5-0.3,0.7C54.5,58.4,54.2,58.5,54,58.5z"/>
			<path class="st2" d="M59.2,67.2c0.6,0,1.1-0.1,1.4-0.2c0.3-0.2,0.4-0.4,0.4-0.8c0-0.4-0.1-0.7-0.4-0.9c-0.3-0.2-0.8-0.5-1.4-0.7
				c-0.3-0.1-0.6-0.3-0.9-0.4c-0.3-0.1-0.6-0.3-0.8-0.5c-0.2-0.2-0.4-0.4-0.5-0.7c-0.1-0.3-0.2-0.6-0.2-1c0-0.7,0.3-1.3,0.8-1.8
				s1.3-0.7,2.3-0.7c0.2,0,0.5,0,0.7,0c0.2,0,0.5,0.1,0.7,0.1c0.2,0,0.4,0.1,0.5,0.1c0.2,0,0.3,0.1,0.4,0.1l-0.3,1.3
				c-0.2-0.1-0.4-0.2-0.8-0.3c-0.3-0.1-0.8-0.1-1.2-0.1c-0.4,0-0.8,0.1-1.1,0.3c-0.3,0.2-0.5,0.4-0.5,0.8c0,0.2,0,0.3,0.1,0.5
				c0.1,0.1,0.2,0.3,0.3,0.4c0.1,0.1,0.3,0.2,0.5,0.3c0.2,0.1,0.5,0.2,0.8,0.3c0.4,0.2,0.8,0.3,1.1,0.4c0.3,0.1,0.6,0.3,0.8,0.5
				c0.2,0.2,0.4,0.4,0.5,0.7c0.1,0.3,0.2,0.6,0.2,1c0,0.8-0.3,1.4-0.9,1.8c-0.6,0.4-1.4,0.6-2.5,0.6c-0.7,0-1.3-0.1-1.7-0.2
				C57,68.1,56.7,68,56.6,68l0.3-1.3c0.2,0.1,0.4,0.2,0.8,0.3C58.1,67.1,58.6,67.2,59.2,67.2z"/>
			<path class="st2" d="M67.4,63.8c0.3,0.2,0.7,0.6,1,0.9c0.4,0.4,0.7,0.8,1.1,1.2c0.4,0.4,0.7,0.9,1,1.3c0.3,0.4,0.6,0.8,0.8,1.2
				h-1.8c-0.2-0.4-0.5-0.8-0.8-1.2c-0.3-0.4-0.6-0.8-0.9-1.1c-0.3-0.4-0.7-0.7-1-1c-0.3-0.3-0.7-0.6-1-0.8v4h-1.5V56.1l1.5-0.3v7.7
				c0.3-0.3,0.5-0.5,0.9-0.9c0.3-0.3,0.6-0.6,0.9-1c0.3-0.3,0.6-0.6,0.9-0.9c0.3-0.3,0.5-0.6,0.7-0.8H71c-0.2,0.3-0.5,0.6-0.8,0.9
				c-0.3,0.3-0.6,0.7-0.9,1c-0.3,0.3-0.6,0.7-0.9,1C68,63.2,67.7,63.5,67.4,63.8z"/>
			<path class="st2" d="M73.5,58.5c-0.3,0-0.5-0.1-0.7-0.3c-0.2-0.2-0.3-0.4-0.3-0.7c0-0.3,0.1-0.5,0.3-0.7c0.2-0.2,0.4-0.3,0.7-0.3
				c0.3,0,0.5,0.1,0.7,0.3c0.2,0.2,0.3,0.4,0.3,0.7c0,0.3-0.1,0.5-0.3,0.7C74,58.4,73.8,58.5,73.5,58.5z M74.3,68.4h-1.5V60h1.5
				V68.4z"/>
			<path class="st2" d="M80.5,68.4V57.2h6.8v1.3h-5.2v3.4h4.6v1.3h-4.6v5.2H80.5z"/>
			<path class="st2" d="M95.3,68c-0.3,0.1-0.8,0.2-1.4,0.3c-0.6,0.1-1.2,0.1-2,0.1c-0.6,0-1.2-0.1-1.6-0.3c-0.4-0.2-0.8-0.5-1.1-0.8
				c-0.3-0.3-0.5-0.8-0.6-1.2c-0.1-0.5-0.2-1-0.2-1.6v-4.7H90v4.4c0,1,0.2,1.8,0.5,2.2c0.3,0.4,0.9,0.7,1.6,0.7c0.2,0,0.3,0,0.5,0
				c0.2,0,0.3,0,0.5,0c0.2,0,0.3,0,0.4,0c0.1,0,0.2,0,0.3-0.1v-7.1h1.5V68z"/>
			<path class="st2" d="M97.9,60.3c0.3-0.1,0.8-0.2,1.4-0.3c0.6-0.1,1.2-0.1,2-0.1c0.7,0,1.2,0.1,1.7,0.3c0.4,0.2,0.8,0.5,1.1,0.8
				c0.3,0.3,0.5,0.7,0.6,1.2c0.1,0.5,0.2,1,0.2,1.6v4.7h-1.5V64c0-0.5,0-1-0.1-1.3c-0.1-0.4-0.2-0.7-0.3-0.9
				c-0.2-0.2-0.4-0.4-0.6-0.5c-0.3-0.1-0.6-0.2-1-0.2c-0.2,0-0.3,0-0.5,0c-0.2,0-0.3,0-0.5,0c-0.2,0-0.3,0-0.4,0.1
				c-0.1,0-0.2,0-0.3,0v7.1h-1.5V60.3z"/>
			<path class="st2" d="M112.5,55.9l1.5-0.3V68c-0.3,0.1-0.8,0.2-1.3,0.3c-0.5,0.1-1.2,0.1-1.9,0.1c-0.6,0-1.2-0.1-1.7-0.3
				c-0.5-0.2-1-0.5-1.3-0.9c-0.4-0.4-0.7-0.8-0.9-1.4c-0.2-0.5-0.3-1.2-0.3-1.8c0-0.6,0.1-1.2,0.3-1.8c0.2-0.5,0.4-1,0.7-1.4
				c0.3-0.4,0.7-0.7,1.2-0.9c0.5-0.2,1-0.3,1.6-0.3c0.5,0,0.9,0.1,1.3,0.2c0.4,0.1,0.7,0.3,0.8,0.4V55.9z M112.5,61.6
				c-0.2-0.2-0.4-0.3-0.8-0.4c-0.3-0.1-0.7-0.2-1.1-0.2c-0.4,0-0.8,0.1-1.1,0.2c-0.3,0.2-0.6,0.4-0.8,0.6c-0.2,0.3-0.3,0.6-0.4,1
				c-0.1,0.4-0.1,0.8-0.1,1.2c0,1,0.2,1.7,0.7,2.3c0.5,0.5,1.1,0.8,1.9,0.8c0.4,0,0.8,0,1-0.1c0.3,0,0.5-0.1,0.6-0.1V61.6z"/>
			<path class="st2" d="M123.2,68c-0.3,0.1-0.8,0.2-1.4,0.3c-0.6,0.1-1.2,0.1-2,0.1c-0.6,0-1.2-0.1-1.6-0.3
				c-0.4-0.2-0.8-0.5-1.1-0.8c-0.3-0.3-0.5-0.8-0.6-1.2c-0.1-0.5-0.2-1-0.2-1.6v-4.7h1.5v4.4c0,1,0.2,1.8,0.5,2.2
				c0.3,0.4,0.9,0.7,1.6,0.7c0.2,0,0.3,0,0.5,0c0.2,0,0.3,0,0.5,0c0.2,0,0.3,0,0.4,0c0.1,0,0.2,0,0.3-0.1v-7.1h1.5V68z"/>
			<path class="st2" d="M127.7,67.2c0.6,0,1.1-0.1,1.4-0.2c0.3-0.2,0.4-0.4,0.4-0.8c0-0.4-0.1-0.7-0.4-0.9c-0.3-0.2-0.8-0.5-1.4-0.7
				c-0.3-0.1-0.6-0.3-0.9-0.4c-0.3-0.1-0.6-0.3-0.8-0.5c-0.2-0.2-0.4-0.4-0.5-0.7c-0.1-0.3-0.2-0.6-0.2-1c0-0.7,0.3-1.3,0.8-1.8
				c0.6-0.4,1.3-0.7,2.3-0.7c0.2,0,0.5,0,0.7,0c0.2,0,0.5,0.1,0.7,0.1c0.2,0,0.4,0.1,0.5,0.1c0.2,0,0.3,0.1,0.4,0.1l-0.3,1.3
				c-0.2-0.1-0.4-0.2-0.8-0.3c-0.3-0.1-0.8-0.1-1.2-0.1c-0.4,0-0.8,0.1-1.1,0.3c-0.3,0.2-0.5,0.4-0.5,0.8c0,0.2,0,0.3,0.1,0.5
				c0.1,0.1,0.2,0.3,0.3,0.4c0.1,0.1,0.3,0.2,0.5,0.3c0.2,0.1,0.5,0.2,0.8,0.3c0.4,0.2,0.8,0.3,1.1,0.4c0.3,0.1,0.6,0.3,0.8,0.5
				c0.2,0.2,0.4,0.4,0.5,0.7c0.1,0.3,0.2,0.6,0.2,1c0,0.8-0.3,1.4-0.9,1.8c-0.6,0.4-1.4,0.6-2.5,0.6c-0.7,0-1.3-0.1-1.7-0.2
				c-0.4-0.1-0.7-0.2-0.9-0.3l0.3-1.3c0.2,0.1,0.4,0.2,0.8,0.3C126.6,67.1,127.1,67.2,127.7,67.2z"/>
			<path class="st2" d="M138.5,61.1c-0.2,0.2-0.5,0.6-0.9,1.1c-0.4,0.5-0.8,1-1.2,1.5c-0.4,0.6-0.9,1.1-1.3,1.7
				c-0.4,0.6-0.8,1.2-1.1,1.7h4.6v1.3h-6.4v-1c0.3-0.5,0.6-1,1-1.6c0.4-0.6,0.8-1.1,1.2-1.7c0.4-0.6,0.8-1.1,1.2-1.6
				c0.4-0.5,0.7-0.9,1-1.3h-4.2V60h6.1V61.1z"/>
			<path class="st2" d="M146.8,67.1c1.6,0,2.5-0.6,2.5-1.7c0-0.3-0.1-0.6-0.2-0.9c-0.1-0.2-0.3-0.5-0.6-0.6
				c-0.2-0.2-0.5-0.3-0.9-0.5c-0.3-0.1-0.7-0.3-1-0.4c-0.4-0.1-0.8-0.3-1.2-0.5c-0.4-0.2-0.7-0.4-1-0.6c-0.3-0.2-0.5-0.5-0.6-0.9
				c-0.2-0.3-0.2-0.7-0.2-1.2c0-1,0.3-1.7,1-2.3c0.7-0.6,1.6-0.8,2.8-0.8c0.7,0,1.3,0.1,1.9,0.2c0.6,0.1,1,0.3,1.2,0.5l-0.5,1.3
				c-0.2-0.1-0.6-0.3-1-0.4c-0.4-0.1-1-0.2-1.6-0.2c-0.3,0-0.6,0-0.8,0.1c-0.3,0.1-0.5,0.2-0.7,0.3c-0.2,0.1-0.3,0.3-0.5,0.5
				c-0.1,0.2-0.2,0.4-0.2,0.7c0,0.3,0.1,0.6,0.2,0.8c0.1,0.2,0.3,0.4,0.5,0.5c0.2,0.2,0.5,0.3,0.8,0.4c0.3,0.1,0.6,0.3,0.9,0.4
				c0.5,0.2,0.9,0.4,1.3,0.6c0.4,0.2,0.8,0.4,1.1,0.7c0.3,0.3,0.5,0.6,0.7,1c0.2,0.4,0.2,0.8,0.2,1.4c0,1-0.4,1.7-1.1,2.3
				c-0.7,0.5-1.7,0.8-3,0.8c-0.4,0-0.9,0-1.2-0.1c-0.4-0.1-0.7-0.1-1-0.2c-0.3-0.1-0.5-0.2-0.8-0.3c-0.2-0.1-0.4-0.2-0.5-0.2
				l0.5-1.3c0.2,0.1,0.6,0.3,1.1,0.5C145.5,67,146.1,67.1,146.8,67.1z"/>
			<path class="st2" d="M160.1,64.2c0,0.6-0.1,1.2-0.3,1.8c-0.2,0.5-0.4,1-0.7,1.4c-0.3,0.4-0.7,0.7-1.2,0.9c-0.5,0.2-1,0.3-1.6,0.3
				c-0.5,0-0.9-0.1-1.3-0.2c-0.4-0.1-0.7-0.3-0.8-0.4v3.4h-1.5V60.3c0.4-0.1,0.8-0.2,1.3-0.3c0.5-0.1,1.2-0.2,1.9-0.2
				c0.6,0,1.2,0.1,1.7,0.3c0.5,0.2,1,0.5,1.3,0.9c0.4,0.4,0.7,0.8,0.9,1.4C160,62.9,160.1,63.6,160.1,64.2z M158.5,64.2
				c0-1-0.2-1.7-0.7-2.3c-0.5-0.5-1.1-0.8-1.9-0.8c-0.5,0-0.8,0-1.1,0c-0.3,0-0.5,0.1-0.6,0.1v5.3c0.2,0.2,0.4,0.3,0.8,0.4
				c0.3,0.1,0.7,0.2,1.1,0.2c0.4,0,0.8-0.1,1.1-0.2c0.3-0.2,0.6-0.4,0.8-0.6c0.2-0.3,0.3-0.6,0.4-1
				C158.4,65.1,158.5,64.7,158.5,64.2z"/>
			<path class="st2" d="M169.5,64c0,0.7-0.1,1.3-0.3,1.8c-0.2,0.5-0.5,1-0.8,1.4c-0.4,0.4-0.8,0.7-1.3,0.9c-0.5,0.2-1,0.3-1.6,0.3
				c-0.6,0-1.1-0.1-1.6-0.3c-0.5-0.2-0.9-0.5-1.3-0.9c-0.4-0.4-0.6-0.9-0.8-1.4c-0.2-0.5-0.3-1.1-0.3-1.8c0-0.7,0.1-1.3,0.3-1.8
				c0.2-0.5,0.5-1,0.8-1.4c0.4-0.4,0.8-0.7,1.3-0.9c0.5-0.2,1-0.3,1.6-0.3c0.6,0,1.1,0.1,1.6,0.3c0.5,0.2,0.9,0.5,1.3,0.9
				c0.4,0.4,0.6,0.9,0.8,1.4C169.4,62.8,169.5,63.4,169.5,64z M168,64c0-1-0.2-1.7-0.6-2.3c-0.4-0.6-1-0.8-1.7-0.8
				c-0.7,0-1.3,0.3-1.7,0.8c-0.4,0.6-0.6,1.3-0.6,2.3c0,1,0.2,1.7,0.6,2.3c0.4,0.6,1,0.8,1.7,0.8c0.7,0,1.3-0.3,1.7-0.8
				C167.8,65.7,168,65,168,64z"/>
			<path class="st2" d="M174.3,68.6c-0.9,0-1.6-0.2-2-0.6c-0.4-0.4-0.6-1-0.6-1.8v-3.3l-0.9,0.5l-0.5-1l1.4-0.7v-5.5l1.5-0.3v5
				l1.2-0.6l0.5,1l-1.7,0.9V66c0,0.2,0,0.5,0.1,0.6c0,0.2,0.1,0.3,0.2,0.4c0.1,0.1,0.2,0.2,0.4,0.2c0.2,0,0.4,0.1,0.6,0.1
				L174.3,68.6z"/>
			<path class="st2" d="M175.7,64c0-0.7,0.1-1.4,0.3-2c0.2-0.6,0.5-1,0.9-1.4c0.4-0.4,0.8-0.6,1.2-0.8c0.5-0.2,0.9-0.3,1.4-0.3
				c1.1,0,2,0.4,2.6,1.1c0.6,0.7,0.9,1.8,0.9,3.2c0,0.1,0,0.1,0,0.3c0,0.1,0,0.2,0,0.3h-5.8c0.1,0.9,0.3,1.5,0.8,2
				c0.4,0.5,1.1,0.7,2.1,0.7c0.5,0,1,0,1.3-0.1c0.4-0.1,0.6-0.2,0.8-0.3l0.2,1.3c-0.2,0.1-0.5,0.2-1,0.3c-0.5,0.1-1,0.2-1.6,0.2
				c-0.7,0-1.4-0.1-1.9-0.3c-0.5-0.2-1-0.5-1.3-0.9c-0.3-0.4-0.6-0.9-0.8-1.4C175.8,65.3,175.7,64.7,175.7,64z M181.5,63.2
				c0-0.7-0.2-1.2-0.5-1.7c-0.4-0.4-0.8-0.7-1.4-0.7c-0.3,0-0.7,0.1-0.9,0.2c-0.3,0.1-0.5,0.3-0.7,0.5c-0.2,0.2-0.3,0.5-0.4,0.7
				c-0.1,0.3-0.2,0.6-0.2,0.9H181.5z"/>
			<path class="st2" d="M188.8,68.5c-0.7,0-1.3-0.1-1.8-0.3c-0.5-0.2-0.9-0.5-1.3-0.9c-0.4-0.4-0.6-0.9-0.8-1.4
				c-0.2-0.5-0.3-1.1-0.3-1.8c0-0.6,0.1-1.2,0.3-1.8c0.2-0.5,0.5-1,0.8-1.4c0.3-0.4,0.8-0.7,1.3-0.9c0.5-0.2,1.1-0.3,1.7-0.3
				c0.4,0,0.8,0,1.1,0.1c0.4,0.1,0.7,0.2,1.1,0.3l-0.3,1.3c-0.2-0.1-0.5-0.2-0.8-0.3c-0.3-0.1-0.6-0.1-0.9-0.1
				c-0.8,0-1.5,0.3-1.9,0.8c-0.4,0.5-0.7,1.3-0.7,2.3c0,0.5,0.1,0.9,0.2,1.2c0.1,0.4,0.3,0.7,0.5,1c0.2,0.3,0.5,0.5,0.9,0.6
				c0.3,0.1,0.8,0.2,1.3,0.2c0.4,0,0.8,0,1.1-0.1c0.3-0.1,0.6-0.2,0.8-0.2L191,68c-0.1,0.1-0.2,0.1-0.4,0.2c-0.2,0-0.3,0.1-0.6,0.1
				c-0.2,0-0.4,0.1-0.7,0.1C189.2,68.4,189,68.5,188.8,68.5z"/>
			<path class="st2" d="M198.2,61.1c-0.2,0.2-0.5,0.6-0.9,1.1c-0.4,0.5-0.8,1-1.2,1.5c-0.4,0.6-0.9,1.1-1.3,1.7
				c-0.4,0.6-0.8,1.2-1.1,1.7h4.6v1.3h-6.4v-1c0.3-0.5,0.6-1,1-1.6c0.4-0.6,0.8-1.1,1.2-1.7c0.4-0.6,0.8-1.1,1.2-1.6
				c0.4-0.5,0.7-0.9,1-1.3h-4.2V60h6.1V61.1z"/>
			<path class="st2" d="M200.1,60.3c0.3-0.1,0.8-0.2,1.4-0.3c0.6-0.1,1.2-0.1,2-0.1c0.7,0,1.2,0.1,1.7,0.3c0.4,0.2,0.8,0.5,1.1,0.8
				c0.3,0.3,0.5,0.7,0.6,1.2c0.1,0.5,0.2,1,0.2,1.6v4.7h-1.5V64c0-0.5,0-1-0.1-1.3c-0.1-0.4-0.2-0.7-0.3-0.9
				c-0.2-0.2-0.4-0.4-0.6-0.5c-0.3-0.1-0.6-0.2-1-0.2c-0.2,0-0.3,0-0.5,0c-0.2,0-0.3,0-0.5,0c-0.2,0-0.3,0-0.4,0.1
				c-0.1,0-0.2,0-0.3,0v7.1h-1.5V60.3z"/>
			<path class="st2" d="M208.1,70c0.1,0.1,0.3,0.1,0.5,0.2c0.2,0,0.4,0.1,0.6,0.1c0.6,0,1.1-0.1,1.4-0.4c0.3-0.3,0.6-0.7,0.9-1.3
				c-0.7-1.3-1.3-2.7-1.9-4.1c-0.6-1.5-1.1-2.9-1.5-4.4h1.6c0.1,0.5,0.3,1,0.4,1.6c0.2,0.6,0.4,1.1,0.6,1.7c0.2,0.6,0.4,1.2,0.7,1.8
				c0.2,0.6,0.5,1.2,0.7,1.7c0.4-1.1,0.8-2.3,1.1-3.4c0.3-1.1,0.6-2.3,0.9-3.4h1.6c-0.4,1.6-0.8,3.1-1.3,4.6c-0.5,1.5-1,2.8-1.5,4.1
				c-0.2,0.5-0.4,0.9-0.7,1.3c-0.2,0.4-0.5,0.6-0.8,0.9c-0.3,0.2-0.6,0.4-0.9,0.5c-0.4,0.1-0.7,0.2-1.2,0.2c-0.1,0-0.2,0-0.4,0
				c-0.1,0-0.3,0-0.4-0.1c-0.1,0-0.2-0.1-0.3-0.1c-0.1,0-0.2-0.1-0.2-0.1L208.1,70z"/>
		</g>
	</g>
	<g>
		<g>
			<path class="st2" d="M44.3,45.8c-1.2,0-2.2-0.2-3-0.5c-0.8-0.3-1.5-0.8-2.1-1.4c-0.5-0.6-1-1.3-1.2-2.1c-0.3-0.8-0.4-1.7-0.4-2.7
				V28.4h3.1v10.3c0,0.8,0.1,1.4,0.3,2c0.2,0.5,0.4,1,0.7,1.3c0.3,0.3,0.7,0.6,1.1,0.8c0.4,0.2,0.9,0.2,1.5,0.2c0.5,0,1-0.1,1.5-0.2
				c0.4-0.2,0.8-0.4,1.1-0.8c0.3-0.3,0.6-0.8,0.7-1.3c0.2-0.5,0.3-1.2,0.3-2V28.4h3.1V39c0,1-0.1,1.9-0.4,2.7
				c-0.3,0.8-0.7,1.5-1.2,2.1c-0.5,0.6-1.2,1.1-2.1,1.4C46.5,45.6,45.5,45.8,44.3,45.8z"/>
			<path class="st2" d="M54.7,33.3c0.6-0.2,1.3-0.3,2.2-0.5s1.9-0.2,3-0.2c1,0,1.9,0.1,2.6,0.4c0.7,0.3,1.3,0.7,1.7,1.2
				c0.4,0.5,0.7,1.1,0.9,1.9c0.2,0.7,0.3,1.5,0.3,2.4v7.2h-3V39c0-0.7,0-1.3-0.1-1.8c-0.1-0.5-0.2-0.9-0.4-1.2
				c-0.2-0.3-0.5-0.5-0.8-0.7c-0.4-0.1-0.8-0.2-1.3-0.2c-0.4,0-0.8,0-1.2,0.1c-0.4,0-0.7,0.1-0.9,0.1v10.4h-3V33.3z"/>
			<path class="st2" d="M72.2,29.2c0,0.6-0.2,1-0.5,1.3c-0.4,0.3-0.8,0.5-1.3,0.5c-0.5,0-0.9-0.2-1.3-0.5c-0.4-0.3-0.5-0.8-0.5-1.3
				c0-0.6,0.2-1,0.5-1.4c0.4-0.3,0.8-0.5,1.3-0.5c0.5,0,0.9,0.2,1.3,0.5C72.1,28.1,72.2,28.6,72.2,29.2z M71.9,45.8h-3V32.9h3V45.8z
				"/>
			<path class="st2" d="M79.8,32.4c1,0,1.8,0.1,2.5,0.4c0.7,0.2,1.2,0.6,1.6,1c0.4,0.4,0.7,1,0.9,1.6c0.2,0.6,0.3,1.3,0.3,2.1v7.8
				c-0.5,0.1-1.1,0.2-2.1,0.4c-0.9,0.1-2,0.2-3.1,0.2c-0.8,0-1.5-0.1-2.1-0.2c-0.6-0.1-1.2-0.4-1.6-0.7c-0.5-0.3-0.8-0.8-1.1-1.3
				c-0.3-0.5-0.4-1.2-0.4-1.9c0-0.7,0.1-1.4,0.4-1.9c0.3-0.5,0.7-0.9,1.2-1.2c0.5-0.3,1.1-0.5,1.7-0.7c0.6-0.1,1.3-0.2,2-0.2
				c0.3,0,0.7,0,1,0.1c0.4,0,0.7,0.1,1.2,0.2v-0.5c0-0.3,0-0.7-0.1-1c-0.1-0.3-0.2-0.6-0.4-0.8c-0.2-0.2-0.5-0.4-0.8-0.6
				c-0.3-0.1-0.8-0.2-1.3-0.2c-0.7,0-1.3,0-1.9,0.1c-0.6,0.1-1,0.2-1.4,0.3L75.9,33c0.4-0.1,0.9-0.3,1.6-0.4
				C78.2,32.4,79,32.4,79.8,32.4z M80.1,43.4c0.9,0,1.6,0,2.1-0.1V40c-0.2,0-0.4-0.1-0.7-0.1c-0.3,0-0.7-0.1-1-0.1
				c-0.3,0-0.7,0-1,0.1c-0.3,0-0.6,0.1-0.9,0.3c-0.3,0.1-0.5,0.3-0.7,0.6c-0.2,0.2-0.2,0.5-0.2,0.9c0,0.7,0.2,1.2,0.7,1.5
				C78.7,43.3,79.3,43.4,80.1,43.4z"/>
			<path class="st2" d="M94.2,45.8v-17h10.9v2.6h-7.8v4.2h7v2.6h-7v5h8.4v2.6H94.2z"/>
			<path class="st2" d="M118.4,45.1c-0.6,0.1-1.3,0.3-2.2,0.5c-0.9,0.2-1.9,0.2-3,0.2c-1,0-1.9-0.1-2.6-0.4
				c-0.7-0.3-1.3-0.7-1.7-1.2c-0.4-0.5-0.7-1.1-0.9-1.9c-0.2-0.7-0.3-1.5-0.3-2.4v-7.2h3v6.7c0,1.4,0.2,2.4,0.6,2.9
				c0.4,0.6,1.1,0.9,2.1,0.9c0.4,0,0.7,0,1.1,0c0.4,0,0.7-0.1,0.9-0.1V32.7h3V45.1z"/>
			<path class="st2" d="M129.4,35.6c-0.2-0.1-0.6-0.2-1-0.3c-0.4-0.1-0.9-0.1-1.5-0.1c-0.3,0-0.7,0-1,0.1c-0.4,0.1-0.6,0.1-0.8,0.2
				v10.3h-3V33.5c0.6-0.2,1.3-0.4,2.1-0.6c0.9-0.2,1.8-0.3,2.9-0.3c0.2,0,0.4,0,0.7,0c0.3,0,0.5,0.1,0.8,0.1c0.3,0,0.5,0.1,0.8,0.1
				c0.2,0.1,0.4,0.1,0.6,0.2L129.4,35.6z"/>
			<path class="st2" d="M143.4,39c0,1-0.1,1.9-0.4,2.8c-0.3,0.8-0.7,1.5-1.3,2.1c-0.5,0.6-1.2,1-2,1.4c-0.8,0.3-1.6,0.5-2.5,0.5
				s-1.8-0.2-2.5-0.5c-0.8-0.3-1.4-0.8-1.9-1.4c-0.5-0.6-1-1.3-1.3-2.1c-0.3-0.8-0.5-1.8-0.5-2.8c0-1,0.2-1.9,0.5-2.8
				c0.3-0.8,0.7-1.5,1.3-2.1c0.5-0.6,1.2-1,2-1.4c0.8-0.3,1.6-0.5,2.5-0.5c0.9,0,1.7,0.2,2.5,0.5c0.8,0.3,1.4,0.8,2,1.4
				c0.5,0.6,1,1.3,1.3,2.1C143.3,37.1,143.4,38,143.4,39z M140.4,39c0-1.3-0.3-2.3-0.8-3c-0.5-0.7-1.3-1.1-2.3-1.1s-1.7,0.4-2.3,1.1
				c-0.5,0.7-0.8,1.8-0.8,3c0,1.3,0.3,2.3,0.8,3.1c0.5,0.8,1.3,1.1,2.3,1.1s1.7-0.4,2.3-1.1C140.1,41.3,140.4,40.3,140.4,39z"/>
			<path class="st2" d="M157.9,39.4c0,1-0.1,1.9-0.4,2.7c-0.3,0.8-0.6,1.5-1.1,2.1c-0.5,0.6-1.1,1-1.8,1.4c-0.7,0.3-1.5,0.5-2.4,0.5
				c-0.6,0-1.2-0.1-1.7-0.2c-0.5-0.1-0.9-0.3-1.3-0.5v5h-3v-17c0.6-0.2,1.4-0.3,2.2-0.5c0.9-0.1,1.8-0.2,2.8-0.2
				c1,0,1.9,0.2,2.7,0.5c0.8,0.3,1.5,0.8,2,1.3c0.6,0.6,1,1.3,1.3,2.1C157.8,37.4,157.9,38.3,157.9,39.4z M154.9,39.4
				c0-1.3-0.3-2.4-0.9-3.1c-0.6-0.7-1.6-1.1-2.9-1.1c-0.3,0-0.6,0-0.9,0c-0.3,0-0.6,0.1-0.9,0.2v7.3c0.3,0.2,0.6,0.3,1,0.5
				c0.4,0.2,0.9,0.2,1.4,0.2c1.1,0,1.9-0.4,2.4-1.1C154.6,41.6,154.9,40.7,154.9,39.4z"/>
			<path class="st2" d="M160.1,39.1c0-1.1,0.2-2.1,0.5-3c0.3-0.9,0.8-1.6,1.3-2.1c0.6-0.6,1.2-1,1.9-1.3c0.7-0.3,1.5-0.4,2.2-0.4
				c1.8,0,3.1,0.5,4.1,1.6c1,1.1,1.5,2.7,1.5,4.9c0,0.2,0,0.3,0,0.6c0,0.2,0,0.4,0,0.6h-8.5c0.1,1,0.4,1.8,1.1,2.4
				c0.6,0.6,1.6,0.8,2.8,0.8c0.7,0,1.4-0.1,2-0.2c0.6-0.1,1.1-0.3,1.4-0.4l0.4,2.4c-0.2,0.1-0.4,0.2-0.7,0.3c-0.3,0.1-0.6,0.2-1,0.2
				c-0.4,0.1-0.8,0.1-1.2,0.2c-0.4,0-0.9,0.1-1.3,0.1c-1.1,0-2.1-0.2-2.9-0.5c-0.8-0.3-1.5-0.8-2.1-1.4c-0.5-0.6-0.9-1.3-1.2-2.1
				C160.3,41,160.1,40.1,160.1,39.1z M168.7,37.8c0-0.4-0.1-0.8-0.2-1.2c-0.1-0.4-0.3-0.7-0.5-1c-0.2-0.3-0.5-0.5-0.8-0.6
				c-0.3-0.2-0.7-0.2-1.1-0.2c-0.5,0-0.9,0.1-1.2,0.3c-0.3,0.2-0.6,0.4-0.9,0.7c-0.2,0.3-0.4,0.6-0.6,1c-0.1,0.4-0.2,0.7-0.3,1.1
				H168.7z"/>
			<path class="st2" d="M173.1,50.3c-0.2,0-0.5,0-0.9-0.1c-0.4,0-0.7-0.1-1-0.2l0.4-2.4c0.4,0.1,0.8,0.2,1.3,0.2
				c0.7,0,1.2-0.2,1.4-0.6c0.3-0.4,0.4-1,0.4-1.8V32.9h3v12.5c0,1.7-0.4,2.9-1.2,3.7C175.7,49.9,174.5,50.3,173.1,50.3z M178,29.2
				c0,0.6-0.2,1-0.5,1.3c-0.4,0.3-0.8,0.5-1.3,0.5c-0.5,0-0.9-0.2-1.3-0.5c-0.4-0.3-0.5-0.8-0.5-1.3c0-0.6,0.2-1,0.5-1.4
				c0.4-0.3,0.8-0.5,1.3-0.5c0.5,0,0.9,0.2,1.3,0.5C177.8,28.1,178,28.6,178,29.2z"/>
			<path class="st2" d="M184.5,43.3c0.8,0,1.4-0.1,1.7-0.3c0.4-0.2,0.5-0.5,0.5-1c0-0.4-0.2-0.8-0.6-1.1c-0.4-0.3-1-0.6-1.9-0.9
				c-0.5-0.2-1-0.4-1.5-0.6c-0.5-0.2-0.8-0.5-1.2-0.8c-0.3-0.3-0.6-0.7-0.8-1.1c-0.2-0.4-0.3-0.9-0.3-1.5c0-1.2,0.4-2.1,1.3-2.8
				c0.9-0.7,2-1,3.5-1c0.8,0,1.5,0.1,2.2,0.2c0.7,0.1,1.2,0.3,1.5,0.4l-0.5,2.4c-0.3-0.1-0.7-0.3-1.3-0.4c-0.5-0.1-1.1-0.2-1.8-0.2
				c-0.6,0-1.1,0.1-1.5,0.3c-0.4,0.2-0.6,0.5-0.6,0.9c0,0.2,0,0.4,0.1,0.6c0.1,0.2,0.2,0.3,0.4,0.5c0.2,0.1,0.4,0.3,0.7,0.4
				c0.3,0.1,0.7,0.3,1.1,0.4c0.7,0.3,1.3,0.5,1.8,0.8c0.5,0.3,0.9,0.5,1.2,0.9c0.3,0.3,0.6,0.7,0.7,1.1c0.1,0.4,0.2,0.9,0.2,1.5
				c0,1.2-0.5,2.2-1.4,2.8c-0.9,0.6-2.2,0.9-3.9,0.9c-1.1,0-2-0.1-2.7-0.3c-0.7-0.2-1.2-0.3-1.4-0.5l0.5-2.5c0.4,0.2,1,0.4,1.6,0.5
				C183,43.3,183.7,43.3,184.5,43.3z"/>
			<path class="st2" d="M195.3,37.9c0.4-0.4,0.8-0.8,1.2-1.3c0.4-0.4,0.8-0.9,1.3-1.4c0.4-0.4,0.8-0.9,1.2-1.3
				c0.4-0.4,0.7-0.8,0.9-1.1h3.5c-0.8,0.9-1.7,1.9-2.6,2.8c-0.9,1-1.8,1.9-2.7,2.9c0.5,0.4,1,0.9,1.5,1.5c0.5,0.6,1.1,1.2,1.6,1.9
				c0.5,0.7,1,1.3,1.4,2c0.4,0.7,0.8,1.3,1.1,1.8h-3.4c-0.3-0.5-0.6-1-1-1.6c-0.4-0.6-0.8-1.1-1.2-1.6c-0.4-0.5-0.9-1-1.4-1.5
				c-0.5-0.5-0.9-0.9-1.4-1.2v5.9h-3V29.2l3-0.5V37.9z"/>
			<path class="st2" d="M210,32.4c1,0,1.8,0.1,2.5,0.4c0.7,0.2,1.2,0.6,1.6,1c0.4,0.4,0.7,1,0.9,1.6c0.2,0.6,0.3,1.3,0.3,2.1v7.8
				c-0.5,0.1-1.1,0.2-2.1,0.4c-0.9,0.1-2,0.2-3.1,0.2c-0.8,0-1.5-0.1-2.1-0.2c-0.6-0.1-1.2-0.4-1.6-0.7c-0.5-0.3-0.8-0.8-1.1-1.3
				c-0.3-0.5-0.4-1.2-0.4-1.9c0-0.7,0.1-1.4,0.4-1.9c0.3-0.5,0.7-0.9,1.2-1.2c0.5-0.3,1.1-0.5,1.7-0.7c0.6-0.1,1.3-0.2,2-0.2
				c0.3,0,0.7,0,1,0.1c0.4,0,0.7,0.1,1.2,0.2v-0.5c0-0.3,0-0.7-0.1-1c-0.1-0.3-0.2-0.6-0.4-0.8c-0.2-0.2-0.5-0.4-0.8-0.6
				c-0.3-0.1-0.8-0.2-1.3-0.2c-0.7,0-1.3,0-1.9,0.1c-0.6,0.1-1,0.2-1.4,0.3l-0.4-2.4c0.4-0.1,0.9-0.3,1.6-0.4
				C208.4,32.4,209.2,32.4,210,32.4z M210.3,43.4c0.9,0,1.6,0,2.1-0.1V40c-0.2,0-0.4-0.1-0.7-0.1c-0.3,0-0.7-0.1-1-0.1
				c-0.3,0-0.7,0-1,0.1c-0.3,0-0.6,0.1-0.9,0.3c-0.3,0.1-0.5,0.3-0.7,0.6c-0.2,0.2-0.2,0.5-0.2,0.9c0,0.7,0.2,1.2,0.7,1.5
				C208.9,43.3,209.5,43.4,210.3,43.4z"/>
		</g>
	</g>
</g>
</svg>
