<?xml version="1.0" encoding="UTF-8" standalone="no"?>
<!-- Generator: Adobe Illustrator 28.0.0, SVG Export Plug-In . SVG Version: 6.00 Build 0)  -->

<svg
   version="1.1"
   id="Warstwa_1"
   x="0px"
   y="0px"
   viewBox="0 0 204.3 68.999999"
   xml:space="preserve"
   sodipodi:docname="logo-ckc.svg"
   width="204.3"
   height="69"
   inkscape:version="1.3 (0e150ed6c4, 2023-07-21)"
   xmlns:inkscape="http://www.inkscape.org/namespaces/inkscape"
   xmlns:sodipodi="http://sodipodi.sourceforge.net/DTD/sodipodi-0.dtd"
   xmlns="http://www.w3.org/2000/svg"
   xmlns:svg="http://www.w3.org/2000/svg"><defs
   id="defs44" /><sodipodi:namedview
   id="namedview44"
   pagecolor="#505050"
   bordercolor="#eeeeee"
   borderopacity="1"
   inkscape:showpageshadow="0"
   inkscape:pageopacity="0"
   inkscape:pagecheckerboard="0"
   inkscape:deskcolor="#505050"
   showgrid="false"
   inkscape:zoom="2.681269"
   inkscape:cx="168.39041"
   inkscape:cy="72.913236"
   inkscape:window-width="1920"
   inkscape:window-height="1027"
   inkscape:window-x="-8"
   inkscape:window-y="-8"
   inkscape:window-maximized="1"
   inkscape:current-layer="Warstwa_1" />&#10;<style
   type="text/css"
   id="style1">&#10;	.st0{fill:#002E5A;}&#10;</style>&#10;<g
   id="g44"
   transform="translate(-77.1,-14.100001)">&#10;	<g
   id="g43">&#10;		<g
   id="g14">&#10;			<g
   id="g13">&#10;				<path
   class="st0"
   d="m 139,57.5 v 0 c 0,-2.5 1.9,-4.5 4.5,-4.5 1.8,0 2.9,0.7 3.7,1.8 l -1.8,1.4 c -0.5,-0.6 -1.1,-1 -1.9,-1 -1.2,0 -2.1,1 -2.1,2.3 v 0 c 0,1.3 0.9,2.3 2.1,2.3 0.9,0 1.4,-0.4 2,-1.1 l 1.8,1.3 c -0.8,1.1 -1.9,2 -3.8,2 -2.5,0 -4.5,-1.9 -4.5,-4.5 z"
   id="path1" />&#10;				<path
   class="st0"
   d="m 77.1,36.8 v 0 c 0,-2.5 1.9,-4.5 4.5,-4.5 1.8,0 2.9,0.7 3.7,1.8 l -1.8,1.4 c -0.5,-0.6 -1.1,-1 -1.9,-1 -1.2,0 -2.1,1 -2.1,2.3 v 0 c 0,1.3 0.9,2.3 2.1,2.3 0.9,0 1.4,-0.4 2,-1.1 l 1.8,1.3 c -0.8,1.1 -1.9,2 -3.8,2 -2.5,0 -4.5,-1.9 -4.5,-4.5 z"
   id="path2" />&#10;				<path
   class="st0"
   d="m 139.1,32.5 h 2.4 V 36 l 3,-3.5 h 2.8 l -3.3,3.7 3.4,4.9 h -2.9 l -2.2,-3.2 -0.9,1 v 2.2 H 139 v -8.6 z"
   id="path3" />&#10;				<path
   class="st0"
   d="m 77.2,78.5 v -4.9 h 2.4 v 4.8 c 0,1.2 0.6,1.8 1.6,1.8 1,0 1.6,-0.6 1.6,-1.8 v -4.9 h 2.4 v 4.8 c 0,2.8 -1.6,4 -4.1,4 -2.4,0.2 -3.9,-1 -3.9,-3.8 z"
   id="path4" />&#10;				<path
   class="st0"
   d="m 95.1,73.7 h 2.5 l 1.5,5 1.7,-5 h 2.1 l 1.7,5 1.5,-5 h 2.5 l -2.9,8.7 h -2.1 l -1.7,-5 -1.7,5 H 98 Z"
   id="path5" />&#10;				<circle
   class="st0"
   cx="81.199997"
   cy="57.5"
   r="2.0999999"
   id="circle5" />&#10;				<circle
   class="st0"
   cx="101.9"
   cy="57.5"
   r="2.0999999"
   id="circle6" />&#10;				<circle
   class="st0"
   cx="122.5"
   cy="57.5"
   r="2.0999999"
   id="circle7" />&#10;				<circle
   class="st0"
   cx="101.9"
   cy="16.200001"
   r="2.0999999"
   id="circle8" />&#10;				<circle
   class="st0"
   cx="81.199997"
   cy="16.200001"
   r="2.0999999"
   id="circle9" />&#10;				<circle
   class="st0"
   cx="143.10001"
   cy="16.200001"
   r="2.0999999"
   id="circle10" />&#10;				<circle
   class="st0"
   cx="122.5"
   cy="16.200001"
   r="2.0999999"
   id="circle11" />&#10;				<circle
   class="st0"
   cx="122.5"
   cy="78.099998"
   r="2.0999999"
   id="circle12" />&#10;				<circle
   class="st0"
   cx="143.10001"
   cy="78.099998"
   r="2.0999999"
   id="circle13" />&#10;				<path
   class="st0"
   d="m 122.5,38.9 h -20.6 c -1.1,0 -2.1,-0.9 -2.1,-2.1 v 0 c 0,-1.1 0.9,-2.1 2.1,-2.1 h 20.6 c 1.1,0 2.1,0.9 2.1,2.1 v 0 c 0,1.2 -1,2.1 -2.1,2.1 z"
   id="path13" />&#10;			</g>&#10;		</g>&#10;		<g
   id="g42">&#10;			<path
   class="st0"
   d="m 167.1,36.8 v 0 c 0,-2.5 1.9,-4.5 4.5,-4.5 1.6,0 2.6,0.5 3.4,1.3 l -1.2,1.4 c -0.7,-0.6 -1.3,-1 -2.2,-1 -1.5,0 -2.5,1.2 -2.5,2.7 v 0 c 0,1.5 1,2.7 2.5,2.7 1,0 1.6,-0.4 2.3,-1 l 1.2,1.2 c -0.9,1 -1.9,1.5 -3.5,1.5 -2.6,0.2 -4.5,-1.8 -4.5,-4.3 z"
   id="path14" />&#10;			<path
   class="st0"
   d="m 176.9,32.5 h 6.5 v 1.7 h -4.6 V 36 h 4.1 v 1.7 h -4.1 v 1.8 h 4.7 v 1.7 h -6.6 z"
   id="path15" />&#10;			<path
   class="st0"
   d="m 185.5,32.5 h 1.8 l 4.1,5.3 v -5.3 h 1.9 v 8.7 h -1.6 l -4.2,-5.5 v 5.5 h -1.9 v -8.7 z"
   id="path16" />&#10;			<path
   class="st0"
   d="M 197.6,34.2 H 195 v -1.8 h 7.2 v 1.8 h -2.6 v 6.9 h -1.9 v -6.9 z"
   id="path17" />&#10;			<path
   class="st0"
   d="m 203.9,32.5 h 4 c 1.1,0 2,0.3 2.5,0.9 0.5,0.5 0.7,1.2 0.7,2 v 0 c 0,1.4 -0.8,2.3 -1.9,2.7 l 2.1,3.1 h -2.2 l -1.9,-2.8 h -1.5 v 2.8 h -1.9 v -8.7 z m 3.8,4.2 c 0.9,0 1.5,-0.5 1.5,-1.2 v 0 c 0,-0.8 -0.6,-1.2 -1.5,-1.2 h -1.9 v 2.5 h 1.9 z"
   id="path18" />&#10;			<path
   class="st0"
   d="m 213,37.4 v -4.9 h 1.9 v 4.9 c 0,1.4 0.7,2.1 1.9,2.1 1.2,0 1.9,-0.7 1.9,-2.1 v -5 h 1.9 v 4.9 c 0,2.6 -1.5,3.9 -3.8,3.9 -2.4,0.1 -3.8,-1.2 -3.8,-3.8 z"
   id="path19" />&#10;			<path
   class="st0"
   d="m 222.7,32.5 h 2.1 l 2.3,3.7 2.3,-3.7 h 2.1 v 8.7 h -1.9 v -5.6 l -2.4,3.7 v 0 l -2.4,-3.7 v 5.6 h -1.9 v -8.7 z"
   id="path20" />&#10;			<path
   class="st0"
   d="m 167.4,53.3 h 1.9 v 3.8 l 3.5,-3.8 h 2.3 l -3.5,3.7 3.7,5 H 173 l -2.7,-3.7 -1,1 V 62 h -1.9 z"
   id="path21" />&#10;			<path
   class="st0"
   d="m 175.7,57.7 v 0 c 0,-2.5 1.9,-4.5 4.6,-4.5 2.7,0 4.6,2 4.6,4.4 v 0 c 0,2.5 -1.9,4.5 -4.6,4.5 -2.7,0 -4.6,-1.9 -4.6,-4.4 z m 7.2,0 v 0 c 0,-1.5 -1.1,-2.7 -2.6,-2.7 -1.5,0 -2.6,1.2 -2.6,2.7 v 0 c 0,1.5 1.1,2.7 2.6,2.7 1.6,0 2.6,-1.2 2.6,-2.7 z"
   id="path22" />&#10;			<path
   class="st0"
   d="m 186.9,53.3 h 2.1 l 2.3,3.7 2.3,-3.7 h 2.1 V 62 h -1.9 v -5.6 l -2.4,3.7 v 0 L 189,56.4 V 62 h -1.9 v -8.7 z"
   id="path23" />&#10;			<path
   class="st0"
   d="m 197.9,53.3 h 3.5 c 2.1,0 3.3,1.2 3.3,3 v 0 c 0,2 -1.6,3 -3.5,3 h -1.4 V 62 h -1.9 z m 3.5,4.4 c 1,0 1.5,-0.6 1.5,-1.3 v 0 c 0,-0.9 -0.6,-1.3 -1.5,-1.3 h -1.5 v 2.6 z"
   id="path24" />&#10;			<path
   class="st0"
   d="M 206.5,53.3 H 213 V 55 h -4.6 v 1.8 h 4.1 v 1.7 h -4.1 v 1.8 h 4.7 V 62 h -6.6 z"
   id="path25" />&#10;			<path
   class="st0"
   d="m 217.1,55.1 h -2.6 v -1.8 h 7.2 v 1.8 H 219 V 62 h -1.9 z"
   id="path26" />&#10;			<path
   class="st0"
   d="m 223.4,53.3 h 6.5 V 55 h -4.6 v 1.8 h 4.1 v 1.7 h -4.1 v 1.8 H 230 V 62 h -6.6 z"
   id="path27" />&#10;			<path
   class="st0"
   d="m 232,53.3 h 1.8 l 4.1,5.3 v -5.3 h 1.9 V 62 h -1.6 L 234,56.5 V 62 h -2 z"
   id="path28" />&#10;			<path
   class="st0"
   d="m 241.7,57.7 v 0 c 0,-2.5 1.9,-4.5 4.5,-4.5 1.6,0 2.6,0.5 3.4,1.3 l -1.2,1.4 c -0.7,-0.6 -1.3,-1 -2.2,-1 -1.5,0 -2.5,1.2 -2.5,2.7 v 0 c 0,1.5 1,2.7 2.5,2.7 1,0 1.6,-0.4 2.3,-1 l 1.2,1.2 c -0.9,1 -1.9,1.5 -3.5,1.5 -2.6,0.1 -4.5,-1.8 -4.5,-4.3 z"
   id="path29" />&#10;			<path
   class="st0"
   d="m 250.5,60.8 1.2,-1.3 c 0.5,0.5 1,0.9 1.6,0.9 0.7,0 1.2,-0.4 1.2,-1.4 v -5.6 h 2 V 59 c 0,1 -0.3,1.8 -0.8,2.3 -0.5,0.5 -1.3,0.8 -2.2,0.8 -1.5,0 -2.4,-0.6 -3,-1.3 z"
   id="path30" />&#10;			<path
   class="st0"
   d="m 258.7,53.3 h 1.9 V 62 h -1.9 z"
   id="path31" />&#10;			<path
   class="st0"
   d="m 167.1,78.6 v 0 c 0,-2.5 1.9,-4.5 4.5,-4.5 1.6,0 2.6,0.5 3.4,1.3 l -1.2,1.4 c -0.7,-0.6 -1.3,-1 -2.2,-1 -1.5,0 -2.5,1.2 -2.5,2.7 v 0 c 0,1.5 1,2.7 2.5,2.7 1,0 1.6,-0.4 2.3,-1 l 1.2,1.2 c -0.9,1 -1.9,1.5 -3.5,1.5 -2.6,0.1 -4.5,-1.9 -4.5,-4.3 z"
   id="path32" />&#10;			<path
   class="st0"
   d="m 179.2,79.4 -3.3,-5.2 h 2.2 l 2.1,3.5 2.1,-3.5 h 2.2 l -3.3,5.2 v 3.4 h -1.9 v -3.4 z"
   id="path33" />&#10;			<path
   class="st0"
   d="m 185.9,74.2 h 6.6 v 1.7 h -4.7 v 1.8 h 4.1 v 1.7 h -4.1 v 3.3 h -1.9 z"
   id="path34" />&#10;			<path
   class="st0"
   d="m 194.3,74.2 h 4 c 1.1,0 2,0.3 2.5,0.9 0.5,0.5 0.7,1.2 0.7,2 v 0 c 0,1.4 -0.8,2.3 -1.9,2.7 l 2.1,3.1 h -2.2 l -1.9,-2.8 h -1.5 v 2.8 h -1.9 v -8.7 z m 3.9,4.2 c 0.9,0 1.5,-0.5 1.5,-1.2 v 0 c 0,-0.8 -0.6,-1.2 -1.5,-1.2 h -1.9 v 2.5 h 1.9 z"
   id="path35" />&#10;			<path
   class="st0"
   d="m 203.2,78.6 v 0 c 0,-2.5 1.9,-4.5 4.6,-4.5 2.7,0 4.6,2 4.6,4.5 v 0 c 0,2.5 -1.9,4.5 -4.6,4.5 -2.7,-0.1 -4.6,-2.1 -4.6,-4.5 z m 7.2,0 v 0 c 0,-1.5 -1.1,-2.7 -2.6,-2.7 -1.5,0 -2.6,1.2 -2.6,2.7 v 0 c 0,1.5 1.1,2.7 2.6,2.7 1.5,-0.1 2.6,-1.3 2.6,-2.7 z"
   id="path36" />&#10;			<path
   class="st0"
   d="m 213.2,74.2 h 2 l 1.8,5.9 1.9,-5.9 h 1.6 l 1.9,5.9 1.8,-5.9 h 2 l -3,8.7 h -1.7 l -2,-5.7 -2,5.7 h -1.7 z"
   id="path37" />&#10;			<path
   class="st0"
   d="M 230.3,79.4 227,74.2 h 2.2 l 2.1,3.5 2.1,-3.5 h 2.2 l -3.3,5.2 v 3.4 h -1.9 v -3.4 z"
   id="path38" />&#10;			<path
   class="st0"
   d="m 235.8,78.6 v 0 c 0,-2.5 1.9,-4.5 4.5,-4.5 1.6,0 2.6,0.5 3.4,1.3 l -1.2,1.4 c -0.7,-0.6 -1.3,-1 -2.2,-1 -1.5,0 -2.5,1.2 -2.5,2.7 v 0 c 0,1.5 1,2.7 2.5,2.7 1,0 1.6,-0.4 2.3,-1 l 1.2,1.2 c -0.9,1 -1.9,1.5 -3.5,1.5 -2.6,0.1 -4.5,-1.9 -4.5,-4.3 z"
   id="path39" />&#10;			<path
   class="st0"
   d="m 245.7,74.2 h 1.9 v 3.4 h 3.5 v -3.4 h 1.9 v 8.7 h -1.9 v -3.5 h -3.5 v 3.5 h -1.9 z"
   id="path40" />&#10;			<path
   class="st0"
   d="m 259.2,79.1 v -4.9 h 1.9 v 4.9 c 0,1.4 0.7,2.1 1.9,2.1 1.2,0 1.9,-0.7 1.9,-2.1 v -5 h 1.9 V 79 c 0,2.6 -1.5,3.9 -3.8,3.9 -2.3,0.1 -3.8,-1.2 -3.8,-3.8 z"
   id="path41" />&#10;			<path
   class="st0"
   d="m 268.4,74.2 h 2 l 1.8,5.9 1.9,-5.9 h 1.6 l 1.9,5.9 1.8,-5.9 h 2 l -3,8.7 h -1.7 l -2,-5.7 -2,5.7 H 271 Z"
   id="path42" />&#10;		</g>&#10;	</g>&#10;</g>&#10;</svg>
