<?xml version="1.0" encoding="utf-8"?>
<!-- Generator: Adobe Illustrator 28.0.0, SVG Export Plug-In . SVG Version: 6.00 Build 0)  -->
<svg version="1.1" id="Warstwa_1" xmlns="http://www.w3.org/2000/svg" xmlns:xlink="http://www.w3.org/1999/xlink" x="0px" y="0px"
	 viewBox="0 0 166 58.7" style="enable-background:new 0 0 166 58.7;" xml:space="preserve">
<style type="text/css">
	.st0{fill:#F08883;}
	.st1{fill:#18375F;}
</style>
<g>
	<g>
		<path class="st0" d="M26.5,0.5C12.6,0.5,1.3,11.7,1.3,25.7v32.7c4.1-3.7,8.1-7.4,12.2-11.1c3.8,2.3,8.3,3.6,13,3.6
			c13.9,0,25.2-11.3,25.2-25.2S40.4,0.5,26.5,0.5z M33,18.8c-2.7-2.6-8.6-3-12.1,0.5c-2.6,2.6-3.4,6.9-1.8,10.2
			c2,4.2,6.7,4.8,6.9,4.8c3.4,0.4,6.8-1.1,8.8-4c0.5-0.7,1.5-0.9,2.2-0.4c0.7,0.5,0.9,1.5,0.4,2.2c-2.4,3.4-6.3,5.4-10.3,5.4
			c-0.5,0-1,0-1.5-0.1c-0.7-0.1-6.6-1-9.4-6.6C14,26.3,15,20.6,18.7,17c4.4-4.4,12.3-4.6,16.5-0.5c1.5,1.4,3.6,4.6,2.5,7.5
			c-1.5,3.7-7.8,5-15.3,3c-0.8-0.2-1.3-1.1-1.1-1.9c0.2-0.8,1.1-1.3,1.9-1.1c6.5,1.7,10.9,0.4,11.5-1.1C35.1,21.8,34.1,19.9,33,18.8
			z"/>
	</g>
	<g>
		<path class="st1" d="M62.3,18H69v1.8h-4.8v2.8h4.1v1.7h-4.1v3.3h4.9v1.8h-6.9V18z"/>
		<path class="st1" d="M70.6,24.2h3.8v1.6h-3.8V24.2z"/>
		<path class="st1" d="M76.3,18h3.1c1.2,0,2.4,0.1,3.3,0.6c1,0.5,1.7,1.5,1.7,2.9c0,1.3-0.6,2.3-1.6,2.9c-0.9,0.5-2.1,0.7-3.7,0.7
			h-1v4.2h-2V18z M79.4,23.4c1.2,0,1.8,0,2.3-0.4c0.5-0.3,0.8-0.8,0.8-1.5c0-0.7-0.3-1.2-0.9-1.5c-0.6-0.3-1.3-0.3-2.2-0.3h-1.1v3.6
			H79.4z"/>
		<path class="st1" d="M85.6,23.7c0-3.3,2.5-5.8,5.8-5.8s5.8,2.5,5.8,5.8c0,3.3-2.5,5.8-5.8,5.8S85.6,26.9,85.6,23.7z M95.2,23.7
			c0-2.2-1.6-4-3.8-4c-2.2,0-3.8,1.8-3.8,4c0,2.2,1.6,4,3.8,4C93.6,27.7,95.2,25.9,95.2,23.7z"/>
		<path class="st1" d="M98.9,18h3.3c1.2,0,2.3,0.1,3.2,0.6c0.9,0.5,1.6,1.4,1.6,2.7c0,1.5-0.9,2.7-2.5,3.1l3.4,4.9h-2.3l-3.1-4.7
			h-1.5v4.7h-2V18z M102.5,23.1c0.9,0,1.5-0.1,2-0.5c0.4-0.3,0.6-0.7,0.6-1.2c0-0.7-0.3-1.1-0.8-1.4s-1.1-0.3-2.1-0.3h-1.2v3.3
			H102.5z"/>
		<path class="st1" d="M111.9,19.8h-3.7V18h9.4v1.8h-3.7v9.5h-2V19.8z"/>
		<path class="st1" d="M119,18h6.9v1.8H121v3h4.3v1.7H121v4.8h-2V18z"/>
		<path class="st1" d="M127.2,23.7c0-3.3,2.5-5.8,5.8-5.8s5.8,2.5,5.8,5.8c0,3.3-2.5,5.8-5.8,5.8S127.2,26.9,127.2,23.7z
			 M136.8,23.7c0-2.2-1.6-4-3.8-4c-2.2,0-3.8,1.8-3.8,4c0,2.2,1.6,4,3.8,4C135.2,27.7,136.8,25.9,136.8,23.7z"/>
		<path class="st1" d="M140.5,18h2v9.5h5.1v1.8h-7.1V18z"/>
		<path class="st1" d="M149.1,18h2v11.3h-2V18z"/>
		<path class="st1" d="M152.8,23.7c0-3.3,2.5-5.8,5.8-5.8c3.3,0,5.8,2.5,5.8,5.8c0,3.3-2.5,5.8-5.8,5.8
			C155.3,29.5,152.8,26.9,152.8,23.7z M162.5,23.7c0-2.2-1.6-4-3.8-4c-2.2,0-3.8,1.8-3.8,4c0,2.2,1.6,4,3.8,4
			C160.8,27.7,162.5,25.9,162.5,23.7z"/>
	</g>
	<g>
		<path class="st1" d="M103.5,40.1v-7.5h2c1.1,0,1.7,0.2,2.2,0.6c0.5,0.4,0.7,0.9,0.7,1.5c0,0.7-0.3,1.2-0.7,1.5
			c-0.4,0.4-1,0.6-2.2,0.6h-1.7v3.3H103.5z M105.5,36.5c1.1,0,1.6-0.2,2-0.5c0.4-0.3,0.6-0.8,0.6-1.4c0-0.6-0.2-1-0.6-1.4
			c-0.4-0.3-0.9-0.5-2-0.5h-1.7v3.7H105.5z"/>
		<path class="st1" d="M109.9,32.6h2c1,0,1.6,0.2,2,0.5c0.4,0.3,0.7,0.8,0.7,1.5c0,0.6-0.2,1-0.6,1.4c-0.4,0.4-1,0.5-1.6,0.6
			l2.6,3.6h-0.3l-2.6-3.5h-2v3.5h-0.2V32.6z M112,36.3c0.9,0,1.4-0.2,1.8-0.5c0.3-0.3,0.5-0.7,0.5-1.2c0-0.6-0.2-1-0.6-1.3
			c-0.4-0.3-0.9-0.5-1.9-0.5h-1.7v3.5H112z"/>
		<path class="st1" d="M118.7,32.6h0.2l3.2,7.5h-0.3l-1-2.4h-4l-1,2.4h-0.3L118.7,32.6z M116.9,37.4h3.8l-1.9-4.5h0L116.9,37.4z"/>
		<path class="st1" d="M126.5,32.4c0.7,0,1.3,0.2,1.9,0.4v0.3c-0.5-0.3-1.2-0.5-1.9-0.5c-2.2,0-3.7,1.6-3.7,3.6c0,2,1.4,3.6,3.7,3.6
			c0.7,0,1.5-0.2,2-0.5v0.3c-0.6,0.3-1.3,0.5-2,0.5c-2.4,0-3.9-1.7-3.9-3.9C122.6,34.2,124.1,32.4,126.5,32.4z"/>
		<path class="st1" d="M133.5,32.4c2.1,0,3.7,1.7,3.7,3.9s-1.6,3.9-3.7,3.9c-2.1,0-3.7-1.7-3.7-3.9S131.4,32.4,133.5,32.4z
			 M133.5,40c2,0,3.5-1.6,3.5-3.6c0-2-1.5-3.6-3.5-3.6c-2,0-3.5,1.6-3.5,3.6C130,38.3,131.5,40,133.5,40z"/>
		<path class="st1" d="M137.9,32.6h0.2l2.3,7.1h0l2.2-7.1h0.2l2.2,7.1h0l2.3-7.1h0.2l-2.4,7.5H145l-2.2-7h0l-2.2,7h-0.2L137.9,32.6z
			"/>
		<path class="st1" d="M149,32.6h0.2l5.3,7.1h0v-7.1h0.2v7.5h-0.2l-5.3-7.1h0v7.1H149V32.6z"/>
		<path class="st1" d="M156.8,32.6h0.2v7.5h-0.2V32.6z"/>
		<path class="st1" d="M159.1,32.6h0.2V36h0l4-3.5h0.3l-4.1,3.5l4.4,4h-0.4l-4.3-4h0v4h-0.2V32.6z"/>
	</g>
</g>
</svg>
