<?xml version="1.0" encoding="utf-8"?>
<!-- Generator: Adobe Illustrator 28.0.0, SVG Export Plug-In . SVG Version: 6.00 Build 0)  -->
<svg version="1.1" id="Warstwa_1" xmlns="http://www.w3.org/2000/svg" xmlns:xlink="http://www.w3.org/1999/xlink" x="0px" y="0px"
	 viewBox="0 0 340.2 96.4" style="enable-background:new 0 0 340.2 96.4;" xml:space="preserve">
<style type="text/css">
	.st0{fill:#FFFFFF;}
	.st1{fill:#B72132;}
	.st2{fill:#808285;}
</style>
<g>
	<g>
		<path d="M150.9,31.1c-0.7,0-1.3,0-1.8,0.1v5.5h1.4c0.8,0,1.4,0,2-0.1c0.6-0.1,1-0.2,1.5-0.5c0.3-0.2,0.7-0.5,0.9-0.8
			s0.3-0.8,0.3-1.4s-0.1-0.9-0.3-1.4c-0.2-0.3-0.5-0.7-0.8-0.9c-0.3-0.2-0.8-0.3-1.3-0.5C152.1,31.1,151.5,31.1,150.9,31.1
			 M150.7,28.3c2.4,0,4.4,0.5,5.7,1.4c1.3,0.9,2,2.3,2,4.2c0,2.3-1.2,3.9-3.5,4.7c0.3,0.3,0.7,0.8,1,1.4s0.8,1.2,1.3,1.7
			c0.5,0.7,0.8,1.3,1.2,2c0.3,0.7,0.7,1.3,1,2h-3.5c-0.3-0.6-0.7-1.2-1-1.8c-0.3-0.6-0.7-1.2-1.2-1.7c-0.3-0.6-0.7-1.2-1.2-1.6
			c-0.3-0.5-0.7-0.9-1-1.4c-0.2,0-0.5,0-0.6,0h-0.3h-1.5v6.5H146V28.8c0.8-0.1,1.6-0.2,2.4-0.3C149.2,28.4,150,28.3,150.7,28.3"/>
		<path d="M170.9,34.8c-0.3,0.3-0.8,0.8-1.3,1.5c-0.6,0.6-1.2,1.3-1.7,2.1c-0.6,0.8-1.3,1.6-1.8,2.4c-0.6,0.8-1.2,1.6-1.6,2.4h6.7
			v2.5h-10.3v-1.8c0.3-0.7,0.8-1.4,1.4-2.2c0.6-0.8,1.2-1.5,1.7-2.3c0.6-0.8,1.2-1.5,1.7-2.2c0.6-0.7,1-1.4,1.5-1.8h-6v-2.5h9.8v2
			H170.9z"/>
		<path d="M181.4,37.9c0-0.5-0.1-0.8-0.2-1.2c-0.1-0.3-0.2-0.7-0.5-0.9c-0.2-0.2-0.5-0.5-0.8-0.7c-0.3-0.1-0.7-0.2-1.2-0.2
			c-0.5,0-0.9,0.1-1.3,0.2c-0.3,0.2-0.7,0.3-0.9,0.7c-0.2,0.2-0.5,0.6-0.6,0.9c-0.1,0.3-0.2,0.7-0.2,1.2H181.4z M172.7,39.3
			c0-1.2,0.1-2.2,0.5-3c0.3-0.8,0.8-1.6,1.4-2.2s1.2-1,2-1.3c0.7-0.2,1.5-0.5,2.2-0.5c1.7,0,3.2,0.6,4.2,1.6c1,1.2,1.5,2.8,1.5,5
			c0,0.1,0,0.3,0,0.6c0,0.2,0,0.3,0,0.6h-8.6c0.1,1,0.5,1.8,1.2,2.4s1.6,0.8,2.9,0.8c0.7,0,1.4-0.1,2-0.2c0.6-0.1,1-0.2,1.4-0.5
			l0.3,2.4c-0.1,0.1-0.3,0.1-0.7,0.2c-0.3,0.1-0.6,0.2-1,0.2c-0.3,0.1-0.8,0.1-1.2,0.2c-0.5,0-0.9,0.1-1.3,0.1c-1.2,0-2.1-0.1-3-0.5
			c-0.8-0.3-1.5-0.8-2.1-1.4s-0.9-1.3-1.2-2.1C172.9,41.2,172.7,40.2,172.7,39.3"/>
		<path d="M186.9,39.2c0-0.9,0.1-1.8,0.5-2.7c0.3-0.8,0.7-1.5,1.3-2.2c0.6-0.6,1.3-1,2.1-1.4c0.8-0.3,1.7-0.6,2.7-0.6
			c1.3,0,2.4,0.2,3.5,0.7l-0.7,2.4c-0.3-0.1-0.7-0.2-1.2-0.3c-0.5-0.1-0.9-0.1-1.4-0.1c-1.2,0-2.1,0.3-2.7,1.2
			c-0.6,0.7-0.9,1.7-0.9,3.1c0,1.3,0.2,2.3,0.9,3c0.6,0.8,1.5,1.2,2.9,1.2c0.5,0,1,0,1.5-0.1c0.5-0.1,0.9-0.2,1.3-0.3l0.5,2.4
			c-0.3,0.1-0.8,0.3-1.5,0.5c-0.7,0.1-1.4,0.2-2.1,0.2c-1.2,0-2.1-0.1-2.9-0.5c-0.8-0.3-1.5-0.8-2.1-1.4s-0.9-1.3-1.2-2.2
			C187,41.2,186.9,40.2,186.9,39.2"/>
		<path d="M208.4,34.8c-0.3,0.3-0.8,0.8-1.3,1.5c-0.6,0.6-1.2,1.3-1.7,2.1c-0.6,0.8-1.3,1.6-1.8,2.4c-0.6,0.8-1.2,1.6-1.7,2.4h6.7
			v2.5h-10.3v-1.8c0.3-0.7,0.8-1.4,1.4-2.2c0.6-0.8,1.2-1.5,1.7-2.3c0.6-0.8,1.2-1.5,1.7-2.2c0.6-0.7,1-1.4,1.5-1.8h-6v-2.5h9.8
			V34.8z"/>
		<path d="M219.9,39.3c0-1.4-0.3-2.4-0.9-3.1c-0.6-0.7-1.6-1.2-2.9-1.2c-0.2,0-0.6,0-0.9,0c-0.3,0-0.6,0.1-0.9,0.1v7.4
			c0.2,0.2,0.6,0.3,1,0.5c0.5,0.1,0.9,0.2,1.4,0.2c1,0,1.8-0.3,2.4-1.2C219.7,41.5,219.9,40.6,219.9,39.3 M222.9,39.2
			c0,1-0.1,1.8-0.3,2.8c-0.2,0.8-0.6,1.5-1.2,2.1c-0.5,0.6-1,1-1.8,1.4c-0.7,0.3-1.5,0.5-2.4,0.5c-0.6,0-1.2-0.1-1.7-0.2
			c-0.5-0.1-0.9-0.3-1.3-0.5v5.1h-3V33.2c0.6-0.1,1.4-0.3,2.3-0.5c0.9-0.1,1.8-0.2,2.8-0.2c1,0,2,0.1,2.8,0.5
			c0.8,0.3,1.5,0.8,2.1,1.4c0.6,0.6,1,1.3,1.3,2.1C222.8,37.2,222.9,38.2,222.9,39.2"/>
		<path d="M234.7,39.2c0-1.3-0.2-2.3-0.8-3c-0.6-0.8-1.3-1.2-2.3-1.2c-1,0-1.7,0.3-2.3,1.2c-0.6,0.7-0.8,1.7-0.8,3s0.2,2.3,0.8,3.1
			c0.6,0.8,1.3,1.2,2.3,1.2c1,0,1.7-0.3,2.3-1.2C234.5,41.5,234.7,40.6,234.7,39.2 M237.9,39.2c0,1-0.1,2-0.5,2.8
			c-0.3,0.8-0.7,1.6-1.3,2.2c-0.6,0.6-1.2,1-2,1.4c-0.8,0.3-1.6,0.5-2.5,0.5c-0.9,0-1.7-0.1-2.5-0.5c-0.8-0.3-1.4-0.8-2-1.4
			c-0.6-0.6-0.9-1.3-1.3-2.2c-0.3-0.8-0.5-1.7-0.5-2.8s0.1-2,0.5-2.8c0.3-0.8,0.7-1.5,1.3-2.2c0.6-0.6,1.2-1,2-1.4
			c0.8-0.3,1.6-0.5,2.5-0.5c0.9,0,1.7,0.1,2.5,0.5c0.8,0.3,1.4,0.8,2,1.4c0.6,0.6,0.9,1.3,1.3,2.2C237.6,37.2,237.9,38.2,237.9,39.2
			"/>
		<path d="M244.2,43.6c0.8,0,1.4-0.1,1.7-0.2c0.3-0.2,0.6-0.5,0.6-0.9s-0.2-0.8-0.6-1s-1-0.6-2-0.9c-0.6-0.2-1-0.5-1.5-0.6
			c-0.5-0.2-0.8-0.5-1.2-0.8c-0.3-0.3-0.6-0.7-0.8-1c-0.2-0.5-0.2-0.9-0.2-1.5c0-1.2,0.5-2.1,1.3-2.8c0.9-0.7,2.1-1,3.6-1
			c0.8,0,1.5,0.1,2.2,0.2c0.7,0.1,1.3,0.2,1.6,0.5l-0.6,2.4c-0.3-0.1-0.8-0.2-1.3-0.5c-0.5-0.1-1.2-0.2-1.7-0.2
			c-0.6,0-1.2,0.1-1.5,0.3s-0.6,0.6-0.6,0.9c0,0.2,0,0.5,0.1,0.6s0.2,0.3,0.3,0.5c0.2,0.1,0.5,0.2,0.7,0.5c0.3,0.1,0.7,0.2,1,0.5
			c0.7,0.2,1.3,0.6,1.8,0.8c0.5,0.2,0.9,0.6,1.3,0.8c0.3,0.3,0.6,0.7,0.7,1.2c0.1,0.5,0.2,0.9,0.2,1.5c0,1.3-0.5,2.2-1.4,2.8
			c-0.9,0.7-2.2,0.9-3.9,0.9c-1.2,0-2.1-0.1-2.8-0.2c-0.7-0.2-1.2-0.3-1.5-0.5l0.6-2.5c0.5,0.2,0.9,0.3,1.6,0.6
			C242.7,43.5,243.4,43.6,244.2,43.6"/>
		<path d="M260.9,39.3c0-1.4-0.3-2.4-0.9-3.1c-0.6-0.7-1.6-1.2-2.9-1.2c-0.2,0-0.6,0-0.9,0c-0.3,0-0.6,0.1-0.9,0.1v7.4
			c0.2,0.2,0.6,0.3,1,0.5c0.5,0.1,0.9,0.2,1.4,0.2c1,0,1.8-0.3,2.4-1.2C260.6,41.5,260.9,40.6,260.9,39.3 M263.9,39.2
			c0,1-0.1,1.8-0.3,2.8c-0.2,0.8-0.6,1.5-1.2,2.1c-0.5,0.6-1,1-1.8,1.4c-0.7,0.3-1.5,0.5-2.4,0.5c-0.6,0-1.2-0.1-1.7-0.2
			c-0.5-0.1-0.9-0.3-1.3-0.5v5.1h-3V33.2c0.6-0.1,1.4-0.3,2.3-0.5c0.9-0.1,1.8-0.2,2.8-0.2c1,0,2,0.1,2.8,0.5
			c0.8,0.3,1.5,0.8,2.1,1.4s1,1.3,1.3,2.1C263.7,37.2,263.9,38.2,263.9,39.2"/>
		<path d="M275.7,39.2c0-1.3-0.2-2.3-0.8-3c-0.6-0.8-1.3-1.2-2.3-1.2c-1,0-1.7,0.3-2.3,1.2c-0.6,0.7-0.8,1.7-0.8,3s0.2,2.3,0.8,3.1
			c0.6,0.8,1.3,1.2,2.3,1.2c1,0,1.7-0.3,2.3-1.2C275.4,41.5,275.7,40.6,275.7,39.2 M278.8,39.2c0,1-0.1,2-0.5,2.8s-0.7,1.6-1.3,2.2
			s-1.2,1-2,1.4c-0.8,0.3-1.6,0.5-2.5,0.5c-0.9,0-1.7-0.1-2.5-0.5c-0.8-0.3-1.4-0.8-2-1.4s-0.9-1.3-1.3-2.2
			c-0.3-0.8-0.5-1.7-0.5-2.8s0.1-2,0.5-2.8s0.7-1.5,1.3-2.2c0.6-0.6,1.2-1,2-1.4c0.8-0.3,1.6-0.5,2.5-0.5c0.9,0,1.7,0.1,2.5,0.5
			c0.8,0.3,1.4,0.8,2,1.4s0.9,1.3,1.3,2.2C278.5,37.2,278.8,38.2,278.8,39.2"/>
		<path d="M286.4,46c-0.9,0-1.6-0.1-2.2-0.3c-0.6-0.2-1-0.5-1.4-0.8c-0.3-0.3-0.6-0.8-0.7-1.3s-0.2-1-0.2-1.7V29.1l3-0.5v12.6
			c0,0.3,0,0.7,0.1,0.9c0.1,0.2,0.1,0.5,0.3,0.6c0.1,0.1,0.3,0.3,0.6,0.3c0.2,0.1,0.6,0.1,0.9,0.2L286.4,46z"/>
		<path d="M292.2,45.7h-2.9V32.7h3v12.9H292.2z M292.5,28.9c0,0.6-0.2,1-0.6,1.4c-0.3,0.3-0.8,0.5-1.3,0.5s-0.9-0.1-1.3-0.5
			c-0.3-0.3-0.6-0.8-0.6-1.4s0.2-1,0.6-1.4c0.3-0.3,0.8-0.5,1.3-0.5c0.5,0,0.9,0.1,1.3,0.5C292.4,27.9,292.5,28.3,292.5,28.9"/>
		<path d="M295.9,29.3l3-0.5v4h4.6v2.5h-4.6v5.2c0,1,0.1,1.7,0.5,2.2c0.3,0.5,0.9,0.7,1.7,0.7c0.6,0,1-0.1,1.5-0.2
			c0.5-0.1,0.8-0.2,1-0.3l0.5,2.4c-0.3,0.1-0.8,0.3-1.4,0.5c-0.6,0.1-1.3,0.2-2,0.2c-0.9,0-1.7-0.1-2.3-0.3c-0.6-0.2-1.2-0.6-1.5-1
			c-0.3-0.5-0.6-1-0.8-1.7c-0.1-0.7-0.2-1.4-0.2-2.3V29.3z"/>
		<path d="M311,43.6c0.9,0,1.6,0,2.1-0.1v-3.4c-0.1,0-0.5-0.1-0.7-0.1c-0.3,0-0.7-0.1-1-0.1c-0.3,0-0.7,0-1,0.1
			c-0.3,0-0.7,0.1-0.9,0.2c-0.2,0.1-0.5,0.3-0.7,0.6c-0.1,0.2-0.2,0.6-0.2,0.9c0,0.7,0.2,1.2,0.7,1.5
			C309.6,43.5,310.2,43.6,311,43.6 M310.8,32.4c1,0,1.8,0.1,2.5,0.3c0.7,0.2,1.3,0.6,1.6,1c0.3,0.5,0.7,1,0.9,1.6
			c0.1,0.7,0.2,1.4,0.2,2.1v7.9c-0.5,0.1-1.2,0.2-2.1,0.3c-0.9,0.1-2,0.2-3.1,0.2c-0.8,0-1.5-0.1-2.1-0.2c-0.7-0.1-1.2-0.3-1.6-0.7
			c-0.5-0.3-0.8-0.8-1-1.3c-0.2-0.6-0.3-1.2-0.3-2c0-0.7,0.1-1.4,0.5-1.8c0.3-0.5,0.7-0.9,1.2-1.3c0.5-0.3,1-0.6,1.7-0.7
			c0.7-0.1,1.4-0.2,2.1-0.2c0.3,0,0.7,0,1,0.1c0.3,0,0.8,0.1,1.2,0.2v-0.5c0-0.3,0-0.7-0.1-1c-0.1-0.3-0.2-0.6-0.5-0.8
			c-0.2-0.2-0.5-0.5-0.8-0.6c-0.3-0.1-0.8-0.2-1.3-0.2c-0.7,0-1.4,0-2,0.1c-0.6,0.1-1,0.2-1.4,0.3l-0.3-2.4c0.3-0.1,0.9-0.2,1.6-0.3
			C309.2,32.5,309.9,32.4,310.8,32.4"/>
		<path d="M151,54.1c-0.8,0-1.4,0-2,0.1v5.9h1.5c1.5,0,2.7-0.2,3.5-0.6c0.8-0.5,1.3-1.3,1.3-2.4c0-0.6-0.1-1-0.3-1.4
			c-0.2-0.3-0.5-0.7-0.9-0.9c-0.3-0.2-0.8-0.3-1.4-0.5C152.2,54.1,151.6,54.1,151,54.1 M150.8,51.3c2.5,0,4.4,0.5,5.8,1.4
			c1.4,0.9,2,2.3,2,4.3c0,1-0.2,1.8-0.6,2.5c-0.3,0.7-0.9,1.3-1.5,1.7c-0.7,0.5-1.5,0.8-2.4,1c-0.9,0.2-2.1,0.3-3.4,0.3h-1.6v6H146
			V51.8c0.7-0.1,1.5-0.2,2.4-0.3C149.2,51.3,150,51.3,150.8,51.3"/>
		<path d="M169.4,62.2c0-1.3-0.2-2.3-0.8-3c-0.6-0.8-1.3-1.2-2.3-1.2s-1.7,0.3-2.3,1.2c-0.6,0.8-0.8,1.7-0.8,3s0.2,2.3,0.8,3.1
			c0.6,0.8,1.3,1.2,2.3,1.2s1.7-0.3,2.3-1.2C169.2,64.5,169.4,63.5,169.4,62.2 M172.5,62.2c0,1-0.1,2-0.5,2.8
			c-0.3,0.8-0.7,1.6-1.3,2.2c-0.6,0.6-1.2,1-2,1.4c-0.8,0.3-1.6,0.5-2.5,0.5c-0.9,0-1.7-0.1-2.5-0.5c-0.8-0.3-1.4-0.8-2-1.4
			c-0.6-0.6-0.9-1.3-1.3-2.2c-0.3-0.8-0.5-1.7-0.5-2.8s0.1-2,0.5-2.8c0.3-0.8,0.7-1.5,1.3-2.2c0.6-0.6,1.2-1,2-1.4s1.6-0.5,2.5-0.5
			s1.7,0.1,2.5,0.5c0.8,0.3,1.4,0.8,2,1.4s0.9,1.3,1.3,2.2C172.3,60.2,172.5,61.2,172.5,62.2"/>
		<path d="M180.2,68.9c-0.9,0-1.6-0.1-2.2-0.3s-1-0.5-1.4-0.8c-0.3-0.3-0.6-0.8-0.7-1.3s-0.2-1-0.2-1.7V52l3-0.5v12.6
			c0,0.3,0,0.7,0.1,0.9s0.1,0.5,0.3,0.6c0.1,0.1,0.3,0.3,0.6,0.3c0.2,0.1,0.6,0.1,0.9,0.2L180.2,68.9z"/>
		<path d="M186.2,66.6c0.8,0,1.4-0.1,1.7-0.2c0.3-0.2,0.6-0.5,0.6-0.9s-0.2-0.8-0.6-1c-0.3-0.2-1-0.6-2-0.9c-0.6-0.2-1-0.5-1.5-0.6
			c-0.5-0.2-0.8-0.5-1.2-0.8c-0.3-0.3-0.6-0.7-0.8-1c-0.2-0.5-0.2-0.9-0.2-1.5c0-1.2,0.5-2.1,1.3-2.8c0.9-0.7,2.1-1,3.6-1
			c0.8,0,1.5,0.1,2.2,0.2c0.7,0.1,1.2,0.2,1.6,0.5l-0.6,2.4c-0.3-0.1-0.8-0.2-1.3-0.5c-0.5-0.1-1.2-0.2-1.7-0.2
			c-0.6,0-1.2,0.1-1.5,0.3c-0.3,0.2-0.6,0.6-0.6,0.9c0,0.2,0,0.5,0.1,0.6c0.1,0.1,0.2,0.3,0.3,0.5c0.2,0.1,0.5,0.2,0.7,0.5
			c0.3,0.1,0.7,0.2,1,0.5c0.7,0.2,1.3,0.6,1.8,0.8c0.5,0.2,0.9,0.6,1.3,0.8c0.3,0.3,0.6,0.7,0.7,1.2c0.1,0.5,0.2,0.9,0.2,1.5
			c0,1.3-0.5,2.2-1.4,2.8c-0.9,0.7-2.2,0.9-3.9,0.9c-1.2,0-2.1-0.1-2.8-0.2c-0.7-0.2-1.2-0.3-1.5-0.5l0.5-2.5
			c0.5,0.2,0.9,0.3,1.6,0.6C184.7,66.5,185.4,66.6,186.2,66.6"/>
		<path d="M197.3,60.8c0.3-0.3,0.8-0.8,1.3-1.3c0.5-0.5,0.8-0.9,1.3-1.4c0.5-0.5,0.8-0.9,1.2-1.3c0.3-0.5,0.7-0.8,0.9-1.2h3.6
			c-0.8,0.9-1.7,1.8-2.7,2.9c-0.9,1-1.8,2-2.8,2.9c0.5,0.5,1,0.9,1.5,1.5c0.6,0.6,1,1.2,1.6,1.8c0.5,0.7,1,1.3,1.4,2
			c0.5,0.7,0.8,1.3,1.2,1.8h-3.5c-0.3-0.5-0.7-1-1-1.6c-0.3-0.6-0.8-1.2-1.3-1.6c-0.5-0.6-0.9-1-1.4-1.5c-0.5-0.5-0.9-0.9-1.4-1.2
			v5.9h-3V52.3l3-0.5v9H197.3z"/>
		<path d="M212.5,66.6c0.9,0,1.6,0,2.1-0.1v-3.4c-0.1,0-0.5-0.1-0.7-0.1c-0.3,0-0.7-0.1-1-0.1c-0.3,0-0.7,0-1,0.1
			c-0.3,0-0.7,0.1-0.9,0.2c-0.2,0.1-0.5,0.3-0.7,0.6c-0.1,0.2-0.2,0.6-0.2,0.9c0,0.7,0.2,1.2,0.7,1.5
			C211.1,66.5,211.7,66.6,212.5,66.6 M212.3,55.4c1,0,1.8,0.1,2.5,0.3c0.7,0.2,1.3,0.6,1.6,1c0.3,0.5,0.7,1,0.9,1.6
			c0.2,0.7,0.2,1.4,0.2,2.1v7.9c-0.5,0.1-1.2,0.2-2.1,0.3c-0.9,0.1-2,0.2-3.1,0.2c-0.8,0-1.5-0.1-2.1-0.2c-0.7-0.1-1.2-0.3-1.6-0.7
			c-0.5-0.3-0.8-0.8-1-1.3c-0.2-0.6-0.3-1.2-0.3-2c0-0.7,0.1-1.4,0.5-1.8c0.3-0.5,0.7-0.9,1.2-1.3c0.5-0.3,1-0.6,1.7-0.7
			c0.7-0.1,1.4-0.2,2.1-0.2c0.3,0,0.7,0,1,0.1c0.3,0,0.7,0.1,1.2,0.2v-0.5c0-0.3,0-0.7-0.1-1s-0.2-0.6-0.5-0.8s-0.5-0.5-0.8-0.6
			s-0.8-0.2-1.3-0.2c-0.7,0-1.3,0-2,0.1c-0.6,0.1-1,0.2-1.4,0.3l-0.3-2.4c0.3-0.1,0.9-0.2,1.6-0.3C210.7,55.5,211.5,55.4,212.3,55.4
			"/>
	</g>
	<g>
		<rect x="21.1" y="14" class="st0" width="102.2" height="34.1"/>
		<rect x="21.1" y="48.1" class="st1" width="102.2" height="34.1"/>
	</g>
	<path class="st2" d="M21.5,14.3H123v67.5H21.5V14.3z M21.1,82.2h102.2V14H21.1V82.2z"/>
</g>
</svg>
