<?xml version="1.0" encoding="utf-8"?>
<!-- Generator: Adobe Illustrator 28.0.0, SVG Export Plug-In . SVG Version: 6.00 Build 0)  -->
<svg version="1.1" id="Warstwa_1" xmlns="http://www.w3.org/2000/svg" xmlns:xlink="http://www.w3.org/1999/xlink" x="0px" y="0px"
	 viewBox="0 0 1155.2 2118.3" style="enable-background:new 0 0 1155.2 2118.3;" xml:space="preserve">
<style type="text/css">
	.st0{fill:#585858;}
	.st1{fill:url(#SVGID_1_);}
	.st2{fill:url(#SVGID_00000145029494276555278660000000283534676204366248_);}
	.st3{fill:#003663;}
	.st4{fill:url(#SVGID_00000095317585747801337080000001089881156619493529_);}
	.st5{fill:url(#SVGID_00000176011581085099371170000005924578067612593567_);}
	.st6{fill:url(#SVGID_00000127021938631316181280000006698130693270102678_);}
	.st7{fill:url(#SVGID_00000085959425795963187400000000163230878893310342_);}
	.st8{fill:url(#SVGID_00000117648561296011383060000011198675903661950894_);}
	.st9{fill:#DBDBDB;}
	.st10{fill:#EDEDED;}
	.st11{fill:url(#SVGID_00000067209542644931636600000004632114015230475963_);}
	.st12{fill:url(#SVGID_00000179625422917281555610000002476532996841261185_);}
	.st13{fill:url(#SVGID_00000078014078242258922670000005016442087245542839_);}
</style>
<g>
	<path class="st0" d="M602,2104.4c-55.8,2.6-109.7,1-145.8-0.9c32.8-23.4,108.4-74.2,171.7-94.4l43.4-2.6c0,0,14.7,22.4,20,73.6
		C684,2089.1,663,2101.6,602,2104.4z"/>
	<path class="st0" d="M455.7,2103.8c0.1-0.1,0.3-0.2,0.4-0.3c36,1.9,90,3.5,145.8,0.9c61-2.8,82.1-15.3,89.3-24.3
		c0.2,2.4,0.5,4.7,0.7,7.2c0.9,11.2-7.4,21.1-18.7,22c-45.7,3.5-158.9,11.3-213.5,8.4C452.5,2117.3,449.9,2108,455.7,2103.8z"/>
	<path class="st0" d="M1000.8,2089.5c4.1-26.2,10.6-64,15.7-73.7c7.9-15.2,35.1,0,35.1,0s19.1,8.9,27.9,23.7
		c5.6,9.5,21.1,36.3,31.6,54.6c1.2,2.1,1.7,4.3,1.6,6.5l-108.8,3.8C1001.2,2100.1,1000,2094.9,1000.8,2089.5z"/>
	<path class="st0" d="M1112.7,2100.6c-0.2,6.2-5.1,11.9-12.1,12l-77.5,2.1c-8.2,0.2-15.3-4-19.2-10.4L1112.7,2100.6z"/>
	
		<linearGradient id="SVGID_1_" gradientUnits="userSpaceOnUse" x1="-2073.1401" y1="1979.4093" x2="-2000.3835" y2="1979.4093" gradientTransform="matrix(-1 0 0 1 -1007.8829 0)">
		<stop  offset="0" style="stop-color:#FEBBBA"/>
		<stop  offset="1" style="stop-color:#FF928E"/>
	</linearGradient>
	<path class="st1" d="M992.5,1928.8c0.9,3.1,15,71.3,21.2,101.2c1.7,8.3,9.1,14.1,17.6,13.6c4.6-0.2,10-0.6,15.6-1.4
		c10-1.3,17.6-9.6,17.9-19.7c1-26.2,1.5-76.5-8.1-96C1043.3,1899.7,992.5,1928.8,992.5,1928.8z"/>
	
		<linearGradient id="SVGID_00000057837790032512963150000007225050603905160126_" gradientUnits="userSpaceOnUse" x1="-1687.7031" y1="1974.6466" x2="-1627.0626" y2="1974.6466" gradientTransform="matrix(-1 0 0 1 -1007.8829 0)">
		<stop  offset="0" style="stop-color:#FEBBBA"/>
		<stop  offset="1" style="stop-color:#FF928E"/>
	</linearGradient>
	<path style="fill:url(#SVGID_00000057837790032512963150000007225050603905160126_);" d="M679.8,1948.3c-6-0.2,2.4,31.1-6.7,61.9
		c-2.1,6.9-7.3,12.4-14.5,12.5c-4.7,0.1-10.3,0-15.9-0.5c-8.5-0.7-15.3-7.3-16.1-15.8l-7.4-79.9L679.8,1948.3z"/>
	<path class="st3" d="M511.2,1099.4c2.7,13.1,97.7,567.2,103.5,853.9c0.1,4.8,3.6,8.8,8.4,9.5c12.1,1.7,35.5,3.8,58.3-0.4
		c3.1-0.6,5.5-3.1,5.7-6.3c3.3-53.4,30-505.2-2.7-717.9c0,0,270.1,568.5,311.1,725.2c1,3.8,4.5,6.4,8.4,6.2
		c11.6-0.6,35.6-2.7,54.7-9.7c6.8-2.5,10.7-9.7,9-16.8c-22.9-93.8-183.2-740.1-292-882.5L511.2,1099.4z"/>
	
		<linearGradient id="SVGID_00000105428066074266628770000018160665674877922959_" gradientUnits="userSpaceOnUse" x1="-1536.911" y1="1042.3678" x2="-1785.1016" y2="1363.2422" gradientTransform="matrix(-1 0 0 1 -1007.8829 0)">
		<stop  offset="0" style="stop-color:#CB236D"/>
		<stop  offset="1" style="stop-color:#4C246D"/>
	</linearGradient>
	<path style="fill:url(#SVGID_00000105428066074266628770000018160665674877922959_);" d="M684.3,1241.8c0.9,0,1.8-0.3,2.5-1
		c1.4-1.4,1.4-3.6,0.1-5l-36.2-37c-1.4-1.4-3.6-1.4-5-0.1c-1.4,1.4-1.4,3.6-0.1,5l36.2,37C682.5,1241.4,683.4,1241.8,684.3,1241.8z"
		/>
	<path class="st3" d="M419.8,384.3c80.8-12.1,239.4-29.6,342.9,0.8l-11.2,319.7l-374.8-40.4l-31.8-45.2
		C344.8,619.3,359.6,393.4,419.8,384.3z"/>
	
		<linearGradient id="SVGID_00000145055417096571358310000003665144962690770072_" gradientUnits="userSpaceOnUse" x1="-1287.4088" y1="412.9774" x2="-1259.0459" y2="238.072" gradientTransform="matrix(-0.9943 -0.107 -0.107 0.9943 -682.6556 -100.3991)">
		<stop  offset="0" style="stop-color:#FEBBBA"/>
		<stop  offset="1" style="stop-color:#FF928E"/>
	</linearGradient>
	<path style="fill:url(#SVGID_00000145055417096571358310000003665144962690770072_);" d="M606.5,213.1c0,0,7.5,127.2,6.1,166.7
		c0,0-104.1,17-128.9-0.8l19.6-150.8L606.5,213.1z"/>
	<g>
		
			<linearGradient id="SVGID_00000178916384042996594430000004913945572211145369_" gradientUnits="userSpaceOnUse" x1="-1193.8765" y1="126.3321" x2="-1387.1104" y2="274.1856" gradientTransform="matrix(-0.9943 -0.107 -0.107 0.9943 -682.6556 -100.3991)">
			<stop  offset="0" style="stop-color:#FEBBBA"/>
			<stop  offset="1" style="stop-color:#FF928E"/>
		</linearGradient>
		<path style="fill:url(#SVGID_00000178916384042996594430000004913945572211145369_);" d="M505.3,85.8c0,0-41.9,73.6-48.5,113.9
			c-6.6,40.3-18.2,65.6,27.8,78.8c46,13.2,88-5.9,113.7-44c0,0,40.2-58.6,35.4-84.9C628.9,123.4,505.3,85.8,505.3,85.8z"/>
		<path class="st3" d="M585.3,203.8l-5.9-0.6c0,0,29.8-47.4,9.3-58.5C568.2,133.5,485.1,107,470,74.9c-14.5-31,5.3-66.8,30-74.8
			c1.6-0.5,3.2,0.4,3.9,1.9l1.6,3.9c1.1,2.7,4.8,2.7,5.9,0l0,0c1-2.5,4.6-2.7,5.8-0.3c4.6,9.6,18.3,25.9,58.2,37.8
			c56.7,16.9,92.4,44.4,89,84.5c-0.2,2.5,2.3,4.2,4.6,3.1c4.5-2.1,11.5-2.6,19.8,6c14.4,15.1,4.2,49-33.7,73.7
			c-1.8,1.2-2.1,3.8-0.4,5.1c5.9,4.8,14.2,15.6-11.6,26c-26.4,10.6-41,7.6-46.4,5.6c-1.5-0.5-2.3-2-2.1-3.6l6-35.2
			c0.3-1.8-1-3.5-2.8-3.7L585.3,203.8z"/>
		
			<linearGradient id="SVGID_00000050658132945240724620000018291913530613189030_" gradientUnits="userSpaceOnUse" x1="-1217.8458" y1="95.0094" x2="-1411.0795" y2="242.8626" gradientTransform="matrix(-0.9943 -0.107 -0.107 0.9943 -682.6556 -100.3991)">
			<stop  offset="0" style="stop-color:#FEBBBA"/>
			<stop  offset="1" style="stop-color:#FF928E"/>
		</linearGradient>
		<path style="fill:url(#SVGID_00000050658132945240724620000018291913530613189030_);" d="M583.1,211c0,0,18.1-47.9,38.8-31.7
			c20.6,16.2-17.4,54-35.4,54L583.1,211z"/>
	</g>
	<g>
		
			<linearGradient id="SVGID_00000169559243112227817820000017341812087693476764_" gradientUnits="userSpaceOnUse" x1="2967.1104" y1="2625.7754" x2="1719.4849" y2="4263.6841" gradientTransform="matrix(0.1855 -0.9827 0.9827 0.1855 -2966.2458 2604.0601)">
			<stop  offset="0" style="stop-color:#FF928E"/>
			<stop  offset="1" style="stop-color:#FE7062"/>
		</linearGradient>
		<path style="fill:url(#SVGID_00000169559243112227817820000017341812087693476764_);" d="M134.1,634.4l9.9-39.1
			C149,576,168.2,564,187.7,568l936.1,191c21.3,4.3,35,25.2,30.5,46.5l-57.1,270.5L134.1,634.4z"/>
		<path class="st9" d="M45.4,1109l70.4-506c1.5-10.5,11.5-17.5,21.8-15.2L1099,801.3c20.5,4.6,33.4,25,28.7,45.4l-80.7,349.8
			L45.4,1109z"/>
		<path class="st10" d="M70.8,1086l27-451.6c0.7-11.6,11.5-19.9,22.9-17.5l971.5,205.6c13.7,2.9,22.7,16,20.5,29.8l-51.7,326.2
			L70.8,1086z"/>
		
			<linearGradient id="SVGID_00000093874544616021622270000017437039109885571224_" gradientUnits="userSpaceOnUse" x1="694.7688" y1="869.2759" x2="-218.3107" y2="1889.3562">
			<stop  offset="0" style="stop-color:#FF928E"/>
			<stop  offset="1" style="stop-color:#FE7062"/>
		</linearGradient>
		<path style="fill:url(#SVGID_00000093874544616021622270000017437039109885571224_);" d="M0.4,1192.8l61.2-489.2
			c3-24.4,26-41.1,50.2-36.6l996.2,188c20.2,3.8,33.5,23.3,29.7,43.5l-84.1,445.8c-4,21-23.7,35.3-44.9,32.5l-965.8-129
			C16,1244.2-3,1219.7,0.4,1192.8z"/>
		
			<linearGradient id="SVGID_00000023968883714534930520000010845523975103577487_" gradientUnits="userSpaceOnUse" x1="401.5925" y1="606.852" x2="-511.487" y2="1626.9323">
			<stop  offset="0" style="stop-color:#FF928E"/>
			<stop  offset="1" style="stop-color:#FE7062"/>
		</linearGradient>
		<path style="fill:url(#SVGID_00000023968883714534930520000010845523975103577487_);" d="M462.3,733.2L462.3,733.2
			c-3.9,20.8-23.9,34.4-44.7,30.5l-222.1-41.9c-20.8-3.9-34.4-23.9-30.5-44.7l0,0c3.9-20.8,23.9-34.4,44.7-30.5l222.1,41.9
			C452.5,692.4,466.2,712.4,462.3,733.2z"/>
	</g>
	<path class="st3" d="M658.1,524.5l104.5-139.4c0,0,168,178.5,200.2,405l-104.8,51.1C825.6,764.9,765.7,661.6,658.1,524.5z"/>
	
		<linearGradient id="SVGID_00000016761527308454490590000012660188169779609730_" gradientUnits="userSpaceOnUse" x1="938.3572" y1="888.8702" x2="1413.1385" y2="133.2321">
		<stop  offset="0" style="stop-color:#FEBBBA"/>
		<stop  offset="1" style="stop-color:#FF928E"/>
	</linearGradient>
	<path style="fill:url(#SVGID_00000016761527308454490590000012660188169779609730_);" d="M807.9,1152.6
		c12.4-20.7,36.6-60.2,48.3-72.5c0,0-10.8-6.8-31.4-4.3c-20.6,2.5-36.8-7.5-36.2-18.8l98.4-30.2c4.4-9.2,23.9-61.7-29-185.7
		l104.8-51.1c12.1,84.8,5.1,176.3-36.8,267.8c0,0-32.5,101.1-69.9,123.5C758.6,1239.9,803.2,1160.5,807.9,1152.6z"/>
</g>
</svg>
