<?xml version="1.0" encoding="utf-8"?>
<!-- Generator: Adobe Illustrator 28.0.0, SVG Export Plug-In . SVG Version: 6.00 Build 0)  -->
<svg version="1.1" id="Warstwa_1" xmlns="http://www.w3.org/2000/svg" xmlns:xlink="http://www.w3.org/1999/xlink" x="0px" y="0px"
	 viewBox="0 0 616 487.4" style="enable-background:new 0 0 616 487.4;" xml:space="preserve">
<style type="text/css">
	.st0{fill:#F6F5F5;}
</style>
<g>
	<path class="st0" d="M337.1,1.1c16.7,1.2,29.7,3.1,35.8,4c21.3,3.2,42.1,8.4,62.4,15.1c20.9,7,41,15.8,60,27
		c21.2,12.6,40.6,27.4,57.4,45.6c10.9,11.7,20.5,24.3,28.9,37.9c15.6,25.3,22.2,47.5,25.9,60.3c4.5,15.2,6.1,25.6,6.6,29
		c0.6,4.3,2.2,16.4,2,32c-0.1,6.8-0.5,12.1-1,18c-0.7,9.3-1.8,18.2-2.6,23.8c-4.7,31.3-18.1,59.3-19.4,61.9
		c-7.4,15.4-16.6,29.7-27.9,42.7c-10.5,12.1-22.2,22.9-35.5,31.6c-13.7,8.9-28,16.9-43,23.7c-18.5,8.4-37.5,15.2-57.1,20.2
		c-40,10.3-72.2,12.1-93,13c-16,0.7-29.9,0.5-40.4,0.1c-5.3-0.2-23.8-1-48-4.1c-9.2-1.2-22.9-3.5-39.5-6.6
		c-12.9-2.4-25.7-5.7-38.4-9.2c-19.4-5.5-38.3-12.6-56.2-21.8C99.5,438,86,429.5,73.4,419.5c-13.5-10.8-25.6-22.9-36-36.6
		C27.8,370.2,20,356.5,14,341.7c-8.6-21-11.4-38.9-12.3-45.9C0,283.6,0,274.2,0,267c0-14,1.3-24.6,1.7-28.1
		c0.7-5.5,2.7-20.4,8.5-39.2c5.4-17.4,12.8-34,21.8-49.9c11.2-19.8,25-37.6,40.5-54.2c13.6-14.6,28.7-27.5,45-39.1
		c22.9-16.2,47.6-29,74-38.4c17.2-6.1,34.8-10.6,52.7-13.6c9.7-1.6,19.5-3,29.3-3.6C282.6,0.4,293.6,0,306,0
		C321.9,0,333.8,0.8,337.1,1.1z"/>
</g>
</svg>
